SplineFontDB: 3.0
FontName: FatemiMaqala-Bold
FullName: FatemiMaqala
FamilyName: FatemiMaqala
Weight: Bold
Copyright: All the rights are reserved to Dawat Hadiyah
Version: 1.0
ItalicAngle: 0
UnderlinePosition: -1250
UnderlineWidth: 100
Ascent: 1638
Descent: 410
InvalidEm: 0
LayerCount: 4
Layer: 0 1 "Back" 1
Layer: 1 1 "Fore" 0
Layer: 2 0 "Back 2" 1
Layer: 3 1 "Back 3" 1
XUID: [1021 574 -2067448607 13058199]
UseXUID: 1
UseUniqueID: 1
StyleMap: 0x0000
FSType: 0
OS2Version: 0
OS2_WeightWidthSlopeOnly: 0
OS2_UseTypoMetrics: 1
CreationTime: 1033018408
ModificationTime: 1442599357
PfmFamily: 81
TTFWeight: 500
TTFWidth: 5
LineGap: 0
VLineGap: 0
Panose: 0 0 0 0 0 0 0 0 0 0
OS2TypoAscent: 2036
OS2TypoAOffset: 0
OS2TypoDescent: -1400
OS2TypoDOffset: 0
OS2TypoLinegap: -100
OS2WinAscent: 2036
OS2WinAOffset: 0
OS2WinDescent: 1400
OS2WinDOffset: 0
HheadAscent: 2036
HheadAOffset: 0
HheadDescent: -1400
HheadDOffset: 0
OS2SubXSize: 1434
OS2SubYSize: 1331
OS2SubXOff: 0
OS2SubYOff: 293
OS2SupXSize: 1434
OS2SupYSize: 1331
OS2SupXOff: 0
OS2SupYOff: 928
OS2StrikeYSize: 102
OS2StrikeYPos: 530
OS2CapHeight: 1334
OS2XHeight: 873
OS2Vendor: 'GLYF'
OS2CodePages: 00000040.00000000
OS2UnicodeRanges: 00006000.00000000.00000000.00000000
Lookup: 1 0 0 "'ccmp' Glyph Composition/Decomposition in Latin lookup 10" { "'ccmp' Glyph Composition/Decomposition in Latin lookup 10 subtable"  } ['ccmp' ('latn' <'TRK ' > ) ]
Lookup: 1 1 0 "'isol' Isolated Forms in Arabic lookup 1" { "'isol' Isolated Forms in Arabic lookup 1 subtable"  } ['isol' ('arab' <'dflt' > ) ]
Lookup: 1 1 0 "'fina' Terminal Forms in Arabic lookup 4" { "'fina' Terminal Forms in Arabic lookup 4 subtable"  } ['fina' ('arab' <'dflt' > ) ]
Lookup: 1 1 0 "'medi' Medial Forms in Arabic lookup 3" { "'medi' Medial Forms in Arabic lookup 3 subtable"  } ['medi' ('arab' <'dflt' > ) ]
Lookup: 1 1 0 "'init' Initial Forms in Arabic lookup 2" { "'init' Initial Forms in Arabic lookup 2 subtable"  } ['init' ('arab' <'dflt' > ) ]

StartChar: .notdef
Encoding: 0 -1 0
Width: 748
Flags: W
LayerCount: 4
Fore
SplineSet
161 93 m 1,0,-1
 519 93 l 1,1,-1
 519 1272 l 1,2,-1
 161 1272 l 1,3,-1
 161 93 l 1,0,-1
43 0 m 2,4,-1
 43 1365 l 2,5,6
 43 1383 43 1383 61 1389 c 0,7,8
 65 1390 65 1390 68 1390 c 2,9,-1
 612 1390 l 2,10,11
 630 1390 630 1390 636 1372 c 0,12,13
 637 1368 637 1368 637 1365 c 2,14,-1
 637 0 l 2,15,16
 637 -18 637 -18 619 -24 c 0,17,18
 615 -25 615 -25 612 -25 c 2,19,-1
 68 -25 l 2,20,21
 50 -25 50 -25 44 -7 c 0,22,23
 43 -3 43 -3 43 0 c 2,4,-1
EndSplineSet
Validated: 1
EndChar

StartChar: exclam
Encoding: 4 33 4
Width: 482
GlyphClass: 2
Flags: W
LayerCount: 4
Fore
SplineSet
250 1309 m 0,0,1
 307 1308 307 1308 337 1262 c 0,2,3
 363 1220 363 1220 363 1168 c 0,4,5
 363 1141 363 1141 355 1052 c 0,6,7
 347 963 347 963 328.5 751 c 128,-1,8
 310 539 310 539 293 342 c 0,9,10
 292 337 292 337 290 333 c 0,11,12
 271 297 271 297 238 293 c 0,13,14
 231 293 231 293 226 295 c 0,15,16
 199 307 199 307 188 329 c 0,17,18
 186 334 186 334 185 338 c 0,19,20
 125 1029 125 1029 125 1168 c 0,21,22
 126 1222 126 1222 158 1264 c 0,23,24
 194 1308 194 1308 250 1309 c 0,0,1
105 90 m 0,25,26
 106 146 106 146 146 185 c 0,27,28
 187 223 187 223 242 223 c 0,29,30
 298 222 298 222 336 184 c 0,31,32
 374 144 374 144 375 90 c 0,33,34
 374 35 374 35 337 -6 c 0,35,36
 297 -47 297 -47 242 -47 c 0,37,38
 186 -46 186 -46 146 -6 c 0,39,40
 105 35 105 35 105 90 c 0,25,26
EndSplineSet
Validated: 1
Substitution2: "'smcp' Lowercase to Small Capitals lookup 12 subtable" exclam.sc
EndChar

StartChar: quotedbl
Encoding: 5 34 5
Width: 560
GlyphClass: 2
Flags: W
LayerCount: 4
Fore
SplineSet
182 1423 m 0,0,1
 225 1422 225 1422 253 1388 c 0,2,3
 258 1381 258 1381 259 1372 c 0,4,5
 259 1326 259 1326 249 1193 c 0,6,7
 239 1059 239 1059 231 981 c 0,8,9
 230 976 230 976 228 973 c 0,10,11
 211 941 211 941 177 924 c 0,12,13
 171 922 171 922 166 921 c 0,14,15
 139 922 139 922 126 947 c 0,16,17
 125 949 125 949 124 951 c 0,18,19
 53 1194 53 1194 53 1258 c 0,20,21
 54 1313 54 1313 87 1365 c 0,22,23
 125 1422 125 1422 182 1423 c 0,0,1
422 1423 m 0,24,25
 465 1422 465 1422 493 1388 c 0,26,27
 498 1381 498 1381 499 1372 c 0,28,29
 499 1326 499 1326 489 1193 c 0,30,31
 479 1059 479 1059 471 981 c 0,32,33
 470 976 470 976 468 973 c 0,34,35
 451 941 451 941 417 924 c 0,36,37
 411 922 411 922 406 921 c 0,38,39
 379 922 379 922 366 947 c 0,40,41
 365 949 365 949 364 951 c 0,42,43
 293 1194 293 1194 293 1258 c 0,44,45
 294 1313 294 1313 327 1365 c 0,46,47
 365 1422 365 1422 422 1423 c 0,24,25
EndSplineSet
Validated: 1
EndChar

StartChar: numbersign
Encoding: 6 35 6
Width: 960
GlyphClass: 2
Flags: W
LayerCount: 4
Fore
SplineSet
563 479 m 1,0,-1
 600 713 l 1,1,-1
 395 713 l 1,2,-1
 357 479 l 1,3,-1
 563 479 l 1,0,-1
680 479 m 1,4,-1
 785 479 l 2,5,6
 817 479 817 479 824 441 c 0,7,8
 825 437 825 437 824 434 c 0,9,10
 825 406 825 406 815 377 c 0,11,12
 802 344 802 344 782 334 c 0,13,14
 776 332 776 332 771 331 c 2,15,-1
 656 331 l 1,16,-1
 628 150 l 2,17,18
 628 149 628 149 627 148 c 0,19,20
 622 130 622 130 602 116 c 0,21,22
 582 103 582 103 555 103 c 0,23,24
 541 103 541 103 532 107 c 0,25,26
 517 114 517 114 512 123 c 2,27,-1
 511 125 l 2,28,29
 508 132 508 132 508 140 c 2,30,-1
 539 331 l 1,31,-1
 333 331 l 1,32,-1
 304 150 l 2,33,34
 304 149 304 149 303 148 c 0,35,36
 298 131 298 131 280 117 c 0,37,38
 261 103 261 103 233 103 c 0,39,40
 219 103 219 103 210 107 c 0,41,42
 195 114 195 114 190 123 c 2,43,-1
 189 125 l 2,44,45
 185 132 185 132 186 140 c 2,46,-1
 217 331 l 1,47,-1
 113 331 l 2,48,49
 109 331 109 331 106 332 c 0,50,51
 77 341 77 341 77 379 c 0,52,53
 77 405 77 405 88 434 c 0,54,55
 103 469 103 469 125 478 c 0,56,57
 129 479 129 479 133 479 c 2,58,-1
 241 479 l 1,59,-1
 278 713 l 1,60,-1
 169 713 l 2,61,62
 134 714 134 714 133 760 c 0,63,64
 133 788 133 788 143 817 c 0,65,66
 157 852 157 852 179 860 c 0,67,68
 183 861 183 861 187 861 c 2,69,-1
 302 861 l 1,70,-1
 330 1040 l 2,71,72
 330 1042 330 1042 331 1043 c 0,73,74
 335 1056 335 1056 337 1059 c 0,75,76
 341 1065 341 1065 346 1072 c 0,77,78
 357 1084 357 1084 374 1086 c 0,79,80
 384 1087 384 1087 399 1087 c 0,81,82
 424 1086 424 1086 439 1077 c 0,83,84
 452 1068 452 1068 450 1052 c 2,85,-1
 418 861 l 1,86,-1
 624 861 l 1,87,-1
 652 1040 l 2,88,89
 652 1042 652 1042 653 1043 c 0,90,91
 657 1056 657 1056 659 1059 c 0,92,93
 663 1065 663 1065 668 1072 c 0,94,95
 679 1084 679 1084 696 1086 c 0,96,97
 706 1087 706 1087 721 1087 c 0,98,99
 746 1086 746 1086 761 1077 c 0,100,101
 773 1068 773 1068 772 1052 c 2,102,-1
 741 861 l 1,103,-1
 839 861 l 2,104,105
 871 861 871 861 878 822 c 0,106,107
 879 819 879 819 879 816 c 0,108,109
 881 788 881 788 871 760 c 0,110,111
 858 727 858 727 838 716 c 0,112,113
 832 714 832 714 827 713 c 2,114,-1
 717 713 l 1,115,-1
 680 479 l 1,4,-1
EndSplineSet
Validated: 1
EndChar

StartChar: dollar
Encoding: 7 36 7
Width: 996
GlyphClass: 2
Flags: W
LayerCount: 4
Fore
SplineSet
464 792 m 1,0,-1
 528 1185 l 1,1,2
 515 1187 515 1187 502 1187 c 0,3,4
 447 1187 447 1187 409 1170 c 0,5,6
 372 1153 372 1153 354 1126 c 0,7,8
 334 1096 334 1096 326 1066 c 0,9,10
 318 1034 318 1034 317 1000 c 0,11,12
 317 960 317 960 330 929 c 0,13,14
 343 897 343 897 369 869 c 0,15,16
 398 839 398 839 424 820 c 0,17,18
 442 807 442 807 464 792 c 1,0,-1
538 491 m 1,19,-1
 469 74 l 1,20,21
 483 73 483 73 498 73 c 0,22,23
 584 74 584 74 644 128 c 0,24,25
 703 184 703 184 703 280 c 0,26,27
 703 301 703 301 699 319 c 0,28,29
 695 339 695 339 691 354 c 0,30,31
 687 366 687 366 678 380 c 0,32,33
 664 398 664 398 658 408 c 0,34,35
 652 415 652 415 637 428 c 0,36,37
 617 443 617 443 609 449 c 0,38,39
 601 455 601 455 577 469 c 0,40,41
 552 484 552 484 544 488 c 2,42,-1
 538 491 l 1,19,-1
584 1391 m 0,43,44
 644 1391 644 1391 660 1382 c 0,45,46
 678 1371 678 1371 679 1352 c 0,47,48
 679 1350 679 1350 679 1348 c 2,49,-1
 668 1284 l 1,50,51
 691 1278 691 1278 721 1270 c 0,52,53
 773 1256 773 1256 809 1248 c 0,54,55
 824 1244 824 1244 828 1230 c 0,56,57
 836 1193 836 1193 842 1147 c 0,58,59
 848 1101 848 1101 849 1073 c 0,60,61
 851 1045 851 1045 852 1001 c 0,62,63
 853 956 853 956 853 952 c 0,64,65
 852 938 852 938 841 931 c 0,66,67
 821 919 821 919 792 919 c 0,68,69
 764 920 764 920 746 936 c 0,70,71
 740 943 740 943 739 951 c 0,72,73
 732 1002 732 1002 698 1060 c 0,74,75
 674 1100 674 1100 643 1128 c 1,76,-1
 575 723 l 1,77,78
 593 711 593 711 625 692 c 0,79,80
 660 671 660 671 681 658 c 0,81,82
 703 644 703 644 737 621 c 0,83,84
 772 596 772 596 794 577 c 0,85,86
 817 556 817 556 841 528 c 0,87,88
 868 498 868 498 884 470 c 0,89,90
 899 441 899 441 910 407 c 0,91,92
 921 370 921 370 921 332 c 0,93,94
 920 222 920 222 858 134 c 0,95,96
 795 47 795 47 700 0 c 0,97,98
 603 -45 603 -45 494 -45 c 0,99,100
 471 -45 471 -45 449 -44 c 1,101,-1
 439 -108 l 1,102,103
 432 -126 432 -126 414 -129 c 0,104,105
 390 -129 390 -129 364 -124 c 0,106,107
 322 -112 322 -112 319 -86 c 0,108,109
 319 -84 319 -84 319 -82 c 2,110,-1
 328 -28 l 1,111,112
 278 -18 278 -18 143 12 c 0,113,114
 128 17 128 17 124 31 c 0,115,116
 108 110 108 110 92 209 c 0,117,118
 77 309 77 309 77 330 c 0,119,120
 78 340 78 340 84 348 c 0,121,122
 95 359 95 359 117 365 c 0,123,124
 137 371 137 371 152 371 c 0,125,126
 184 370 184 370 196 347 c 0,127,128
 197 344 197 344 198 341 c 0,129,130
 204 315 204 315 213 290 c 0,131,132
 222 263 222 263 243 221 c 0,133,134
 263 181 263 181 297 148 c 0,135,136
 322 125 322 125 351 109 c 1,137,-1
 425 555 l 1,138,139
 388 577 388 577 365 591 c 0,140,141
 336 610 336 610 293 640 c 0,142,143
 249 672 249 672 222 700 c 0,144,145
 194 729 194 729 168 764 c 0,146,147
 139 803 139 803 126 847 c 0,148,149
 113 892 113 892 113 940 c 0,150,151
 114 1046 114 1046 171 1131 c 0,152,153
 230 1216 230 1216 321 1260 c 0,154,155
 412 1303 412 1303 514 1303 c 0,156,157
 529 1303 529 1303 548 1302 c 1,158,-1
 559 1370 l 2,159,160
 566 1388 566 1388 584 1391 c 0,43,44
EndSplineSet
Validated: 1
EndChar

StartChar: percent
Encoding: 8 37 8
Width: 1334
GlyphClass: 2
Flags: W
LayerCount: 4
Fore
SplineSet
1216 1233 m 2,0,-1
 250 -15 l 2,1,2
 239 -29 239 -29 211 -39 c 0,3,4
 185 -48 185 -48 164 -49 c 0,5,6
 124 -48 124 -48 106 -13 c 0,7,8
 100 1 100 1 108 13 c 2,9,-1
 1072 1264 l 2,10,11
 1101 1297 1101 1297 1132 1297 c 0,12,13
 1155 1297 1155 1297 1167 1295 c 0,14,15
 1182 1293 1182 1293 1188 1290 c 0,16,17
 1198 1286 1198 1286 1207 1275 c 0,18,19
 1207 1274 l 0,20,21
 1211 1269 1211 1269 1214 1266 c 0,22,23
 1227 1250 1227 1250 1216 1233 c 2,0,-1
958 651 m 0,24,25
 1098 650 1098 650 1187 548 c 0,26,27
 1275 446 1275 446 1275 304 c 0,28,29
 1274 168 1274 168 1188 65 c 0,30,31
 1099 -39 1099 -39 956 -39 c 0,32,33
 820 -38 820 -38 725 62 c 0,34,35
 631 163 631 163 631 304 c 0,36,37
 632 450 632 450 723 550 c 0,38,39
 816 651 816 651 958 651 c 0,24,25
950 553 m 0,40,41
 904 552 904 552 873 521 c 0,42,43
 839 486 839 486 824 438 c 0,44,45
 809 386 809 386 809 328 c 0,46,47
 810 228 810 228 862 142 c 0,48,49
 912 62 912 62 970 61 c 0,50,51
 1003 62 1003 62 1027 79 c 0,52,53
 1052 98 1052 98 1065 129 c 0,54,55
 1080 165 1080 165 1086 203 c 0,56,57
 1093 244 1093 244 1093 288 c 0,58,59
 1093 354 1093 354 1075 415 c 0,60,61
 1057 475 1057 475 1021 517 c 0,62,63
 988 553 988 553 950 553 c 0,40,41
380 1315 m 0,64,65
 519 1314 519 1314 610 1212 c 0,66,67
 699 1110 699 1110 699 968 c 0,68,69
 699 881 699 881 662 804 c 0,70,71
 624 726 624 726 550 676 c 0,72,73
 474 626 474 626 380 625 c 0,74,75
 244 626 244 626 149 726 c 0,76,77
 55 827 55 827 55 968 c 0,78,79
 56 1114 56 1114 146 1214 c 0,80,81
 239 1315 239 1315 380 1315 c 0,64,65
372 1217 m 0,82,83
 326 1216 326 1216 295 1185 c 0,84,85
 261 1150 261 1150 248 1103 c 0,86,87
 234 1051 234 1051 233 992 c 0,88,89
 234 892 234 892 285 805 c 0,90,91
 334 725 334 725 392 725 c 0,92,93
 425 726 425 726 449 743 c 0,94,95
 474 762 474 762 488 793 c 0,96,97
 503 829 503 829 510 867 c 0,98,99
 517 907 517 907 517 952 c 0,100,101
 517 1018 517 1018 498 1079 c 0,102,103
 479 1139 479 1139 443 1180 c 0,104,105
 410 1217 410 1217 372 1217 c 0,82,83
EndSplineSet
Validated: 1
EndChar

StartChar: ampersand
Encoding: 9 38 9
Width: 1366
GlyphClass: 2
Flags: W
LayerCount: 4
Fore
SplineSet
616 1337 m 0,0,1
 758 1336 758 1336 843 1274 c 0,2,3
 931 1208 931 1208 931 1088 c 0,4,5
 931 1018 931 1018 906 957 c 0,6,7
 880 896 880 896 830 846 c 0,8,9
 782 797 782 797 736 762 c 0,10,11
 696 732 696 732 642 698 c 1,12,13
 748 525 748 525 901 349 c 1,14,15
 938 409 938 409 963 464 c 0,16,17
 991 526 991 526 993 542 c 0,18,19
 993 543 l 0,20,21
 991 544 991 544 990 544 c 0,22,23
 975 550 975 550 954 552 c 0,24,25
 932 553 932 553 927 553 c 0,26,27
 913 555 913 555 906 566 c 0,28,29
 898 582 898 582 899 603 c 0,30,31
 901 629 901 629 912 642 c 0,32,33
 920 649 920 649 930 649 c 2,34,-1
 1088 649 l 2,35,36
 1119 649 1119 649 1151 650 c 0,37,38
 1184 652 1184 652 1228 655 c 0,39,40
 1273 658 1273 658 1307 659 c 0,41,42
 1316 659 1316 659 1323 654 c 0,43,44
 1340 641 1340 641 1337 611 c 0,45,46
 1337 606 1337 606 1336 604 c 0,47,48
 1337 602 l 0,49,50
 1337.24324324 598.189189189 1337.24324324 598.189189189 1337.24324324 594.674214755 c 0,51,52
 1337.24324324 554.837837838 1337.24324324 554.837837838 1306 553 c 0,53,54
 1282 553 1282 553 1238 542 c 0,55,56
 1200 532 1200 532 1185 525 c 1,57,58
 1178 514 1178 514 1160 486 c 0,59,60
 1133 441 1133 441 1084 367 c 0,61,62
 1040 303 1040 303 994 247 c 1,63,64
 1028 212 1028 212 1042 197 c 0,65,66
 1060 178 1060 178 1088 153 c 0,67,68
 1115 129 1115 129 1131 122 c 0,69,70
 1145 116 1145 116 1156 115 c 0,71,72
 1174 116 1174 116 1199 141 c 0,73,74
 1228 171 1228 171 1237 191 c 0,75,76
 1244 206 1244 206 1260 207 c 0,77,78
 1285 206 1285 206 1307 189 c 0,79,80
 1330 168 1330 168 1331 146 c 0,81,82
 1331 141 1331 141 1329 136 c 0,83,84
 1323 122 1323 122 1317 111 c 0,85,86
 1309 97 1309 97 1290 72 c 0,87,88
 1269 45 1269 45 1245 26 c 0,89,90
 1219 6 1219 6 1178 -9 c 0,91,92
 1135 -24 1135 -24 1088 -25 c 0,93,94
 1049 -25 1049 -25 1009 -8 c 0,95,96
 970 9 970 9 940 31 c 0,97,98
 911 53 911 53 888 75 c 0,99,100
 867 94 867 94 855 108 c 1,101,102
 783 50 783 50 695 13 c 0,103,104
 593 -30 593 -30 494 -31 c 0,105,106
 308 -30 308 -30 196 61 c 0,107,108
 82 155 82 155 81 316 c 0,109,110
 81 391 81 391 110 454 c 0,111,112
 139 518 139 518 194 567 c 0,113,114
 248 616 248 616 300 650 c 0,115,116
 345 679 345 679 403 710 c 1,117,118
 375 759 375 759 359 791 c 0,119,120
 338 833 338 833 318 900 c 0,121,122
 298 970 298 970 297 1038 c 0,123,124
 298 1164 298 1164 389 1251 c 0,125,126
 482 1337 482 1337 616 1337 c 0,0,1
626 1215 m 0,127,128
 570 1214 570 1214 531 1179 c 0,129,130
 493 1143 493 1143 493 1086 c 0,131,132
 494 972 494 972 582 805 c 1,133,134
 634 837 634 837 664 862 c 0,135,136
 699 893 699 893 722 942 c 0,137,138
 745 992 745 992 745 1060 c 0,139,140
 744 1124 744 1124 710 1171 c 0,141,142
 677 1215 677 1215 626 1215 c 0,127,128
777 191 m 1,143,144
 723 250 723 250 652 344 c 0,145,146
 569 454 569 454 516 534 c 2,147,-1
 477 593 l 1,148,149
 449 574 449 574 434 563 c 0,150,151
 414 548 414 548 383 520 c 0,152,153
 353 493 353 493 339 471 c 0,154,155
 325 447 325 447 314 414 c 128,-1,156
 303 381 303 381 303 344 c 0,157,158
 304 224 304 224 376 165 c 0,159,160
 452 105 452 105 562 105 c 0,161,162
 620 105 620 105 685 133 c 0,163,164
 738 157 738 157 777 191 c 1,143,144
EndSplineSet
Validated: 1
Substitution2: "'smcp' Lowercase to Small Capitals lookup 12 subtable" ampersand.sc
EndChar

StartChar: quotesingle
Encoding: 10 39 10
Width: 320
GlyphClass: 2
Flags: W
LayerCount: 4
Fore
SplineSet
182 1423 m 0,0,1
 225 1422 225 1422 253 1388 c 0,2,3
 258 1381 258 1381 259 1372 c 0,4,5
 259 1326 259 1326 249 1193 c 0,6,7
 239 1059 239 1059 231 981 c 0,8,9
 230 976 230 976 228 973 c 0,10,11
 211 941 211 941 177 924 c 0,12,13
 171 922 171 922 166 921 c 0,14,15
 139 922 139 922 126 947 c 0,16,17
 125 949 125 949 124 951 c 0,18,19
 53 1194 53 1194 53 1258 c 0,20,21
 54 1313 54 1313 87 1365 c 0,22,23
 125 1422 125 1422 182 1423 c 0,0,1
EndSplineSet
Validated: 1
Substitution2: "'smcp' Lowercase to Small Capitals lookup 12 subtable" quotesingle.sc
EndChar

StartChar: parenleft
Encoding: 11 40 11
Width: 524
GlyphClass: 2
Flags: W
LayerCount: 4
Fore
SplineSet
530 -243 m 0,0,1
 539 -251 539 -251 531 -263 c 1,2,-1
 530 -282 l 1,3,-1
 526 -284 l 1,4,5
 510 -302 510 -302 508 -304 c 0,6,7
 496 -316 496 -316 488 -321 c 0,8,9
 473 -330 473 -330 459 -320 c 0,10,11
 281 -193 281 -193 160 57 c 0,12,13
 49 284 49 284 49 570 c 0,14,15
 49 858 49 858 159 1083 c 0,16,17
 280 1330 280 1330 459 1458 c 0,18,19
 474 1469 474 1469 488 1459 c 0,20,21
 500 1451 500 1451 508 1442 c 0,22,23
 521 1427 521 1427 526 1422 c 2,24,-1
 534 1417 l 1,25,26
 554 1399 554 1399 528 1376 c 0,27,28
 398 1261 398 1261 322 1038 c 0,29,30
 245 813 245 813 245 570 c 0,31,32
 245 329 245 329 322 100 c 0,33,34
 396 -122 396 -122 530 -243 c 0,0,1
EndSplineSet
Validated: 1
Substitution2: "'smcp' Lowercase to Small Capitals lookup 12 subtable" parenleft.sc
EndChar

StartChar: parenright
Encoding: 12 41 12
Width: 524
GlyphClass: 2
Flags: W
LayerCount: 4
Fore
SplineSet
-3 -240 m 0,0,1
 127 -124 127 -124 202 100 c 0,2,3
 279 329 279 329 279 570 c 0,4,5
 279 812 279 812 202 1038 c 0,6,7
 126 1262 126 1262 -3 1378 c 0,8,9
 -19 1393 -19 1393 -12 1410 c 0,10,11
 -10 1418 -10 1418 -6 1420 c 0,12,13
 -3 1421 -3 1421 -2 1422 c 0,14,15
 2 1425 2 1425 16 1442 c 0,16,17
 23 1450 23 1450 36 1459 c 0,18,19
 51 1468 51 1468 65 1458 c 0,20,21
 244 1329 244 1329 365 1083 c 0,22,23
 475 859 475 859 475 570 c 0,24,25
 475 284 475 284 364 57 c 0,26,27
 243 -193 243 -193 65 -320 c 0,28,29
 51 -330 51 -330 36 -321 c 0,30,31
 27 -315 27 -315 16 -304 c 0,32,33
 5 -292 5 -292 -2 -284 c 2,34,-1
 -10 -279 l 1,35,36
 -28 -262 -28 -262 -3 -240 c 0,0,1
EndSplineSet
Validated: 1
Substitution2: "'smcp' Lowercase to Small Capitals lookup 12 subtable" parenright.sc
EndChar

StartChar: afii574151
Encoding: 13 -1 13
Width: 594
GlyphClass: 2
Flags: W
LayerCount: 4
Fore
SplineSet
132 1301 m 2,0,-1
 273 1445 l 1,1,-1
 290 1455 l 1,2,3
 313 1463 313 1463 316 1433 c 0,4,5
 316 1431 316 1431 316 1430 c 0,6,7
 332 1190 332 1190 359 953 c 0,8,9
 364 906 364 906 379 782 c 0,10,11
 395 657 395 657 404 569 c 0,12,13
 414 481 414 481 420 397 c 0,14,15
 424 358 424 358 424 317 c 0,16,17
 424 287 424 287 422 254 c 0,18,19
 416 174 416 174 392 112 c 0,20,21
 359 32 359 32 294 -23 c 1,22,-1
 278 -32 l 1,23,24
 256 -39 256 -39 253 -9 c 0,25,26
 253 -7 253 -7 253 -6 c 0,27,28
 229 366 229 366 201 630 c 0,29,30
 190 732 190 732 125 1281 c 0,31,32
 124 1293 124 1293 132 1301 c 2,0,-1
EndSplineSet
Validated: 1
Substitution2: "'fina' Terminal Forms in Arabic lookup 4 subtable" uniFE8E
Substitution2: "'isol' Isolated Forms in Arabic lookup 1 subtable" uniFE8D
EndChar

StartChar: plus
Encoding: 14 43 14
Width: 1084
GlyphClass: 2
Flags: W
LayerCount: 4
Fore
SplineSet
475 971 m 0,0,1
 538 994 538 994 570 995 c 0,2,3
 585 995 585 995 596 990 c 0,4,5
 609 983 609 983 615 975 c 2,6,-1
 617 972 l 2,7,8
 621 966 621 966 621 958 c 2,9,-1
 621 573 l 1,10,-1
 1004 573 l 2,11,12
 1023 572 1023 572 1036 558 c 0,13,14
 1047 544 1047 544 1047 524 c 0,15,16
 1047 495 1047 495 1036 466 c 0,17,18
 1024 435 1024 435 1008 418 c 0,19,20
 1000 411 1000 411 990 411 c 2,21,-1
 621 411 l 1,22,-1
 621 32 l 2,23,24
 620 20 620 20 611 12 c 0,25,26
 574 -15 574 -15 510 -15 c 0,27,28
 491 -14 491 -14 477 -4 c 0,29,30
 460 10 460 10 459 28 c 2,31,-1
 459 411 l 1,32,-1
 74 411 l 2,33,34
 43 411 43 411 38 448 c 0,35,36
 37 452 37 452 37 456 c 0,37,38
 37 473 37 473 46 509 c 0,39,40
 57 552 57 552 77 568 c 0,41,42
 84 573 84 573 92 573 c 2,43,-1
 459 573 l 1,44,-1
 459 948 l 2,45,46
 460 964 460 964 475 971 c 0,0,1
EndSplineSet
Validated: 1
EndChar

StartChar: comma
Encoding: 15 44 15
Width: 402
GlyphClass: 2
Flags: W
LayerCount: 4
Fore
SplineSet
212 271 m 0,0,1
 247 270 247 270 277 254 c 0,2,3
 283 250 283 250 286 245 c 0,4,5
 325 177 325 177 325 92 c 0,6,7
 324 0 324 0 242 -127 c 0,8,9
 159 -254 159 -254 76 -300 c 0,10,11
 70 -303 70 -303 64 -303 c 0,12,13
 40 -302 40 -302 23 -275 c 0,14,15
 10 -252 10 -252 9 -236 c 0,16,17
 10 -224 10 -224 19 -216 c 0,18,19
 41 -199 41 -199 55 -187 c 0,20,21
 70 -174 70 -174 92 -147 c 0,22,23
 113 -121 113 -121 124 -89 c 0,24,25
 135 -55 135 -55 135 -14 c 0,26,27
 134 11 134 11 107 48 c 0,28,29
 70 100 70 100 69 148 c 0,30,31
 70 194 70 194 110 233 c 0,32,33
 152 271 152 271 212 271 c 0,0,1
EndSplineSet
Validated: 1
Substitution2: "'smcp' Lowercase to Small Capitals lookup 12 subtable" comma.sc
Substitution2: "'c2sc' Capitals to Small Capitals in Latin lookup 11 subtable" comma.sc
EndChar

StartChar: hyphen
Encoding: 16 45 16
Width: 754
GlyphClass: 2
Flags: W
LayerCount: 4
Fore
SplineSet
141 547 m 0,0,1
 557 569 557 569 624 571 c 0,2,3
 653 571 653 571 661 540 c 0,4,5
 663 533 663 533 663 528 c 0,6,7
 663 469 663 469 635 409 c 0,8,9
 628 397 628 397 614 395 c 0,10,11
 571 392 571 392 131 373 c 0,12,13
 111 374 111 374 100 388 c 0,14,15
 92 401 92 401 91 420 c 0,16,17
 91 472 91 472 119 533 c 0,18,19
 127 545 127 545 141 547 c 0,0,1
EndSplineSet
Validated: 1
EndChar

StartChar: period
Encoding: 17 46 17
Width: 414
GlyphClass: 2
Flags: W
LayerCount: 4
Fore
SplineSet
71 90 m 0,0,1
 72 146 72 146 112 185 c 0,2,3
 153 223 153 223 208 223 c 0,4,5
 264 222 264 222 302 184 c 0,6,7
 340 144 340 144 341 90 c 0,8,9
 340 35 340 35 303 -6 c 0,10,11
 263 -47 263 -47 208 -47 c 0,12,13
 152 -46 152 -46 112 -6 c 0,14,15
 71 35 71 35 71 90 c 0,0,1
EndSplineSet
Validated: 1
Substitution2: "'smcp' Lowercase to Small Capitals lookup 12 subtable" period.sc
Substitution2: "'c2sc' Capitals to Small Capitals in Latin lookup 11 subtable" period.sc
EndChar

StartChar: slash
Encoding: 18 47 18
Width: 826
GlyphClass: 2
Flags: W
LayerCount: 4
Fore
SplineSet
738 1547 m 0,0,1
 772 1547 772 1547 786 1517 c 0,2,3
 787 1514 787 1514 788 1512 c 0,4,5
 790 1503 790 1503 787 1495 c 2,6,-1
 197 -33 l 2,7,8
 187 -55 187 -55 162 -75 c 0,9,10
 134 -95 134 -95 96 -95 c 0,11,12
 78 -95 78 -95 65 -90 c 0,13,14
 51 -84 51 -84 44 -78 c 0,15,16
 41 -75 41 -75 40 -71 c 2,17,-1
 38 -67 l 2,18,19
 34 -57 34 -57 37 -47 c 2,20,-1
 633 1498 l 2,21,22
 639 1515 639 1515 652 1521 c 0,23,24
 654 1522 654 1522 654 1523 c 0,25,26
 667 1532 667 1532 689 1539 c 0,27,28
 712 1547 712 1547 738 1547 c 0,0,1
EndSplineSet
Validated: 1
Substitution2: "'smcp' Lowercase to Small Capitals lookup 12 subtable" slash.sc
EndChar

StartChar: zero
Encoding: 19 48 19
Width: 1090
GlyphClass: 2
Flags: W
LayerCount: 4
Fore
SplineSet
544 1307 m 0,0,1
 689 1306 689 1306 797 1212 c 0,2,3
 903 1118 903 1118 954 968 c 0,4,5
 1005 819 1005 819 1005 638 c 0,6,7
 1005 457 1005 457 953 309 c 0,8,9
 900 158 900 158 795 64 c 0,10,11
 687 -31 687 -31 544 -31 c 0,12,13
 402 -30 402 -30 295 64 c 0,14,15
 190 158 190 158 136 309 c 0,16,17
 83 459 83 459 83 638 c 0,18,19
 83 819 83 819 135 967 c 0,20,21
 188 1118 188 1118 293 1212 c 0,22,23
 401 1307 401 1307 544 1307 c 0,0,1
556 1183 m 0,24,25
 486 1182 486 1182 431 1115 c 0,26,27
 372 1041 372 1041 341 920 c 0,28,29
 309 794 309 794 309 640 c 0,30,31
 309 487 309 487 340 359 c 0,32,33
 371 233 371 233 425 161 c 0,34,35
 477 94 477 94 536 93 c 0,36,37
 610 94 610 94 664 164 c 0,38,39
 723 241 723 241 751 365 c 0,40,41
 779 492 779 492 779 650 c 0,42,43
 779 803 779 803 749 927 c 0,44,45
 719 1049 719 1049 665 1119 c 0,46,47
 615 1182 615 1182 556 1183 c 0,24,25
EndSplineSet
Validated: 1
Substitution2: "'ordn' Ordinals lookup 17 subtable" zero.ordn
Substitution2: "'onum' Oldstyle Figures lookup 16 subtable" zero.onum
Substitution2: "'zero' Slashed Zero lookup 15 subtable" zero.slash
Substitution2: "'pnum' Proportional Numbers lookup 14 subtable" zero.prop
EndChar

StartChar: one
Encoding: 20 49 20
Width: 1090
GlyphClass: 2
Flags: W
LayerCount: 4
Fore
SplineSet
281 1142 m 0,0,1
 357 1176 357 1176 443 1218 c 0,2,3
 532 1260 532 1260 581 1283 c 0,4,5
 592 1288 592 1288 608 1297 c 0,6,7
 631 1309 631 1309 644 1309 c 2,8,-1
 648 1309 l 2,9,10
 683 1308 683 1308 693 1257 c 0,11,12
 694 1252 694 1252 692 1247 c 0,13,14
 677 1177 677 1177 677 1058 c 2,15,-1
 677 232 l 2,16,17
 677 129 677 129 685 95 c 1,18,19
 696 90 696 90 718 86 c 0,20,21
 763 78 763 78 790 77 c 0,22,23
 802 76 802 76 810 67 c 0,24,25
 821 52 821 52 821 24 c 0,26,27
 821 -7 821 -7 809 -22 c 0,28,29
 800 -31 800 -31 789 -31 c 0,30,31
 587 -21 587 -21 568 -21 c 0,32,33
 555 -21 555 -21 355 -31 c 0,34,35
 343 -31 343 -31 335 -22 c 0,36,37
 322 -6 322 -6 323 24 c 0,38,39
 324 53 324 53 334 67 c 0,40,41
 342 76 342 76 354 77 c 0,42,43
 382 77 382 77 426 86 c 0,44,45
 449 90 449 90 459 95 c 1,46,47
 469 133 469 133 469 232 c 2,48,-1
 469 1040 l 2,49,50
 469 1074 469 1074 462 1086 c 0,51,52
 457 1090 457 1090 452 1091 c 0,53,54
 422 1090 422 1090 321 1053 c 0,55,56
 308 1049 308 1049 296 1056 c 0,57,58
 277 1072 277 1072 270 1091 c 0,59,60
 267 1101 267 1101 267 1110 c 0,61,62
 267 1127 267 1127 277 1140 c 0,63,64
 280 1141 280 1141 281 1142 c 0,0,1
EndSplineSet
Validated: 1
Substitution2: "'ordn' Ordinals lookup 17 subtable" one.ordn
Substitution2: "'onum' Oldstyle Figures lookup 16 subtable" one.onum
Substitution2: "'pnum' Proportional Numbers lookup 14 subtable" one.prop
EndChar

StartChar: two
Encoding: 21 50 21
Width: 1090
GlyphClass: 2
Flags: W
LayerCount: 4
Fore
SplineSet
979 290 m 0,0,1
 935 183 935 183 872 -8 c 0,2,3
 865 -24 865 -24 848 -25 c 2,4,-1
 156 -25 l 2,5,6
 150 -25 150 -25 145 -22 c 0,7,8
 133 -15 133 -15 123 -2 c 0,9,10
 111 14 111 14 111 28 c 0,11,12
 112 38 112 38 117 45 c 0,13,14
 433 395 433 395 591 626 c 0,15,16
 646 707 646 707 664 770 c 0,17,18
 682 834 682 834 683 912 c 0,19,20
 682 1007 682 1007 627 1068 c 0,21,22
 572 1128 572 1128 488 1129 c 0,23,24
 436 1129 436 1129 390 1110 c 0,25,26
 342 1091 342 1091 309 1063 c 0,27,28
 274 1033 274 1033 254 1010 c 0,29,30
 234 987 234 987 223 969 c 0,31,32
 215 958 215 958 202 957 c 0,33,34
 181 958 181 958 161 976 c 0,35,36
 140 997 140 997 139 1014 c 0,37,38
 139 1017 139 1017 140 1020 c 0,39,40
 148 1048 148 1048 179 1092 c 0,41,42
 210 1135 210 1135 255 1184 c 0,43,44
 304 1235 304 1235 378 1272 c 0,45,46
 454 1309 454 1309 532 1309 c 0,47,48
 684 1308 684 1308 793 1200 c 0,49,50
 902 1090 902 1090 903 950 c 0,51,52
 902 779 902 779 783 632 c 0,53,54
 638 455 638 455 384 171 c 1,55,-1
 724 171 l 2,56,57
 772 172 772 172 803 201 c 0,58,59
 838 235 838 235 869 310 c 0,60,61
 881 337 881 337 916 337 c 0,62,63
 949 336 949 336 971 320 c 0,64,65
 985 308 985 308 979 290 c 0,0,1
EndSplineSet
Validated: 1
Substitution2: "'ordn' Ordinals lookup 17 subtable" two.ordn
Substitution2: "'onum' Oldstyle Figures lookup 16 subtable" two.onum
Substitution2: "'pnum' Proportional Numbers lookup 14 subtable" two.prop
EndChar

StartChar: three
Encoding: 22 51 22
Width: 1090
GlyphClass: 2
Flags: W
LayerCount: 4
Fore
SplineSet
564 1309 m 0,0,1
 609 1309 609 1309 658 1290 c 0,2,3
 706 1271 706 1271 748 1238 c 0,4,5
 792 1203 792 1203 822 1148 c 0,6,7
 851 1091 851 1091 851 1028 c 0,8,9
 851 977 851 977 831 928 c 0,10,11
 810 879 810 879 777 842 c 0,12,13
 745 806 745 806 715 781 c 0,14,15
 707 775 707 775 700 769 c 1,16,17
 722 761 722 761 743 750 c 0,18,19
 793 724 793 724 839 684 c 0,20,21
 886 641 886 641 915 576 c 0,22,23
 945 510 945 510 945 436 c 0,24,25
 945 331 945 331 898 240 c 0,26,27
 851 149 851 149 775 90 c 0,28,29
 699 31 699 31 605 -2 c 0,30,31
 510 -35 510 -35 412 -35 c 0,32,33
 294 -35 294 -35 197 14 c 0,34,35
 195 15 195 15 194 15 c 0,36,37
 177 27 177 27 161 55 c 0,38,39
 144 85 144 85 143 112 c 0,40,41
 144 164 144 164 175 198 c 0,42,43
 208 233 208 233 252 233 c 0,44,45
 285 232 285 232 310 216 c 0,46,47
 333 200 333 200 356 170 c 0,48,49
 375 145 375 145 382 138 c 0,50,51
 426 96 426 96 512 95 c 0,52,53
 549 95 549 95 584 110 c 0,54,55
 620 126 620 126 652 156 c 0,56,57
 683 187 683 187 703 244 c 0,58,59
 723 303 723 303 723 380 c 0,60,61
 722 489 722 489 653 563 c 0,62,63
 583 636 583 636 492 637 c 0,64,65
 475 637 475 637 455 633 c 0,66,67
 433 628 433 628 408.5 621 c 128,-1,68
 384 614 384 614 380 612 c 0,69,70
 364 608 364 608 352 620 c 0,71,72
 335 643 335 643 335 676 c 0,73,74
 336 698 336 698 343 710 c 0,75,76
 349 718 349 718 359 720 c 0,77,78
 421 734 421 734 471 756 c 0,79,80
 522 779 522 779 564 812 c 0,81,82
 605 845 605 845 628 890 c 0,83,84
 651 936 651 936 651 992 c 0,85,86
 650 1062 650 1062 603 1107 c 0,87,88
 554 1153 554 1153 480 1153 c 0,89,90
 442 1153 442 1153 405 1136 c 0,91,92
 366 1118 366 1118 344 1099 c 0,93,94
 321 1078 321 1078 299 1055 c 0,95,96
 294 1049 294 1049 287 1041 c 0,97,98
 275 1028 275 1028 267 1024 c 0,99,100
 261 1022 261 1022 256 1021 c 0,101,102
 231 1022 231 1022 217 1050 c 0,103,104
 207 1071 207 1071 207 1090 c 0,105,106
 207 1098 207 1098 211 1104 c 0,107,108
 270 1189 270 1189 358 1248 c 0,109,110
 450 1309 450 1309 564 1309 c 0,0,1
EndSplineSet
Validated: 1
Substitution2: "'ordn' Ordinals lookup 17 subtable" three.ordn
Substitution2: "'onum' Oldstyle Figures lookup 16 subtable" three.onum
Substitution2: "'pnum' Proportional Numbers lookup 14 subtable" three.prop
EndChar

StartChar: four
Encoding: 23 52 23
Width: 1090
GlyphClass: 2
Flags: W
LayerCount: 4
Fore
SplineSet
659 974 m 1,0,-1
 287 487 l 1,1,-1
 659 487 l 1,2,-1
 659 974 l 1,0,-1
812 1313 m 0,3,4
 826 1313 826 1313 837 1307 c 128,-1,5
 848 1301 848 1301 854 1292 c 0,6,7
 866 1274 866 1274 867 1252 c 2,8,-1
 867 487 l 1,9,-1
 960 487 l 2,10,11
 987 487 987 487 1000 450 c 0,12,13
 1000 449 1000 449 1001 448 c 0,14,-1
 1002 445 l 0,15,16
 1013 414 1013 414 1013 380 c 0,17,18
 1012 352 1012 352 1001 334 c 0,19,20
 993 324 993 324 980 323 c 2,21,-1
 867 323 l 1,22,-1
 867 -2 l 2,23,24
 866 -11 866 -11 862 -18 c 0,25,26
 846.761904762 -37.0476190476 846.761904762 -37.0476190476 796.149659864 -37.0476190476 c 0,27,28
 793.619047619 -37.0476190476 793.619047619 -37.0476190476 791 -37 c 0,29,30
 787 -37 787 -37 777 -37 c 0,31,32
 763 -37 763 -37 756 -37 c 0,33,34
 697 -37 697 -37 680 -29 c 0,35,36
 660 -18 660 -18 659 4 c 2,37,-1
 659 323 l 1,38,-1
 120 323 l 2,39,40
 113 323 113 323 108 326 c 0,41,42
 76 345 76 345 75 386 c 0,43,44
 76 395 76 395 80 401 c 2,45,-1
 732 1253 l 2,46,47
 746 1271 746 1271 766 1289 c 0,48,49
 792 1312 792 1312 812 1313 c 0,3,4
EndSplineSet
Validated: 1
Substitution2: "'ordn' Ordinals lookup 17 subtable" four.ordn
Substitution2: "'onum' Oldstyle Figures lookup 16 subtable" four.onum
Substitution2: "'pnum' Proportional Numbers lookup 14 subtable" four.prop
EndChar

StartChar: five
Encoding: 24 53 24
Width: 1090
GlyphClass: 2
Flags: W
LayerCount: 4
Fore
SplineSet
544 815 m 0,0,1
 635 815 635 815 711 781 c 0,2,3
 788 747 788 747 839 694 c 0,4,5
 889 640 889 640 917 573 c 0,6,7
 945 505 945 505 945 436 c 0,8,9
 945 331 945 331 898 240 c 0,10,11
 851 149 851 149 775 90 c 0,12,13
 699 31 699 31 605 -2 c 0,14,15
 510 -35 510 -35 412 -35 c 0,16,17
 294 -35 294 -35 197 14 c 0,18,19
 195 15 195 15 194 15 c 0,20,21
 177 27 177 27 161 55 c 0,22,23
 144 85 144 85 143 112 c 0,24,25
 144 164 144 164 175 198 c 0,26,27
 208 233 208 233 252 233 c 0,28,29
 285 232 285 232 310 216 c 0,30,31
 333 200 333 200 356 170 c 0,32,33
 375 145 375 145 382 138 c 0,34,35
 426 96 426 96 512 95 c 0,36,37
 550 95 550 95 584 110 c 0,38,39
 620 125 620 125 652 155 c 0,40,41
 683 186 683 186 703 243 c 0,42,43
 723 302 723 302 723 380 c 0,44,45
 723 416 723 416 713 453 c 0,46,47
 703 490 703 490 681 525 c 0,48,49
 657 562 657 562 625 590 c 0,50,51
 592 618 592 618 542 635 c 0,52,53
 490 652 490 652 428 653 c 0,54,55
 395 653 395 653 343 644 c 0,56,57
 291 635 291 635 271 625 c 0,58,59
 265 623 265 623 260 623 c 0,60,61
 239 624 239 624 227 645 c 0,62,63
 219 660 219 660 219 676 c 0,64,65
 219 679 219 679 219 681 c 0,66,67
 327 1233 327 1233 335 1275 c 0,68,69
 342 1292 342 1292 360 1295 c 2,70,-1
 656 1295 l 2,71,72
 691 1295 691 1295 736 1299 c 0,73,74
 781 1303 781 1303 808 1309 c 2,75,-1
 836 1313 l 2,76,77
 846 1314 846 1314 854 1309 c 0,78,79
 858 1307 858 1307 862 1304 c 0,80,81
 867 1301 867 1301 869 1299 c 0,82,83
 876 1295 876 1295 881 1289 c 0,84,85
 889 1278 889 1278 889 1266 c 0,86,87
 888 1245 888 1245 869 1192 c 0,88,89
 849 1138 849 1138 823 1108 c 0,90,91
 816 1101 816 1101 807 1099 c 0,92,93
 693 1087 693 1087 572 1087 c 2,94,-1
 425 1087 l 1,95,96
 418 1049 418 1049 406 992 c 0,97,98
 391 917 391 917 380 857 c 0,99,100
 373 821 373 821 366 789 c 1,101,102
 396 797 396 797 432 804 c 0,103,104
 499 815 499 815 544 815 c 0,0,1
EndSplineSet
Validated: 1
Substitution2: "'ordn' Ordinals lookup 17 subtable" five.ordn
Substitution2: "'onum' Oldstyle Figures lookup 16 subtable" five.onum
Substitution2: "'pnum' Proportional Numbers lookup 14 subtable" five.prop
EndChar

StartChar: six
Encoding: 25 54 25
Width: 1090
GlyphClass: 2
Flags: W
LayerCount: 4
Fore
SplineSet
578 815 m 0,0,1
 663 815 663 815 732 787 c 0,2,3
 802 758 802 758 846 714 c 0,4,5
 889 670 889 670 917 615 c 0,6,7
 945 559 945 559 957 507 c 0,8,9
 968 454 968 454 969 406 c 0,10,11
 968 226 968 226 844 95 c 0,12,13
 717 -36 717 -36 538 -37 c 0,14,15
 444 -37 444 -37 364 6 c 0,16,17
 283 49 283 49 231 118 c 0,18,19
 180 187 180 187 150 270 c 0,20,21
 121 355 121 355 121 440 c 0,22,23
 121 599 121 599 171 739 c 0,24,25
 222 880 222 880 320 987 c 0,26,27
 425 1102 425 1102 578 1192 c 0,28,29
 732 1282 732 1282 868 1318 c 0,30,31
 871 1319 871 1319 874 1319 c 0,32,33
 905 1318 905 1318 916 1279 c 0,34,35
 923 1254 923 1254 923 1236 c 0,36,37
 922 1218 922 1218 906 1212 c 0,38,39
 503 1081 503 1081 387 761 c 1,40,41
 417 778 417 778 449 789 c 0,42,43
 520 815 520 815 578 815 c 0,0,1
350 601 m 1,44,45
 343 548 343 548 343 476 c 0,46,47
 343 408 343 408 357 339 c 0,48,49
 372 269 372 269 398 208 c 0,50,51
 424 149 424 149 466 113 c 0,52,53
 507 79 507 79 554 79 c 0,54,55
 636 80 636 80 691 158 c 0,56,57
 749 242 749 242 749 368 c 0,58,59
 749 453 749 453 726 520 c 0,60,61
 703 584 703 584 651 626 c 0,62,63
 599 667 599 667 522 667 c 0,64,65
 415 667 415 667 350 601 c 1,44,45
EndSplineSet
Validated: 1
Substitution2: "'ordn' Ordinals lookup 17 subtable" six.ordn
Substitution2: "'onum' Oldstyle Figures lookup 16 subtable" six.onum
Substitution2: "'pnum' Proportional Numbers lookup 14 subtable" six.prop
EndChar

StartChar: seven
Encoding: 26 55 26
Width: 1090
GlyphClass: 2
Flags: W
LayerCount: 4
Fore
SplineSet
816 1291 m 2,0,1
 847 1291 847 1291 898 1294 c 0,2,3
 951 1297 951 1297 952 1297 c 0,4,5
 981 1297 981 1297 988 1264 c 0,6,7
 989 1258 989 1258 989 1254 c 0,8,9
 989 1240 989 1240 982 1221 c 0,10,11
 976 1203 976 1203 969 1188 c 0,12,13
 962 1173 962 1173 950 1148 c 0,14,15
 938 1123 938 1123 930 1109 c 2,16,-1
 403 -15 l 2,17,18
 401 -19 401 -19 398 -22 c 0,19,20
 384 -35 384 -35 360 -35 c 0,21,22
 330 -35 330 -35 295 -22 c 0,23,24
 252 -6 252 -6 248 19 c 0,25,26
 247 23 247 23 247 26 c 0,27,28
 247 34 247 34 251 40 c 0,29,30
 343 179 343 179 484 450 c 0,31,32
 626 723 626 723 721 927 c 2,33,-1
 801 1095 l 1,34,-1
 332 1095 l 2,35,36
 285 1094 285 1094 261 1068 c 0,37,38
 233 1036 233 1036 212 960 c 0,39,40
 204 929 204 929 164 929 c 0,41,42
 131 930 131 930 109 946 c 0,43,44
 96 957 96 957 100 973 c 0,45,46
 160 1163 160 1163 184 1271 c 0,47,48
 191 1289 191 1289 208 1291 c 2,49,-1
 816 1291 l 2,0,1
EndSplineSet
Validated: 1
Substitution2: "'ordn' Ordinals lookup 17 subtable" seven.ordn
Substitution2: "'onum' Oldstyle Figures lookup 16 subtable" seven.onum
Substitution2: "'pnum' Proportional Numbers lookup 14 subtable" seven.prop
EndChar

StartChar: eight
Encoding: 27 56 27
Width: 1090
GlyphClass: 2
Flags: W
LayerCount: 4
Fore
SplineSet
556 1311 m 0,0,1
 704 1310 704 1310 806 1226 c 0,2,3
 909 1138 909 1138 909 992 c 0,4,5
 909 932 909 932 887 879 c 0,6,7
 864 826 864 826 822 784 c 0,8,9
 782 744 782 744 751 720 c 0,10,11
 728 702 728 702 698 683 c 1,12,13
 791 625 791 625 863 541 c 0,14,15
 947 441 947 441 947 334 c 0,16,17
 946 176 946 176 824 66 c 0,18,19
 702 -42 702 -42 540 -43 c 0,20,21
 365 -42 365 -42 255 54 c 0,22,23
 143 153 143 153 143 308 c 0,24,25
 143 337 143 337 150 365 c 0,26,27
 156 392 156 392 163 413 c 0,28,29
 172 437 172 437 190 462 c 0,30,31
 206 485 206 485 216 499 c 0,32,33
 229 517 229 517 253 539 c 0,34,35
 275 559 275 559 286 568 c 0,36,37
 299 579 299 579 324 597 c 0,38,39
 349 614 349 614 355 619 c 0,40,41
 364 625 364 625 389 641 c 2,42,-1
 391 642 l 1,43,44
 323 690 323 690 267 762 c 0,45,46
 199 852 199 852 199 960 c 0,47,48
 200 1099 200 1099 306 1205 c 0,49,50
 414 1311 414 1311 556 1311 c 0,0,1
544 1191 m 0,51,52
 484 1190 484 1190 442 1136 c 0,53,54
 397 1077 397 1077 397 996 c 0,55,56
 397 949 397 949 414 910 c 0,57,58
 431 871 431 871 462 842 c 0,59,60
 496 810 496 810 520 794 c 0,61,62
 546 777 546 777 583 755 c 0,63,64
 588 752 588 752 592 750 c 0,65,66
 715 834 715 834 715 972 c 0,67,68
 714 1057 714 1057 665 1126 c 0,69,70
 616 1191 616 1191 544 1191 c 0,51,52
544 79 m 0,71,72
 633 80 633 80 684 131 c 0,73,74
 735 185 735 185 735 276 c 0,75,76
 734 317 734 317 713 360 c 0,77,78
 689 406 689 406 661 437 c 0,79,80
 631 469 631 469 590 501 c 0,81,82
 548 534 548 534 528 546 c 0,83,84
 509 558 509 558 493 568 c 1,85,86
 419 519 419 519 385 462 c 0,87,88
 351 402 351 402 351 314 c 0,89,90
 352 207 352 207 411 143 c 0,91,92
 471 79 471 79 544 79 c 0,71,72
EndSplineSet
Validated: 1
Substitution2: "'ordn' Ordinals lookup 17 subtable" eight.ordn
Substitution2: "'onum' Oldstyle Figures lookup 16 subtable" eight.onum
Substitution2: "'pnum' Proportional Numbers lookup 14 subtable" eight.prop
EndChar

StartChar: nine
Encoding: 28 57 28
Width: 1090
GlyphClass: 2
Flags: W
LayerCount: 4
Fore
SplineSet
184 70 m 0,0,1
 587 201 587 201 703 521 c 1,2,3
 673 504 673 504 641 493 c 0,4,5
 570 468 570 468 512 467 c 0,6,7
 427 467 427 467 358 495 c 0,8,9
 288 524 288 524 245 568 c 0,10,11
 203 612 203 612 174 668 c 0,12,13
 146 724 146 724 134.5 775 c 128,-1,14
 123 826 123 826 123 876 c 0,15,16
 124 1056 124 1056 247 1187 c 0,17,18
 373 1318 373 1318 552 1319 c 0,19,20
 646 1319 646 1319 726 1276 c 0,21,22
 807 1233 807 1233 859 1164 c 0,23,24
 910 1095 910 1095 940 1012 c 0,25,26
 969 927 969 927 969 842 c 0,27,28
 969 683 969 683 919 543 c 0,29,30
 868 402 868 402 770 295 c 0,31,32
 665 180 665 180 512 90 c 0,33,34
 358 0 358 0 222 -36 c 0,35,36
 219 -37 219 -37 216 -37 c 0,37,38
 185 -36 185 -36 174 3 c 0,39,40
 167 28 167 28 167 46 c 0,41,42
 168 64 168 64 184 70 c 0,0,1
740 681 m 1,43,44
 747 734 747 734 747 806 c 0,45,46
 747 874 747 874 733 943 c 0,47,48
 718 1013 718 1013 692 1074 c 0,49,50
 666 1133 666 1133 624 1169 c 0,51,52
 583 1203 583 1203 536 1203 c 0,53,54
 455 1202 455 1202 401 1124 c 0,55,56
 344 1040 344 1040 343 914 c 0,57,58
 343 828 343 828 366 762 c 0,59,60
 388 698 388 698 440 656 c 0,61,62
 492 615 492 615 568 615 c 0,63,64
 675 615 675 615 740 681 c 1,43,44
EndSplineSet
Validated: 1
Substitution2: "'onum' Oldstyle Figures lookup 16 subtable" nine.onum
Substitution2: "'pnum' Proportional Numbers lookup 14 subtable" nine.prop
EndChar

StartChar: colon
Encoding: 29 58 29
Width: 452
GlyphClass: 2
Flags: W
LayerCount: 4
Fore
SplineSet
91 754 m 0,0,1
 92 810 92 810 132 849 c 0,2,3
 173 887 173 887 228 887 c 0,4,5
 284 886 284 886 322 848 c 0,6,7
 360 808 360 808 361 754 c 0,8,9
 360 699 360 699 323 658 c 0,10,11
 283 617 283 617 228 617 c 0,12,13
 172 618 172 618 132 658 c 0,14,15
 91 699 91 699 91 754 c 0,0,1
91 90 m 0,16,17
 92 146 92 146 132 185 c 0,18,19
 173 223 173 223 228 223 c 0,20,21
 284 222 284 222 322 184 c 0,22,23
 360 144 360 144 361 90 c 0,24,25
 360 35 360 35 323 -6 c 0,26,27
 283 -47 283 -47 228 -47 c 0,28,29
 172 -46 172 -46 132 -6 c 0,30,31
 91 35 91 35 91 90 c 0,16,17
EndSplineSet
Validated: 1
Substitution2: "'smcp' Lowercase to Small Capitals lookup 12 subtable" colon.sc
EndChar

StartChar: semicolon
Encoding: 30 59 30
Width: 464
GlyphClass: 2
Flags: W
LayerCount: 4
Fore
SplineSet
97 754 m 0,0,1
 98 810 98 810 138 849 c 0,2,3
 179 887 179 887 234 887 c 0,4,5
 290 886 290 886 328 848 c 0,6,7
 366 808 366 808 367 754 c 0,8,9
 366 699 366 699 329 658 c 0,10,11
 289 617 289 617 234 617 c 0,12,13
 178 618 178 618 138 658 c 0,14,15
 97 699 97 699 97 754 c 0,0,1
254 271 m 0,16,17
 289 270 289 270 319 254 c 0,18,19
 325 250 325 250 328 245 c 0,20,21
 367 177 367 177 367 92 c 0,22,23
 366 0 366 0 284 -127 c 0,24,25
 201 -254 201 -254 118 -300 c 0,26,27
 112 -303 112 -303 106 -303 c 0,28,29
 82 -302 82 -302 65 -275 c 0,30,31
 52 -252 52 -252 51 -236 c 0,32,33
 52 -224 52 -224 61 -216 c 0,34,35
 83 -199 83 -199 97 -187 c 0,36,37
 112 -174 112 -174 134 -147 c 0,38,39
 155 -121 155 -121 166 -89 c 0,40,41
 177 -54 177 -54 177 -14 c 0,42,43
 176 11 176 11 149 48 c 0,44,45
 111 100 111 100 111 148 c 0,46,47
 112 194 112 194 152 233 c 0,48,49
 194 271 194 271 254 271 c 0,16,17
EndSplineSet
Validated: 1
Substitution2: "'smcp' Lowercase to Small Capitals lookup 12 subtable" semicolon.sc
EndChar

StartChar: less
Encoding: 31 60 31
Width: 984
GlyphClass: 2
Flags: W
LayerCount: 4
Fore
SplineSet
913 70 m 0,0,1
 913 51 913 51 900 6 c 0,2,3
 899 3 899 3 898 -4 c 0,4,5
 889 -47 889 -47 867 -53 c 0,6,7
 861 -54 861 -54 856 -55 c 0,8,9
 846 -55 846 -55 835 -48 c 2,10,-1
 85 332 l 2,11,12
 36 359 36 359 35 434 c 0,13,14
 36 479 36 479 85 504 c 2,15,-1
 823 878 l 2,16,17
 838 884 838 884 844 885 c 0,18,19
 879 885 879 885 893 824 c 0,20,21
 895 813 895 813 899 791 c 0,22,23
 901 777 901 777 903 771 c 0,24,25
 905 759 905 759 901 749 c 0,26,27
 897 739 897 739 892 732 c 2,28,-1
 890 730 l 2,29,30
 887 727 887 727 883 726 c 2,31,-1
 275 418 l 1,32,-1
 893 104 l 2,33,34
 911 93 911 93 913 70 c 0,0,1
EndSplineSet
Validated: 1
Substitution2: "'smcp' Lowercase to Small Capitals lookup 12 subtable" less.sc
EndChar

StartChar: equal
Encoding: 32 61 32
Width: 1130
GlyphClass: 2
Flags: W
LayerCount: 4
Fore
SplineSet
957 503 m 2,0,-1
 145 503 l 2,1,2
 140 503 140 503 136 505 c 0,3,4
 109 517 109 517 112 556 c 0,5,6
 114 584 114 584 128 616 c 0,7,8
 146 653 146 653 168 661 c 0,9,10
 173 662 173 662 177 663 c 2,11,-1
 983 663 l 2,12,13
 987 663 987 663 991 662 c 0,14,15
 1020 651 1020 651 1019 612 c 0,16,17
 1018 585 1018 585 1005 553 c 0,18,19
 989 517 989 517 969 506 c 0,20,21
 963 503 963 503 957 503 c 2,0,-1
957 215 m 2,22,-1
 145 215 l 2,23,24
 140 215 140 215 136 217 c 0,25,26
 109 229 109 229 112 268 c 0,27,28
 114 296 114 296 128 328 c 0,29,30
 146 365 146 365 168 373 c 0,31,32
 173 374 173 374 177 375 c 2,33,-1
 983 375 l 2,34,35
 987 375 987 375 991 374 c 0,36,37
 1020 363 1020 363 1019 324 c 0,38,39
 1018 297 1018 297 1005 265 c 0,40,41
 989 229 989 229 969 218 c 0,42,43
 963 215 963 215 957 215 c 2,22,-1
EndSplineSet
Validated: 1
Substitution2: "'smcp' Lowercase to Small Capitals lookup 12 subtable" equal.sc
EndChar

StartChar: greater
Encoding: 33 62 33
Width: 986
GlyphClass: 2
Flags: W
LayerCount: 4
Fore
SplineSet
71 70 m 0,0,1
 71 80 71 80 75 88 c 0,2,3
 79 95 79 95 82 99 c 0,4,5
 85 102 85 102 89 103 c 2,6,-1
 91 104 l 1,7,-1
 709 418 l 1,8,-1
 104 725 l 2,9,10
 83 736 83 736 83 764 c 0,11,12
 83 794 83 794 97 833 c 0,13,14
 98 836 98 836 100 842 c 0,15,16
 110 879 110 879 131 884 c 0,17,18
 136 885 136 885 140 885 c 0,19,20
 150 885 150 885 161 878 c 2,21,-1
 901 504 l 2,22,23
 948 479 948 479 949 434 c 0,24,25
 948 357 948 357 901 332 c 2,26,-1
 151 -48 l 2,27,28
 136 -54 136 -54 130 -55 c 0,29,30
 101 -55 101 -55 90 -12 c 0,31,32
 89 -10 89 -10 88 -5 c 0,33,34
 86 3 86 3 85 5 c 0,35,36
 71 51 71 51 71 70 c 0,0,1
EndSplineSet
Validated: 1
Substitution2: "'smcp' Lowercase to Small Capitals lookup 12 subtable" greater.sc
EndChar

StartChar: question
Encoding: 34 63 34
Width: 712
GlyphClass: 2
Flags: W
LayerCount: 4
Fore
SplineSet
200 1071 m 0,0,1
 163 1072 163 1072 126 1106 c 0,2,3
 88 1142 88 1142 87 1196 c 0,4,5
 88 1253 88 1253 110 1285 c 0,6,7
 114 1290 114 1290 119 1292 c 0,8,9
 153 1309 153 1309 226 1309 c 0,10,11
 271 1309 271 1309 325 1292 c 0,12,13
 380 1275 380 1275 435 1242 c 0,14,15
 491 1208 491 1208 537 1164 c 0,16,17
 585 1117 585 1117 615 1052 c 0,18,19
 645 985 645 985 645 914 c 0,20,21
 644 803 644 803 595 728 c 0,22,23
 545 653 545 653 431 586 c 0,24,25
 390 561 390 561 339 522 c 0,26,27
 293 486 293 486 284 472 c 0,28,29
 280 464 280 464 278 450 c 0,30,31
 275 432 275 432 274 420 c 0,32,33
 274 406 274 406 274 379 c 0,34,35
 275 351 275 351 275 344 c 0,36,37
 275 338 275 338 272 333 c 0,38,39
 253 297 253 297 220 293 c 0,40,41
 213 293 213 293 208 295 c 0,42,43
 181 307 181 307 170 329 c 0,44,45
 169 332 169 332 168 334 c 0,46,47
 151 405 151 405 151 522 c 0,48,49
 151 566 151 566 163 604 c 0,50,51
 175 641 175 641 188 665 c 0,52,53
 203 691 203 691 230 716 c 0,54,55
 256 740 256 740 273 752 c 0,56,57
 290 764 290 764 319 782 c 0,58,59
 328 787 328 787 331 790 c 2,60,-1
 333 791 l 2,61,62
 374 817 374 817 390 828 c 0,63,64
 407 839 407 839 433 860 c 0,65,66
 458 880 458 880 468 894 c 0,67,68
 478 909 478 909 487 930 c 0,69,70
 495 951 495 951 495 974 c 0,71,72
 494 1039 494 1039 458 1076 c 0,73,74
 421 1113 421 1113 372 1113 c 0,75,76
 317 1113 317 1113 276 1094 c 0,77,78
 224 1071 224 1071 200 1071 c 0,0,1
101 90 m 0,79,80
 102 146 102 146 142 185 c 0,81,82
 183 223 183 223 238 223 c 0,83,84
 294 222 294 222 332 184 c 0,85,86
 370 144 370 144 371 90 c 0,87,88
 370 35 370 35 333 -6 c 0,89,90
 293 -47 293 -47 238 -47 c 0,91,92
 182 -46 182 -46 142 -6 c 0,93,94
 101 35 101 35 101 90 c 0,79,80
EndSplineSet
Validated: 1
Substitution2: "'smcp' Lowercase to Small Capitals lookup 12 subtable" question.sc
EndChar

StartChar: at
Encoding: 35 64 35
Width: 1496
GlyphClass: 2
Flags: W
LayerCount: 4
Fore
SplineSet
876 753 m 0,0,1
 827 752 827 752 773 715 c 0,2,3
 715 674 715 674 668 612 c 0,4,5
 621 548 621 548 591 464 c 0,6,7
 561 381 561 381 561 302 c 0,8,9
 562 132 562 132 638 131 c 0,10,11
 675 133 675 133 726 193 c 0,12,13
 784 262 784 262 829 360 c 0,14,15
 875 460 875 460 893 553 c 2,16,-1
 931 742 l 1,17,18
 911 753 911 753 876 753 c 0,0,1
836 1181 m 0,19,20
 955 1181 955 1181 1055 1146 c 0,21,22
 1157 1110 1157 1110 1229 1048 c 0,23,24
 1301 986 1301 986 1351 905 c 0,25,26
 1401 823 1401 823 1425 730 c 0,27,28
 1449 637 1449 637 1449 540 c 0,29,30
 1449 384 1449 384 1394 252 c 0,31,32
 1337 119 1337 119 1237 41 c 0,33,34
 1135 -38 1135 -38 1012 -39 c 0,35,36
 925 -38 925 -38 873 10 c 0,37,38
 825 56 825 56 821 143 c 1,39,40
 796 110 796 110 768 77 c 0,41,42
 727 30 727 30 678 -2 c 0,43,44
 625 -35 625 -35 578 -35 c 0,45,46
 475 -34 475 -34 417 56 c 0,47,48
 363 142 363 142 363 260 c 0,49,50
 363 373 363 373 417 489 c 0,51,52
 471 604 471 604 553 692 c 0,53,54
 637 781 637 781 744 838 c 0,55,56
 854 895 854 895 960 895 c 0,57,58
 1040 895 1040 895 1115 867 c 0,59,60
 1133 860 1133 860 1131 842 c 0,61,62
 1131 840 1131 840 1131 839 c 2,63,-1
 1009 207 l 1,64,-1
 1008 206 l 2,65,66
 1003 184 1003 184 1003 162 c 0,67,68
 1004 128 1004 128 1020 113 c 0,69,70
 1041 97 1041 97 1074 97 c 0,71,72
 1113 98 1113 98 1154 129 c 0,73,74
 1199 165 1199 165 1235 222 c 0,75,76
 1272 281 1272 281 1295 363 c 0,77,78
 1319 446 1319 446 1319 534 c 0,79,80
 1319 614 1319 614 1301 689 c 0,81,82
 1282 763 1282 763 1243 829 c 0,83,84
 1203 895 1203 895 1149 944 c 0,85,86
 1093 993 1093 993 1014 1022 c 0,87,88
 932 1051 932 1051 836 1051 c 0,89,90
 721 1051 721 1051 620 1010 c 0,91,92
 518 968 518 968 445 899 c 0,93,94
 370 828 370 828 314 737 c 0,95,96
 258 645 258 645 231 543 c 0,97,98
 204 441 204 441 203 340 c 0,99,100
 204 179 204 179 275 54 c 0,101,102
 348 -71 348 -71 457 -134 c 0,103,104
 529 -176 529 -176 598 -187 c 0,105,106
 616 -194 616 -194 619 -212 c 0,107,108
 619 -239 619 -239 581 -257 c 0,109,110
 579 -258 579 -258 578 -258 c 0,111,112
 546 -273 546 -273 522 -273 c 0,113,114
 470 -273 470 -273 435 -259 c 0,115,116
 283 -202 283 -202 178 -37 c 0,117,118
 73 129 73 129 73 340 c 0,119,120
 73 462 73 462 105 581 c 0,121,122
 138 702 138 702 203 809 c 0,123,124
 269 917 269 917 358 1000 c 0,125,126
 449 1084 449 1084 572 1132 c 0,127,128
 697 1181 697 1181 836 1181 c 0,19,20
EndSplineSet
Validated: 1
Substitution2: "'smcp' Lowercase to Small Capitals lookup 12 subtable" at.sc
EndChar

StartChar: A
Encoding: 36 65 36
Width: 1254
GlyphClass: 2
Flags: W
LayerCount: 4
Fore
SplineSet
582 1012 m 1,0,-1
 431 612 l 1,1,2
 518 609 518 609 584 609 c 0,3,4
 649 609 649 609 726 613 c 1,5,-1
 582 1012 l 1,0,-1
167 287 m 0,6,7
 431 966 431 966 553 1277 c 0,8,9
 554 1279 554 1279 554 1280 c 0,10,11
 566 1300 566 1300 596 1324 c 0,12,13
 631 1350 631 1350 652 1351 c 0,14,15
 663 1350 663 1350 673 1344 c 2,16,-1
 675 1342 l 2,17,18
 684 1336 684 1336 687 1329 c 2,19,-1
 1094 261 l 2,20,21
 1141 139 1141 139 1145 129 c 0,22,23
 1156 108 1156 108 1193 94 c 0,24,25
 1238 77 1238 77 1258 77 c 0,26,27
 1271 76 1271 76 1279 66 c 0,28,29
 1289 50 1289 50 1289 22 c 0,30,31
 1289 -2 1289 -2 1286 -12 c 0,32,33
 1282 -30 1282 -30 1263 -31 c 0,34,35
 1261 -31 l 0,36,37
 1062 -21 1062 -21 1042 -21 c 0,38,39
 1001 -21 1001 -21 967 -22 c 0,40,41
 931 -24 931 -24 888 -27 c 0,42,43
 843 -30 843 -30 811 -31 c 0,44,45
 799 -31 799 -31 791 -22 c 0,46,47
 783 -13 783 -13 780.5 -2 c 128,-1,48
 778 9 778 9 779 24 c 0,49,50
 781 55 781 55 794 70 c 0,51,52
 802 77 802 77 812 77 c 0,53,54
 833 77 833 77 869 84 c 0,55,56
 895 89 895 89 906 96 c 0,57,58
 907 101 907 101 907 106 c 0,59,60
 906 130 906 130 874 222 c 0,61,62
 840 319 840 319 807 403 c 2,63,-1
 776 479 l 1,64,65
 737 481 737 481 586 481 c 0,66,67
 466 481 466 481 380 476 c 1,68,69
 326 334 326 334 294 242 c 0,70,71
 268 164 268 164 267 108 c 0,72,73
 267 105 267 105 272 102 c 0,74,75
 274 101 274 101 274 100 c 0,76,77
 289 91 289 91 311 86 c 0,78,79
 336 81 336 81 353.5 79 c 128,-1,80
 371 77 371 77 380 77 c 0,81,82
 390 76 390 76 398 70 c 0,83,84
 410 58 410 58 410 31 c 0,85,86
 410 28 410 28 410 27 c 0,87,88
 411 -1 411 -1 408 -14 c 0,89,90
 401 -31 401 -31 383 -31 c 0,91,92
 353 -30 353 -30 319 -27 c 128,-1,93
 285 -24 285 -24 257 -22 c 0,94,95
 228 -21 228 -21 190 -21 c 0,96,97
 149 -21 149 -21 119 -22 c 0,98,99
 87 -24 87 -24 50 -27 c 0,100,101
 11 -30 11 -30 -23 -31 c 0,102,103
 -34 -31 -34 -31 -42 -24 c 0,104,105
 -54 -8 -54 -8 -53 20 c 0,106,107
 -53 47 -53 47 -47 61 c 0,108,109
 -40 76 -40 76 -24 77 c 0,110,111
 -1 77 -1 77 36 87 c 0,112,113
 68 95 68 95 76 105 c 0,114,115
 117 158 117 158 167 287 c 0,6,7
EndSplineSet
Validated: 1
EndChar

StartChar: B
Encoding: 37 66 37
Width: 1192
GlyphClass: 2
Flags: W
LayerCount: 4
Fore
SplineSet
611 1343 m 0,0,1
 672 1343 672 1343 727 1334 c 0,2,3
 784 1324 784 1324 840 1302 c 0,4,5
 898 1279 898 1279 941 1243 c 0,6,7
 985 1206 985 1206 1011 1149 c 0,8,9
 1038 1091 1038 1091 1038 1020 c 0,10,11
 1037 908 1037 908 965 820 c 0,12,13
 918 764 918 764 871 733 c 1,14,15
 891 726 891 726 910 718 c 0,16,17
 962 693 962 693 1011 652 c 0,18,19
 1061 608 1061 608 1095 542 c 0,20,21
 1130 474 1130 474 1130 398 c 0,22,23
 1129 203 1129 203 986 83 c 0,24,25
 853 -26 853 -26 551 -31 c 1,26,-1
 91 -31 l 2,27,28
 80 -30 80 -30 72 -22 c 0,29,30
 64 -13 64 -13 61.5 -2 c 128,-1,31
 59 9 59 9 60 24 c 0,32,33
 61 53 61 53 71 67 c 0,34,35
 79 76 79 76 91 77 c 0,36,37
 120 77 120 77 169 86 c 0,38,39
 195 91 195 91 206 96 c 1,40,41
 214 131 214 131 214 232 c 2,42,-1
 214 1086 l 2,43,44
 214 1189 214 1189 206 1222 c 1,45,46
 194 1227 194 1227 169 1232 c 0,47,48
 119 1241 119 1241 91 1241 c 0,49,50
 79 1242 79 1242 71 1251 c 0,51,52
 60 1266 60 1266 60 1294 c 0,53,54
 60 1325 60 1325 72 1340 c 0,55,56
 81 1349 81 1349 92 1349 c 0,57,58
 296 1339 296 1339 327 1339 c 0,59,60
 362 1339 362 1339 453 1341 c 0,61,62
 547 1343 547 1343 611 1343 c 0,0,1
438 765 m 1,63,-1
 580 765 l 2,64,65
 694 766 694 766 750 826 c 0,66,67
 806 889 806 889 806 974 c 0,68,69
 805 1095 805 1095 731 1161 c 0,70,71
 654 1228 654 1228 523 1229 c 0,72,73
 464 1229 464 1229 445 1221 c 1,74,75
 438 1194 438 1194 438 1117 c 2,76,-1
 438 765 l 1,63,-1
438 639 m 1,77,-1
 438 220 l 2,78,79
 438 193 438 193 442 154 c 0,80,81
 445 122 445 122 450 110 c 1,82,83
 466 95 466 95 493 90 c 0,84,85
 528 84 528 84 589 83 c 0,86,87
 815 83 815 83 866 236 c 0,88,89
 882 286 882 286 882 352 c 0,90,91
 882 568 882 568 694 620 c 0,92,93
 627 639 627 639 535 639 c 2,94,-1
 438 639 l 1,77,-1
EndSplineSet
Validated: 1
EndChar

StartChar: C
Encoding: 38 67 38
Width: 1348
GlyphClass: 2
Flags: W
LayerCount: 4
Fore
SplineSet
772 1359 m 0,0,1
 1005 1359 1005 1359 1201 1316 c 0,2,3
 1217 1311 1217 1311 1221 1296 c 0,4,5
 1267 1023 1267 1023 1267 998 c 0,6,7
 1267 972 1267 972 1240 957 c 0,8,9
 1219 946 1219 946 1198 945 c 0,10,11
 1175 946 1175 946 1160 955 c 0,12,13
 1152 961 1152 961 1149 971 c 0,14,15
 1106 1193 1106 1193 893 1234 c 0,16,17
 842 1243 842 1243 782 1243 c 0,18,19
 648 1242 648 1242 541 1160 c 0,20,21
 432 1075 432 1075 376 950 c 0,22,23
 319 822 319 822 319 686 c 0,24,25
 319 593 319 593 339 506 c 0,26,27
 359 418 359 418 400 341 c 0,28,29
 441 263 441 263 498 205 c 0,30,31
 556 147 556 147 637 113 c 0,32,33
 719 79 719 79 814 79 c 0,34,35
 960 80 960 80 1061 169 c 0,36,37
 1145 245 1145 245 1176 387 c 0,38,39
 1182 405 1182 405 1200 407 c 2,40,-1
 1209 407 l 2,41,42
 1247 406 1247 406 1277 387 c 0,43,44
 1288 379 1288 379 1289 366 c 0,45,46
 1289 324 1289 324 1263 206 c 0,47,48
 1239 98 1239 98 1222 72 c 0,49,50
 1216 64 1216 64 1210 59 c 0,51,52
 1208 57 1208 57 1206 56 c 0,53,54
 1039 -37 1039 -37 764 -37 c 0,55,56
 614 -37 614 -37 483 18 c 0,57,58
 352 74 352 74 263 166 c 0,59,60
 174 259 174 259 122 382 c 0,61,62
 71 507 71 507 71 644 c 0,63,64
 71 788 71 788 124 919 c 0,65,66
 177 1050 177 1050 268 1147 c 0,67,68
 360 1244 360 1244 491 1301 c 0,69,70
 623 1359 623 1359 772 1359 c 0,0,1
EndSplineSet
Validated: 1
EndChar

StartChar: D
Encoding: 39 68 39
Width: 1420
GlyphClass: 2
Flags: W
LayerCount: 4
Fore
SplineSet
617 1341 m 0,0,1
 783 1341 783 1341 920 1290 c 0,2,3
 1058 1238 1058 1238 1150 1148 c 0,4,5
 1243 1057 1243 1057 1294 934 c 0,6,7
 1344 810 1344 810 1344 668 c 0,8,9
 1344 558 1344 558 1322 462 c 0,10,11
 1300 364 1300 364 1246 272 c 0,12,13
 1190 179 1190 179 1107 113 c 0,14,15
 1022 47 1022 47 890 8 c 0,16,17
 758 -31 758 -31 591 -31 c 2,18,-1
 91 -31 l 2,19,20
 80 -30 80 -30 72 -22 c 0,21,22
 64 -13 64 -13 61.5 -2 c 128,-1,23
 59 9 59 9 60 24 c 0,24,25
 61 53 61 53 71 67 c 0,26,27
 79 76 79 76 91 77 c 0,28,29
 120 77 120 77 169 86 c 0,30,31
 195 91 195 91 206 96 c 1,32,33
 214 131 214 131 214 232 c 2,34,-1
 214 1086 l 2,35,36
 214 1189 214 1189 206 1222 c 1,37,38
 194 1227 194 1227 169 1232 c 0,39,40
 119 1241 119 1241 91 1241 c 0,41,42
 79 1242 79 1242 71 1251 c 0,43,44
 60 1266 60 1266 60 1294 c 0,45,46
 60 1325 60 1325 72 1340 c 0,47,48
 81 1349 81 1349 92 1349 c 0,49,50
 296 1339 296 1339 327 1339 c 0,51,52
 366 1339 366 1339 468 1340 c 0,53,54
 572 1341 572 1341 617 1341 c 0,0,1
440 1112 m 2,55,-1
 440 230 l 2,56,57
 440 125 440 125 447 101 c 1,58,59
 464 87 464 87 560 83 c 0,60,61
 576 83 576 83 591 83 c 0,62,63
 696 83 696 83 785 116 c 0,64,65
 875 149 875 149 945 213 c 0,66,67
 1015 278 1015 278 1055 382 c 0,68,69
 1096 489 1096 489 1096 626 c 0,70,71
 1096 755 1096 755 1066 858 c 0,72,73
 1036 960 1036 960 988 1027 c 0,74,75
 938 1095 938 1095 870 1140 c 0,76,77
 801 1186 801 1186 726 1206 c 0,78,79
 649 1227 649 1227 563 1227 c 0,80,81
 474 1227 474 1227 447 1217 c 1,82,83
 440 1184 440 1184 440 1112 c 2,55,-1
EndSplineSet
Validated: 1
EndChar

StartChar: E
Encoding: 40 69 40
Width: 1174
GlyphClass: 2
Flags: W
LayerCount: 4
Fore
SplineSet
327 1339 m 0,0,1
 418 1339 418 1339 637 1346 c 0,2,3
 858 1353 858 1353 971 1353 c 0,4,5
 990 1353 990 1353 995 1334 c 0,6,7
 995 1332 995 1332 996 1331 c 0,8,9
 1004 1273 1004 1273 1026 1181 c 0,10,11
 1048 1086 1048 1086 1053 1061 c 0,12,13
 1055 1048 1055 1048 1047 1038 c 0,14,15
 1029 1021 1029 1021 993 1021 c 0,16,17
 950 1023 950 1023 941 1054 c 0,18,19
 912 1155 912 1155 864 1189 c 0,20,21
 814 1223 814 1223 733 1223 c 2,22,-1
 561 1223 l 2,23,24
 472 1223 472 1223 445 1213 c 1,25,26
 438 1180 438 1180 438 1112 c 2,27,-1
 438 725 l 1,28,29
 462 723 462 723 499 723 c 2,30,-1
 605 723 l 2,31,32
 655 723 655 723 682 724 c 0,33,34
 708 725 708 725 731 729 c 0,35,36
 750 733 750 733 756 738 c 0,37,38
 764 745 764 745 771 755 c 0,39,40
 779 767 779 767 783 782 c 0,41,42
 789 802 789 802 797 830 c 0,43,44
 799 841 799 841 801 849 c 0,45,46
 810 881 810 881 855 881 c 0,47,48
 889 880 889 880 907 864 c 0,49,50
 914 856 914 856 914 846 c 2,51,-1
 914 468 l 2,52,53
 913 458 913 458 907 450 c 0,54,55
 891 435 891 435 857 435 c 0,56,57
 814 436 814 436 802 467 c 0,58,59
 802 469 802 469 801 470 c 0,60,61
 781 546 781 546 771 566 c 0,62,63
 764 580 764 580 756 587 c 0,64,65
 722 599 722 599 557 599 c 2,66,-1
 526 599 l 2,67,68
 514 599 514 599 496 599 c 0,69,70
 477 598 477 598 465 597 c 0,71,72
 453 596 453 596 442 594 c 0,73,74
 440 594 440 594 438 594 c 2,75,-1
 438 205 l 2,76,77
 438 177 438 177 439 144 c 0,78,79
 441 117 441 117 444 105 c 1,80,81
 457 98 457 98 472 96 c 0,82,83
 498 93 498 93 567 93 c 2,84,-1
 663 93 l 2,85,86
 733 93 733 93 799 107 c 0,87,88
 864 121 864 121 902 143 c 0,89,90
 940 167 940 167 962 207 c 0,91,92
 987 252 987 252 1017 332 c 0,93,94
 1027 361 1027 361 1069 361 c 0,95,96
 1117 360 1117 360 1137 342 c 0,97,98
 1147 330 1147 330 1143 316 c 0,99,100
 1134 289 1134 289 1112 232 c 0,101,102
 1091 175 1091 175 1079 140 c 0,103,104
 1067 104 1067 104 1053.5 60.5 c 128,-1,105
 1040 17 1040 17 1036 -12 c 0,106,107
 1033 -29 1033 -29 1015 -33 c 0,108,109
 1012 -33 1012 -33 1011 -33 c 0,110,111
 907 -33 907 -33 688 -29 c 0,112,113
 468 -25 468 -25 329 -25 c 0,114,115
 280 -25 280 -25 205 -28 c 0,116,117
 129 -31 129 -31 91 -31 c 0,118,119
 80 -30 80 -30 72 -22 c 0,120,121
 64 -13 64 -13 61.5 -2 c 128,-1,122
 59 9 59 9 60 24 c 0,123,124
 61 53 61 53 71 67 c 0,125,126
 79 76 79 76 91 77 c 0,127,128
 120 77 120 77 169 86 c 0,129,130
 195 91 195 91 206 96 c 1,131,132
 214 131 214 131 214 232 c 2,133,-1
 214 1086 l 2,134,135
 214 1189 214 1189 206 1222 c 1,136,137
 194 1227 194 1227 169 1232 c 0,138,139
 119 1241 119 1241 91 1241 c 0,140,141
 79 1242 79 1242 71 1251 c 0,142,143
 60 1266 60 1266 60 1294 c 0,144,145
 60 1325 60 1325 72 1340 c 0,146,147
 81 1349 81 1349 92 1349 c 0,148,149
 297 1339 297 1339 327 1339 c 0,0,1
EndSplineSet
Validated: 1
EndChar

StartChar: F
Encoding: 41 70 41
Width: 1070
GlyphClass: 2
Flags: W
LayerCount: 4
Fore
SplineSet
327 1339 m 0,0,1
 418 1339 418 1339 637 1346 c 0,2,3
 858 1353 858 1353 971 1353 c 0,4,5
 990 1353 990 1353 995 1334 c 0,6,7
 995 1332 995 1332 996 1331 c 0,8,9
 1004 1273 1004 1273 1026 1181 c 0,10,11
 1048 1086 1048 1086 1053 1061 c 0,12,13
 1055 1048 1055 1048 1047 1038 c 0,14,15
 1029 1021 1029 1021 993 1021 c 0,16,17
 950 1023 950 1023 941 1054 c 0,18,19
 912 1155 912 1155 864 1189 c 0,20,21
 814 1223 814 1223 733 1223 c 2,22,-1
 561 1223 l 2,23,24
 472 1223 472 1223 445 1213 c 1,25,26
 438 1178 438 1178 438 1084 c 2,27,-1
 438 725 l 1,28,29
 462 723 462 723 499 723 c 2,30,-1
 605 723 l 2,31,32
 655 723 655 723 682 724 c 0,33,34
 708 725 708 725 731 729 c 0,35,36
 750 733 750 733 756 738 c 0,37,38
 764 745 764 745 771 755 c 0,39,40
 779 767 779 767 783 782 c 0,41,42
 789 802 789 802 797 830 c 0,43,44
 799 841 799 841 801 849 c 0,45,46
 810 881 810 881 855 881 c 0,47,48
 889 880 889 880 907 864 c 0,49,50
 914 856 914 856 914 846 c 2,51,-1
 914 468 l 2,52,53
 913 458 913 458 907 450 c 0,54,55
 891 435 891 435 857 435 c 0,56,57
 814 436 814 436 802 467 c 0,58,59
 802 469 802 469 801 470 c 0,60,61
 781 546 781 546 771 566 c 0,62,63
 764 580 764 580 756 587 c 0,64,65
 722 599 722 599 557 599 c 0,66,67
 470 599 470 599 438 592 c 1,68,-1
 438 232 l 2,69,70
 438 131 438 131 446 96 c 1,71,72
 460 90 460 90 491 86 c 0,73,74
 550 77 550 77 581 77 c 0,75,76
 593 76 593 76 601 67 c 0,77,78
 612 52 612 52 612 24 c 0,79,80
 612 -7 612 -7 600 -22 c 0,81,82
 591 -31 591 -31 580 -31 c 0,83,84
 376 -21 376 -21 327 -21 c 128,-1,85
 278 -21 278 -21 205 -26 c 0,86,87
 129 -31 129 -31 91 -31 c 0,88,89
 80 -30 80 -30 72 -22 c 0,90,91
 64 -13 64 -13 61.5 -2 c 128,-1,92
 59 9 59 9 60 24 c 0,93,94
 61 53 61 53 71 67 c 0,95,96
 79 76 79 76 91 77 c 0,97,98
 120 77 120 77 169 86 c 0,99,100
 195 91 195 91 206 96 c 1,101,102
 214 131 214 131 214 232 c 2,103,-1
 214 1086 l 2,104,105
 214 1189 214 1189 206 1222 c 1,106,107
 194 1227 194 1227 169 1232 c 0,108,109
 119 1241 119 1241 91 1241 c 0,110,111
 79 1242 79 1242 71 1251 c 0,112,113
 60 1266 60 1266 60 1294 c 0,114,115
 60 1325 60 1325 72 1340 c 0,116,117
 81 1349 81 1349 92 1349 c 0,118,119
 297 1339 297 1339 327 1339 c 0,0,1
EndSplineSet
Validated: 1
EndChar

StartChar: G
Encoding: 42 71 42
Width: 1440
GlyphClass: 2
Flags: W
LayerCount: 4
Fore
SplineSet
1045 350 m 2,0,1
 1045 453 1045 453 1037 486 c 1,2,3
 1025 491 1025 491 1001 496 c 0,4,5
 952 505 952 505 924 505 c 0,6,7
 912 506 912 506 904 515 c 0,8,9
 893 530 893 530 893 558 c 0,10,11
 893 589 893 589 905 604 c 0,12,13
 914 613 914 613 925 613 c 0,14,15
 1129 603 1129 603 1158 603 c 0,16,17
 1178 603 1178 603 1381 613 c 0,18,19
 1393 613 1393 613 1401 604 c 0,20,21
 1414 588 1414 588 1413 558 c 0,22,23
 1412 529 1412 529 1402 515 c 0,24,25
 1394 506 1394 506 1382 505 c 0,26,27
 1354 505 1354 505 1309 496 c 0,28,29
 1286 492 1286 492 1275 487 c 1,30,31
 1267 453 1267 453 1267 350 c 2,32,-1
 1267 208 l 2,33,34
 1267 188 1267 188 1275 169 c 0,35,36
 1287 139 1287 139 1287 128 c 0,37,38
 1286 108 1286 108 1272 94 c 0,39,40
 1261 84 1261 84 1234 70 c 0,41,42
 1173 38 1173 38 1131 20 c 0,43,44
 1087 1 1087 1 988 -18 c 0,45,46
 888 -37 888 -37 764 -37 c 0,47,48
 614 -37 614 -37 483 18 c 0,49,50
 352 74 352 74 263 166 c 0,51,52
 174 259 174 259 122 382 c 0,53,54
 71 507 71 507 71 644 c 0,55,56
 71 788 71 788 124 919 c 0,57,58
 177 1050 177 1050 268 1147 c 0,59,60
 360 1244 360 1244 491 1301 c 0,61,62
 623 1358 623 1358 772 1359 c 0,63,64
 1005 1359 1005 1359 1201 1316 c 0,65,66
 1217 1311 1217 1311 1221 1296 c 0,67,68
 1267 1023 1267 1023 1267 998 c 0,69,70
 1267 972 1267 972 1240 957 c 0,71,72
 1219 946 1219 946 1198 945 c 0,73,74
 1175 946 1175 946 1160 955 c 0,75,76
 1152 961 1152 961 1149 971 c 0,77,78
 1106 1193 1106 1193 893 1234 c 0,79,80
 842 1243 842 1243 782 1243 c 0,81,82
 648 1242 648 1242 541 1160 c 0,83,84
 432 1075 432 1075 376 950 c 0,85,86
 319 822 319 822 319 686 c 0,87,88
 319 593 319 593 338 506 c 0,89,90
 358 418 358 418 399 341 c 0,91,92
 440 263 440 263 497 205 c 0,93,94
 555 147 555 147 636 113 c 0,95,96
 718 79 718 79 814 79 c 0,97,98
 922 80 922 80 1044 140 c 0,99,100
 1045 144 1045 144 1045 148 c 2,101,-1
 1045 350 l 2,0,1
EndSplineSet
Validated: 1
EndChar

StartChar: H
Encoding: 43 72 43
Width: 1452
GlyphClass: 2
Flags: W
LayerCount: 4
Fore
SplineSet
327 1339 m 0,0,1
 357 1339 357 1339 560 1349 c 0,2,3
 572 1349 572 1349 580 1340 c 0,4,5
 593 1324 593 1324 592 1291 c 0,6,7
 591 1259 591 1259 581 1245 c 0,8,9
 573 1236 573 1236 561 1235 c 0,10,11
 532 1235 532 1235 483 1226 c 0,12,13
 457 1221 457 1221 446 1216 c 1,14,15
 438 1181 438 1181 438 1080 c 2,16,-1
 438 749 l 1,17,18
 711 743 711 743 731 743 c 0,19,20
 767 743 767 743 1016 749 c 1,21,-1
 1016 1080 l 2,22,23
 1016 1183 1016 1183 1008 1216 c 1,24,25
 996 1221 996 1221 971 1226 c 0,26,27
 921 1235 921 1235 893 1235 c 0,28,29
 881 1236 881 1236 873 1245 c 0,30,31
 862 1260 862 1260 862 1291 c 0,32,33
 862 1325 862 1325 874 1340 c 0,34,35
 883 1349 883 1349 894 1349 c 0,36,37
 1098 1339 1098 1339 1129 1339 c 0,38,39
 1159 1339 1159 1339 1362 1349 c 0,40,41
 1374 1349 1374 1349 1382 1340 c 0,42,43
 1395 1324 1395 1324 1394 1291 c 0,44,45
 1393 1259 1393 1259 1383 1245 c 0,46,47
 1375 1236 1375 1236 1363 1235 c 0,48,49
 1334 1235 1334 1235 1285 1226 c 0,50,51
 1259 1221 1259 1221 1248 1216 c 1,52,53
 1240 1181 1240 1181 1240 1080 c 2,54,-1
 1240 238 l 2,55,56
 1240 135 1240 135 1248 102 c 1,57,58
 1260 97 1260 97 1285 92 c 0,59,60
 1335 83 1335 83 1363 83 c 0,61,62
 1375 82 1375 82 1383 73 c 0,63,64
 1394 58 1394 58 1394 27 c 0,65,66
 1394 -7 1394 -7 1382 -22 c 0,67,68
 1373 -31 1373 -31 1362 -31 c 0,69,70
 1158 -21 1158 -21 1129 -21 c 0,71,72
 1097 -21 1097 -21 894 -31 c 0,73,74
 882 -31 882 -31 874 -22 c 0,75,76
 861 -6 861 -6 862 27 c 0,77,78
 863 59 863 59 873 73 c 0,79,80
 881 82 881 82 893 83 c 0,81,82
 922 83 922 83 971 92 c 0,83,84
 997 97 997 97 1008 102 c 1,85,86
 1016 137 1016 137 1016 238 c 2,87,-1
 1016 618 l 1,88,89
 980 619 980 619 901 622 c 0,90,91
 790 625 790 625 731 625 c 0,92,93
 499 625 499 625 438 617 c 1,94,-1
 438 238 l 2,95,96
 438 135 438 135 446 102 c 1,97,98
 458 97 458 97 483 92 c 0,99,100
 533 83 533 83 561 83 c 0,101,102
 573 82 573 82 581 73 c 0,103,104
 592 58 592 58 592 27 c 0,105,106
 592 -7 592 -7 580 -22 c 0,107,108
 571 -31 571 -31 560 -31 c 0,109,110
 356 -21 356 -21 327 -21 c 0,111,112
 295 -21 295 -21 92 -31 c 0,113,114
 80 -31 80 -31 72 -22 c 0,115,116
 59 -6 59 -6 60 27 c 0,117,118
 61 59 61 59 71 73 c 0,119,120
 79 82 79 82 91 83 c 0,121,122
 120 83 120 83 169 92 c 0,123,124
 195 97 195 97 206 102 c 1,125,126
 214 137 214 137 214 238 c 2,127,-1
 214 1080 l 2,128,129
 214 1183 214 1183 206 1216 c 1,130,131
 194 1221 194 1221 169 1226 c 0,132,133
 119 1235 119 1235 91 1235 c 0,134,135
 79 1236 79 1236 71 1245 c 0,136,137
 60 1260 60 1260 60 1291 c 0,138,139
 60 1325 60 1325 72 1340 c 0,140,141
 81 1349 81 1349 92 1349 c 0,142,143
 297 1339 297 1339 327 1339 c 0,0,1
EndSplineSet
Validated: 1
EndChar

StartChar: I
Encoding: 44 73 44
Width: 648
GlyphClass: 2
Flags: W
LayerCount: 4
Fore
SplineSet
327 1339 m 0,0,1
 357 1339 357 1339 560 1349 c 0,2,3
 572 1349 572 1349 580 1340 c 0,4,5
 593 1324 593 1324 592 1294 c 0,6,7
 591 1265 591 1265 581 1251 c 0,8,9
 573 1242 573 1242 561 1241 c 0,10,11
 532 1241 532 1241 483 1232 c 0,12,13
 457 1227 457 1227 446 1222 c 1,14,15
 438 1187 438 1187 438 1086 c 2,16,-1
 438 232 l 2,17,18
 438 129 438 129 446 96 c 1,19,20
 458 91 458 91 483 86 c 0,21,22
 533 77 533 77 561 77 c 0,23,24
 573 76 573 76 581 67 c 0,25,26
 592 52 592 52 592 24 c 0,27,28
 592 -7 592 -7 580 -22 c 0,29,30
 571 -31 571 -31 560 -31 c 0,31,32
 356 -21 356 -21 327 -21 c 0,33,34
 295 -21 295 -21 92 -31 c 0,35,36
 80 -31 80 -31 72 -22 c 0,37,38
 64 -13 64 -13 61.5 -2 c 128,-1,39
 59 9 59 9 60 24 c 0,40,41
 61 53 61 53 71 67 c 0,42,43
 79 76 79 76 91 77 c 0,44,45
 120 77 120 77 169 86 c 0,46,47
 195 91 195 91 206 96 c 1,48,49
 214 131 214 131 214 232 c 2,50,-1
 214 1086 l 2,51,52
 214 1189 214 1189 206 1222 c 1,53,54
 194 1227 194 1227 169 1232 c 0,55,56
 119 1241 119 1241 91 1241 c 0,57,58
 79 1242 79 1242 71 1251 c 0,59,60
 60 1266 60 1266 60 1294 c 0,61,62
 60 1325 60 1325 72 1340 c 0,63,64
 81 1349 81 1349 92 1349 c 0,65,66
 297 1339 297 1339 327 1339 c 0,0,1
EndSplineSet
Validated: 1
EndChar

StartChar: J
Encoding: 45 74 45
Width: 626
GlyphClass: 2
Flags: W
LayerCount: 4
Fore
SplineSet
316 1339 m 0,0,1
 346 1339 346 1339 549 1349 c 0,2,3
 561 1349 561 1349 569 1340 c 0,4,5
 582 1324 582 1324 581 1294 c 0,6,7
 580 1265 580 1265 570 1251 c 0,8,9
 562 1242 562 1242 550 1241 c 0,10,11
 521 1241 521 1241 472 1232 c 0,12,13
 446 1227 446 1227 435 1222 c 1,14,15
 427 1187 427 1187 427 1086 c 2,16,-1
 427 242 l 2,17,18
 427 56 427 56 392 -83 c 0,19,20
 356 -224 356 -224 289 -310 c 0,21,22
 221 -396 221 -396 132 -438 c 0,23,24
 43 -479 43 -479 -66 -479 c 0,25,26
 -94 -479 -94 -479 -139 -467 c 0,27,28
 -186 -454 -186 -454 -207 -438 c 0,29,30
 -209 -437 -209 -437 -210 -436 c 0,31,32
 -233 -412 -233 -412 -233 -372 c 0,33,34
 -232 -314 -232 -314 -203 -276 c 0,35,36
 -170 -236 -170 -236 -112 -235 c 0,37,38
 -102 -235 -102 -235 -93 -237 c 0,39,40
 -81 -240 -81 -240 -70 -246 c 0,41,42
 -62 -251 -62 -251 -57 -253 c 0,43,44
 -49 -258 -49 -258 -39 -265 c 0,45,46
 -29 -272 -29 -272 -25 -276 c 0,47,48
 -20 -280 -20 -280 -11 -288.5 c 128,-1,49
 -2 -297 -2 -297 1 -300 c 0,50,51
 40 -335 40 -335 74 -335 c 0,52,53
 98 -334 98 -334 116 -317 c 0,54,55
 138 -294 138 -294 158 -238 c 0,56,57
 179 -177 179 -177 191 -61 c 0,58,59
 203 59 203 59 203 232 c 2,60,-1
 203 1086 l 2,61,62
 203 1189 203 1189 195 1222 c 1,63,64
 183 1227 183 1227 158 1232 c 0,65,66
 108 1241 108 1241 80 1241 c 0,67,68
 68 1242 68 1242 60 1251 c 0,69,70
 49 1266 49 1266 49 1294 c 0,71,72
 49 1325 49 1325 61 1340 c 0,73,74
 70 1349 70 1349 81 1349 c 0,75,76
 286 1339 286 1339 316 1339 c 0,0,1
EndSplineSet
Validated: 1
EndChar

StartChar: K
Encoding: 46 75 46
Width: 1314
GlyphClass: 2
Flags: W
LayerCount: 4
Fore
SplineSet
327 1339 m 0,0,1
 357 1339 357 1339 560 1349 c 0,2,3
 572 1349 572 1349 580 1340 c 0,4,5
 593 1324 593 1324 592 1291 c 0,6,7
 591 1259 591 1259 581 1245 c 0,8,9
 573 1236 573 1236 561 1235 c 0,10,11
 532 1235 532 1235 483 1226 c 0,12,13
 457 1221 457 1221 446 1216 c 1,14,15
 438 1183 438 1183 438 1110 c 2,16,-1
 438 732 l 1,17,18
 500 784 500 784 621 902 c 0,19,20
 736 1017 736 1017 783 1065 c 0,21,22
 829 1114 829 1114 873 1171 c 0,23,24
 896 1201 896 1201 896 1218 c 0,25,26
 896 1221 896 1221 895 1222 c 2,27,-1
 894 1224 l 2,28,29
 889 1227 889 1227 885 1229 c 0,30,31
 880 1231 880 1231 875 1233 c 0,32,33
 867 1235 867 1235 860 1235 c 0,34,35
 853 1236 853 1236 845 1237 c 0,36,37
 836 1237 836 1237 830 1237 c 2,38,-1
 809 1237 l 2,39,40
 795 1238 795 1238 787 1250 c 0,41,42
 779 1266 779 1266 779 1290 c 0,43,44
 779 1314 779 1314 785 1332 c 0,45,46
 792 1348 792 1348 810 1349 c 0,47,48
 834 1348 834 1348 882 1344 c 0,49,50
 931 1341 931 1341 969 1339 c 0,51,52
 1007 1337 1007 1337 1039 1337 c 0,53,54
 1091 1337 1091 1337 1162 1342 c 0,55,56
 1235 1347 1235 1347 1254 1349 c 0,57,58
 1271 1349 1271 1349 1278 1334 c 0,59,60
 1284 1319 1284 1319 1283 1288 c 0,61,62
 1282 1255 1282 1255 1272 1245 c 0,63,64
 1264 1239 1264 1239 1254 1237 c 2,65,-1
 1237 1236 l 2,66,67
 1221 1235 1221 1235 1209 1234 c 0,68,69
 1196 1232 1196 1232 1177 1228 c 0,70,71
 1157 1223 1157 1223 1140 1216 c 0,72,73
 1123 1209 1123 1209 1103 1198 c 0,74,75
 1084 1186 1084 1186 1072 1171 c 0,76,77
 1010 1104 1010 1104 947 1040 c 0,78,79
 884 975 884 975 843 936 c 0,80,81
 802 896 802 896 726 823 c 0,82,83
 657 758 657 758 617 719 c 1,84,85
 634 700 634 700 665 663 c 0,86,87
 708 613 708 613 722 596 c 0,88,89
 737 579 737 579 774 536 c 0,90,91
 813 491 813 491 829 473 c 0,92,93
 846 454 846 454 879 416 c 0,94,95
 913 378 913 378 931 358 c 0,96,97
 950 338 950 338 978.5 306.5 c 128,-1,98
 1007 275 1007 275 1028 254 c 0,99,100
 1050 232 1050 232 1073 208 c 0,101,102
 1098 183 1098 183 1120 162 c 0,103,104
 1161 125 1161 125 1206 104 c 0,105,106
 1252 83 1252 83 1323 77 c 0,107,108
 1336 75 1336 75 1343 64 c 0,109,110
 1353 45 1353 45 1349 17 c 0,111,112
 1346 -8 1346 -8 1341 -17 c 0,113,114
 1333 -30 1333 -30 1319 -31 c 0,115,116
 1094 -31 1094 -31 1027 -8 c 0,117,118
 943 23 943 23 881 84 c 0,119,120
 825 140 825 140 438 583 c 1,121,-1
 438 238 l 2,122,123
 438 135 438 135 446 102 c 1,124,125
 458 97 458 97 483 92 c 0,126,127
 533 83 533 83 561 83 c 0,128,129
 573 82 573 82 581 73 c 0,130,131
 592 58 592 58 592 27 c 0,132,133
 592 -7 592 -7 580 -22 c 0,134,135
 571 -31 571 -31 560 -31 c 0,136,137
 356 -21 356 -21 327 -21 c 0,138,139
 295 -21 295 -21 92 -31 c 0,140,141
 80 -31 80 -31 72 -22 c 0,142,143
 59 -6 59 -6 60 27 c 0,144,145
 61 59 61 59 71 73 c 0,146,147
 79 82 79 82 91 83 c 0,148,149
 120 83 120 83 169 92 c 0,150,151
 195 97 195 97 206 102 c 1,152,153
 214 137 214 137 214 238 c 2,154,-1
 214 1080 l 2,155,156
 214 1183 214 1183 206 1216 c 1,157,158
 194 1221 194 1221 169 1226 c 0,159,160
 119 1235 119 1235 91 1235 c 0,161,162
 79 1236 79 1236 71 1245 c 0,163,164
 60 1260 60 1260 60 1291 c 0,165,166
 60 1325 60 1325 72 1340 c 0,167,168
 81 1349 81 1349 92 1349 c 0,169,170
 297 1339 297 1339 327 1339 c 0,0,1
EndSplineSet
Validated: 1
EndChar

StartChar: L
Encoding: 47 76 47
Width: 1128
GlyphClass: 2
Flags: W
LayerCount: 4
Fore
SplineSet
438 232 m 2,0,1
 438 133 438 133 444 105 c 1,2,3
 457 98 457 98 472 96 c 0,4,5
 498 93 498 93 567 93 c 2,6,-1
 681 93 l 2,7,8
 742 93 742 93 805 106 c 0,9,10
 866 119 866 119 901 143 c 0,11,12
 976 195 976 195 1018 335 c 0,13,14
 1027 361 1027 361 1069 361 c 0,15,16
 1117 360 1117 360 1137 342 c 0,17,18
 1147 330 1147 330 1143 316 c 0,19,20
 1134 289 1134 289 1112 232 c 0,21,22
 1091 175 1091 175 1079 140 c 0,23,24
 1067 104 1067 104 1053.5 60.5 c 128,-1,25
 1040 17 1040 17 1036 -12 c 0,26,27
 1033 -29 1033 -29 1015 -33 c 0,28,29
 1012 -33 1012 -33 1011 -33 c 0,30,31
 907 -33 907 -33 688 -29 c 0,32,33
 468 -25 468 -25 329 -25 c 0,34,35
 280 -25 280 -25 205 -28 c 0,36,37
 129 -31 129 -31 91 -31 c 0,38,39
 80 -30 80 -30 72 -22 c 0,40,41
 64 -13 64 -13 61.5 -2 c 128,-1,42
 59 9 59 9 60 24 c 0,43,44
 61 53 61 53 71 67 c 0,45,46
 79 76 79 76 91 77 c 0,47,48
 120 77 120 77 169 86 c 0,49,50
 195 91 195 91 206 96 c 1,51,52
 214 131 214 131 214 232 c 2,53,-1
 214 1086 l 2,54,55
 214 1189 214 1189 206 1222 c 1,56,57
 194 1227 194 1227 169 1232 c 0,58,59
 119 1241 119 1241 91 1241 c 0,60,61
 79 1242 79 1242 71 1251 c 0,62,63
 60 1266 60 1266 60 1294 c 0,64,65
 60 1325 60 1325 72 1340 c 0,66,67
 81 1349 81 1349 92 1349 c 0,68,69
 296 1339 296 1339 327 1339 c 0,70,71
 357 1339 357 1339 560 1349 c 0,72,73
 572 1349 572 1349 580 1340 c 0,74,75
 593 1324 593 1324 592 1294 c 0,76,77
 591 1265 591 1265 581 1251 c 0,78,79
 573 1242 573 1242 561 1241 c 0,80,81
 532 1241 532 1241 483 1232 c 0,82,83
 457 1227 457 1227 446 1222 c 1,84,85
 438 1189 438 1189 438 1116 c 2,86,-1
 438 232 l 2,0,1
EndSplineSet
Validated: 1
EndChar

StartChar: M
Encoding: 48 77 48
Width: 1814
GlyphClass: 2
Flags: W
LayerCount: 4
Fore
SplineSet
919 340 m 1,0,1
 1197 1057 1197 1057 1212 1093 c 2,2,-1
 1300 1333 l 2,3,4
 1307 1349 1307 1349 1325 1349 c 0,5,6
 1452 1341 1452 1341 1481 1341 c 0,7,8
 1604 1341 1604 1341 1703 1349 c 0,9,10
 1722 1351 1722 1351 1729 1332 c 0,11,12
 1730 1329 1730 1329 1730 1327 c 2,13,-1
 1736 1269 l 2,14,15
 1738 1248 1738 1248 1719 1242 c 0,16,17
 1715 1241 1715 1241 1711 1241 c 0,18,19
 1685 1241 1685 1241 1635 1230 c 0,20,21
 1603 1223 1603 1223 1590 1216 c 1,22,23
 1584 1196 1584 1196 1584 1154 c 0,24,25
 1586 1091 1586 1091 1589 939 c 0,26,27
 1593 784 1593 784 1597.5 577 c 128,-1,28
 1602 370 1602 370 1604 281 c 0,29,30
 1608 147 1608 147 1626 96 c 1,31,32
 1636 89 1636 89 1664 85 c 0,33,34
 1714 77 1714 77 1743 77 c 0,35,36
 1757 76 1757 76 1765 65 c 0,37,38
 1775 46 1775 46 1775 21 c 0,39,40
 1775 -3 1775 -3 1770 -15 c 0,41,42
 1763 -31 1763 -31 1746 -31 c 0,43,44
 1547 -21 1547 -21 1509 -21 c 0,45,46
 1468 -21 1468 -21 1432 -22 c 0,47,48
 1395 -24 1395 -24 1349 -27 c 0,49,50
 1301 -30 1301 -30 1270 -31 c 0,51,52
 1259 -31 1259 -31 1251 -24 c 0,53,54
 1239 -12 1239 -12 1240 15 c 0,55,56
 1240 17 1240 17 1240 18 c 0,57,58
 1240 44 1240 44 1246 61 c 0,59,60
 1253 76 1253 76 1269 77 c 0,61,62
 1292 77 1292 77 1334 83 c 0,63,64
 1370 88 1370 88 1385 95 c 1,65,66
 1392 111 1392 111 1392 158 c 0,67,68
 1392 173 1392 173 1390 214 c 0,69,70
 1388 258 1388 258 1388 274 c 0,71,72
 1372 852 1372 852 1363 1099 c 1,73,74
 1284 902 1284 902 960 89 c 1,75,-1
 960 88 l 2,76,77
 948 63 948 63 921.5 23.5 c 128,-1,78
 895 -16 895 -16 877 -24 c 0,79,80
 871 -27 871 -27 866 -29 c 0,81,82
 854 -31 854 -31 835 -24 c 0,83,84
 825 -19 825 -19 820 -10 c 2,85,-1
 377 1049 l 1,86,87
 374 901 374 901 369 725 c 0,88,89
 362 474 362 474 358 314 c 0,90,91
 354 159 354 159 354 150 c 0,92,93
 354 116 354 116 360 99 c 1,94,95
 372 91 372 91 407 85 c 0,96,97
 463 77 463 77 495 77 c 0,98,99
 506 76 506 76 514 68 c 0,100,101
 527 52 527 52 527 23 c 0,102,103
 527 -3 527 -3 522 -15 c 0,104,105
 515 -31 515 -31 498 -31 c 0,106,107
 470 -30 470 -30 430 -27 c 0,108,109
 390 -24 390 -24 358 -22 c 0,110,111
 325 -21 325 -21 287 -21 c 0,112,113
 246 -21 246 -21 212 -22 c 0,114,115
 176 -24 176 -24 132 -27 c 0,116,117
 86 -30 86 -30 54 -31 c 0,118,119
 43 -31 43 -31 35 -24 c 0,120,121
 23 -12 23 -12 24 15 c 0,122,123
 24 17 24 17 24 18 c 0,124,125
 24 44 24 44 30 61 c 0,126,127
 37 76 37 76 53 77 c 0,128,129
 85 77 85 77 140 86 c 0,130,131
 183 93 183 93 195 103 c 1,132,133
 211 128 211 128 214 189 c 0,134,135
 242 935 242 935 242 1144 c 0,136,137
 242 1194 242 1194 236 1214 c 1,138,139
 224 1222 224 1222 194 1229 c 0,140,141
 143 1241 143 1241 119 1241 c 0,142,143
 100 1241 100 1241 93 1254 c 128,-1,144
 86 1267 86 1267 88 1280 c 2,145,-1
 91 1294 l 2,146,147
 91 1298 91 1298 90 1304 c 0,148,149
 89 1329 89 1329 101 1342 c 0,150,151
 109 1349 109 1349 120 1349 c 0,152,153
 155 1347 155 1347 191 1344.5 c 128,-1,154
 227 1342 227 1342 256 1340 c 0,155,156
 286 1339 286 1339 325 1339 c 0,157,158
 377 1339 377 1339 485 1349 c 0,159,160
 504 1350 504 1350 511 1332 c 0,161,162
 528 1278 528 1278 601 1104 c 0,163,164
 674 928 674 928 776 685 c 0,165,166
 874 451 874 451 930 312 c 2,167,-1
 919 340 l 1,0,1
EndSplineSet
Validated: 1
EndChar

StartChar: N
Encoding: 49 78 49
Width: 1552
GlyphClass: 2
Flags: W
LayerCount: 4
Fore
SplineSet
286 1345 m 0,0,1
 381 1345 381 1345 436 1349 c 0,2,3
 451 1349 451 1349 459 1337 c 0,4,5
 509 1259 509 1259 817 884 c 0,6,7
 1074 571 1074 571 1197 408 c 1,8,-1
 1197 1090 l 2,9,10
 1197 1150 1197 1150 1194 1176 c 0,11,12
 1191 1197 1191 1197 1181 1214 c 1,13,14
 1169 1222 1169 1222 1131 1231 c 0,15,16
 1076 1243 1076 1243 1050 1243 c 0,17,18
 1037 1244 1037 1244 1030 1254 c 0,19,20
 1019 1271 1019 1271 1018 1297 c 0,21,22
 1018 1324 1018 1324 1024 1337 c 0,23,24
 1032 1351 1032 1351 1047 1351 c 0,25,26
 1246 1341 1246 1341 1276 1341 c 0,27,28
 1317 1341 1317 1341 1347 1342 c 0,29,30
 1379 1344 1379 1344 1416 1347 c 0,31,32
 1455 1350 1455 1350 1489 1351 c 0,33,34
 1503 1351 1503 1351 1511 1339 c 0,35,36
 1522.025 1319.575 1522.025 1319.575 1522.025 1298.220625 c 0,37,38
 1522.025 1278.9 1522.025 1278.9 1513 1258 c 0,39,40
 1506 1244 1506 1244 1490 1243 c 0,41,42
 1463 1243 1463 1243 1407 1231 c 0,43,44
 1402 1230 1402 1230 1397.5 1229 c 128,-1,45
 1393 1228 1393 1228 1388.5 1227 c 128,-1,46
 1384 1226 1384 1226 1380.5 1225 c 128,-1,47
 1377 1224 1377 1224 1374 1223 c 128,-1,48
 1371 1222 1371 1222 1368 1221 c 128,-1,49
 1365 1220 1365 1220 1363 1219 c 128,-1,50
 1361 1218 1361 1218 1359.5 1217 c 128,-1,51
 1358 1216 1358 1216 1357 1215.5 c 128,-1,52
 1356 1215 1356 1215 1355 1215 c 0,53,54
 1345 1198 1345 1198 1342 1177 c 0,55,56
 1339 1151 1339 1151 1339 1092 c 2,57,-1
 1339 278 l 2,58,59
 1339 106 1339 106 1343 3 c 0,60,61
 1343 0 1343 0 1343 -2 c 0,62,63
 1337 -34 1337 -34 1292 -35 c 0,64,65
 1274 -34 1274 -34 1249 -21 c 0,66,67
 1224 -7 1224 -7 1202 21 c 2,68,-1
 375 1066 l 1,69,-1
 375 230 l 2,70,71
 375 170 375 170 378 144 c 0,72,73
 381 123 381 123 391 106 c 1,74,75
 403 98 403 98 440 89 c 0,76,77
 494 77 494 77 520 77 c 0,78,79
 533 76 533 76 540 66 c 0,80,81
 551 49 551 49 552 23 c 0,82,83
 552 -4 552 -4 546 -17 c 0,84,85
 538 -31 538 -31 523 -31 c 0,86,87
 324 -21 324 -21 296 -21 c 0,88,89
 255 -21 255 -21 225 -22 c 0,90,91
 193 -24 193 -24 156 -27 c 0,92,93
 117 -30 117 -30 83 -31 c 0,94,95
 69 -31 69 -31 61 -19 c 0,96,97
 49.975 0.425 49.975 0.425 49.975 21.779375 c 0,98,99
 49.975 41.1 49.975 41.1 59 62 c 0,100,101
 66 76 66 76 82 77 c 0,102,103
 109 77 109 77 165 89 c 0,104,105
 206 97 206 97 217 105 c 1,106,107
 227 122 227 122 230 143 c 0,108,109
 233 169 233 169 233 228 c 2,110,-1
 233 1096 l 2,111,112
 233 1155 233 1155 230 1181 c 0,113,114
 227 1203 227 1203 217 1219 c 1,115,116
 205 1227 205 1227 165 1235 c 0,117,118
 108 1246 108 1246 82 1247 c 0,119,120
 66 1248 66 1248 59 1262 c 0,121,122
 49.4761904762 1283.42857143 49.4761904762 1283.42857143 49.4761904762 1302.81632653 c 0,123,124
 49.4761904762 1324.14285714 49.4761904762 1324.14285714 61 1343 c 0,125,126
 69 1355 69 1355 83 1355 c 0,127,128
 116 1354 116 1354 182.5 1349.5 c 128,-1,129
 249 1345 249 1345 286 1345 c 0,0,1
EndSplineSet
Validated: 1
EndChar

StartChar: O
Encoding: 50 79 50
Width: 1496
GlyphClass: 2
Flags: W
LayerCount: 4
Fore
SplineSet
746 1359 m 0,0,1
 883 1359 883 1359 1006 1307 c 0,2,3
 1130 1254 1130 1254 1222 1163 c 0,4,5
 1315 1071 1315 1071 1369 939 c 0,6,7
 1423 807 1423 807 1423 656 c 0,8,9
 1423 514 1423 514 1369 384 c 0,10,11
 1314 254 1314 254 1222 160 c 0,12,13
 1129 66 1129 66 1006 11 c 0,14,15
 881 -44 881 -44 746 -45 c 0,16,17
 609 -45 609 -45 487 8 c 0,18,19
 364 61 364 61 272 151 c 0,20,21
 180 243 180 243 127 375 c 0,22,23
 73 507 73 507 73 656 c 0,24,25
 73 799 73 799 127 929 c 0,26,27
 181 1059 181 1059 272 1153 c 0,28,29
 364 1247 364 1247 486 1303 c 0,30,31
 611 1359 611 1359 746 1359 c 0,0,1
716 1241 m 0,32,33
 634 1241 634 1241 568 1210 c 0,34,35
 501 1178 501 1178 457 1128 c 0,36,37
 412 1075 412 1075 381 1005 c 0,38,39
 349 933 349 933 335 857 c 0,40,41
 321 780 321 780 321 700 c 0,42,43
 321 585 321 585 353 474 c 0,44,45
 385 362 385 362 441 271 c 0,46,47
 498 182 498 182 586 127 c 0,48,49
 674 73 674 73 778 73 c 0,50,51
 860 73 860 73 926 104 c 0,52,53
 993 136 993 136 1038 187 c 0,54,55
 1083 240 1083 240 1115 311 c 0,56,57
 1147 383 1147 383 1161 459 c 0,58,59
 1175 537 1175 537 1175 618 c 0,60,61
 1175 733 1175 733 1143 844 c 0,62,63
 1111 955 1111 955 1053 1045 c 0,64,65
 996 1133 996 1133 908 1187 c 0,66,67
 820 1241 820 1241 716 1241 c 0,32,33
EndSplineSet
Validated: 1
EndChar

StartChar: P
Encoding: 51 80 51
Width: 1096
GlyphClass: 2
Flags: W
LayerCount: 4
Fore
SplineSet
1061 958 m 0,0,1
 1060 765 1060 765 931 647 c 0,2,3
 802 531 802 531 596 531 c 0,4,5
 536 531 536 531 499 550 c 0,6,7
 497 551 497 551 496 551 c 0,8,9
 471 569 471 569 461 592 c 0,10,11
 457 604 457 604 457 616 c 0,12,13
 457 623 457 623 460 630 c 0,14,15
 463 638 463 638 468 643 c 0,16,17
 480 654 480 654 498 650 c 0,18,19
 546 637 546 637 568 637 c 0,20,21
 682 638 682 638 754 712 c 0,22,23
 827 789 827 789 827 924 c 0,24,25
 826 1067 826 1067 750 1148 c 0,26,27
 672 1228 672 1228 522 1229 c 0,28,29
 463 1229 463 1229 444 1221 c 1,30,31
 437 1191 437 1191 437 1084 c 2,32,-1
 437 232 l 2,33,34
 437 129 437 129 445 96 c 1,35,36
 457 91 457 91 482 86 c 0,37,38
 532 77 532 77 560 77 c 0,39,40
 572 76 572 76 580 67 c 0,41,42
 591 52 591 52 591 24 c 0,43,44
 591 -7 591 -7 579 -22 c 0,45,46
 570 -31 570 -31 559 -31 c 0,47,48
 355 -21 355 -21 326 -21 c 0,49,50
 294 -21 294 -21 91 -31 c 0,51,52
 79 -31 79 -31 71 -22 c 0,53,54
 63 -13 63 -13 60.5 -2 c 128,-1,55
 58 9 58 9 59 24 c 0,56,57
 60 53 60 53 70 67 c 0,58,59
 78 76 78 76 90 77 c 0,60,61
 119 77 119 77 168 86 c 0,62,63
 194 91 194 91 205 96 c 1,64,65
 213 131 213 131 213 232 c 2,66,-1
 213 1086 l 2,67,68
 213 1189 213 1189 205 1222 c 1,69,70
 193 1227 193 1227 168 1232 c 0,71,72
 118 1241 118 1241 90 1241 c 0,73,74
 78 1242 78 1242 70 1251 c 0,75,76
 59 1266 59 1266 59 1294 c 0,77,78
 59 1325 59 1325 71 1340 c 0,79,80
 80 1349 80 1349 91 1349 c 0,81,82
 295 1339 295 1339 326 1339 c 0,83,84
 361 1339 361 1339 452 1341 c 0,85,86
 545 1343 545 1343 610 1343 c 0,87,88
 724 1343 724 1343 824 1301 c 0,89,90
 926 1257 926 1257 993 1168 c 0,91,92
 1061 1077 1061 1077 1061 958 c 0,0,1
EndSplineSet
Validated: 1
EndChar

StartChar: Q
Encoding: 52 81 52
Width: 1494
GlyphClass: 2
Flags: W
LayerCount: 4
Fore
SplineSet
746 1359 m 0,0,1
 883 1359 883 1359 1006 1307 c 0,2,3
 1130 1254 1130 1254 1222 1163 c 0,4,5
 1315 1071 1315 1071 1369 939 c 0,6,7
 1423 807 1423 807 1423 656 c 0,8,9
 1422 421 1422 421 1287 236 c 0,10,11
 1169 76 1169 76 995 4 c 1,12,13
 1029 -14 1029 -14 1063 -35 c 0,14,15
 1126 -73 1126 -73 1160 -91 c 0,16,17
 1192 -109 1192 -109 1246 -123 c 0,18,19
 1301 -137 1301 -137 1370 -137 c 0,20,21
 1466 -137 1466 -137 1505 -126 c 0,22,23
 1509 -125 1509 -125 1512 -125 c 0,24,25
 1552 -126 1552 -126 1569 -150 c 0,26,27
 1570 -152 1570 -152 1570 -153 c 0,28,29
 1575 -162 1575 -162 1575 -170 c 0,30,31
 1574 -185 1574 -185 1562 -192 c 0,32,33
 1464 -244 1464 -244 1386 -270 c 0,34,35
 1306 -297 1306 -297 1218 -297 c 0,36,37
 1153 -297 1153 -297 1088 -274 c 0,38,39
 1024 -251 1024 -251 964 -217 c 0,40,41
 906 -183 906 -183 848 -146 c 0,42,43
 790 -110 790 -110 719 -76 c 0,44,45
 648 -42 648 -42 580 -24 c 0,46,47
 357 33 357 33 215 217 c 0,48,49
 73 402 73 402 73 656 c 0,50,51
 73 799 73 799 127 929 c 0,52,53
 181 1059 181 1059 272 1153 c 0,54,55
 364 1247 364 1247 486 1303 c 0,56,57
 611 1359 611 1359 746 1359 c 0,0,1
716 1241 m 0,58,59
 634 1241 634 1241 568 1210 c 0,60,61
 501 1178 501 1178 457 1128 c 0,62,63
 412 1075 412 1075 381 1005 c 0,64,65
 349 933 349 933 335 857 c 0,66,67
 321 780 321 780 321 700 c 0,68,69
 321 585 321 585 353 474 c 0,70,71
 385 362 385 362 441 271 c 0,72,73
 498 182 498 182 586 127 c 0,74,75
 674 73 674 73 778 73 c 0,76,77
 860 73 860 73 926 104 c 0,78,79
 993 136 993 136 1038 187 c 0,80,81
 1083 240 1083 240 1115 311 c 0,82,83
 1147 383 1147 383 1161 459 c 0,84,85
 1175 537 1175 537 1175 618 c 0,86,87
 1175 733 1175 733 1143 844 c 0,88,89
 1111 955 1111 955 1053 1045 c 0,90,91
 996 1133 996 1133 908 1187 c 0,92,93
 820 1241 820 1241 716 1241 c 0,58,59
EndSplineSet
Validated: 1
EndChar

StartChar: R
Encoding: 53 82 53
Width: 1242
GlyphClass: 2
Flags: W
LayerCount: 4
Fore
SplineSet
805 954 m 0,0,1
 804 1083 804 1083 737 1157 c 0,2,3
 669 1229 669 1229 522 1229 c 0,4,5
 463 1229 463 1229 444 1221 c 1,6,7
 437 1191 437 1191 437 1084 c 2,8,-1
 438 691 l 1,9,-1
 520 691 l 2,10,11
 634 692 634 692 720 765 c 0,12,13
 805 839 805 839 805 954 c 0,0,1
610 1343 m 0,14,15
 684 1343 684 1343 758 1319 c 0,16,17
 832 1295 832 1295 896 1252 c 0,18,19
 961 1206 961 1206 1001 1134 c 0,20,21
 1041 1060 1041 1060 1042 972 c 0,22,23
 1041 859 1041 859 952 757 c 0,24,25
 875 670 875 670 781 629 c 1,26,27
 906 425 906 425 1087 187 c 0,28,29
 1129 132 1129 132 1174 107 c 0,30,31
 1221 82 1221 82 1295 77 c 0,32,33
 1308 75 1308 75 1315 64 c 0,34,35
 1325 45 1325 45 1321 17 c 0,36,37
 1318 -8 1318 -8 1313 -17 c 0,38,39
 1305 -30 1305 -30 1291 -31 c 0,40,41
 1092 -31 1092 -31 1019 -6 c 0,42,43
 950 19 950 19 912 53 c 0,44,45
 893 70 893 70 877 91 c 0,46,47
 849 128 849 128 748 279 c 0,48,49
 645 432 645 432 558 566 c 0,50,51
 548 578 548 578 519 579 c 2,52,-1
 438 579 l 1,53,-1
 438 232 l 2,54,55
 438 129 438 129 446 96 c 1,56,57
 458 91 458 91 483 86 c 0,58,59
 533 77 533 77 561 77 c 0,60,61
 573 76 573 76 581 67 c 0,62,63
 592 52 592 52 592 24 c 0,64,65
 592 -7 592 -7 580 -22 c 0,66,67
 571 -31 571 -31 560 -31 c 0,68,69
 356 -21 356 -21 327 -21 c 0,70,71
 295 -21 295 -21 92 -31 c 0,72,73
 80 -31 80 -31 72 -22 c 0,74,75
 64 -13 64 -13 61.5 -2 c 128,-1,76
 59 9 59 9 60 24 c 0,77,78
 61 53 61 53 71 67 c 0,79,80
 79 76 79 76 91 77 c 0,81,82
 120 77 120 77 169 86 c 0,83,84
 195 91 195 91 206 96 c 1,85,86
 212 127 212 127 214 232 c 2,87,-1
 213 1086 l 2,88,89
 213 1189 213 1189 205 1222 c 1,90,91
 193 1227 193 1227 168 1232 c 0,92,93
 118 1241 118 1241 90 1241 c 0,94,95
 78 1242 78 1242 70 1251 c 0,96,97
 59 1266 59 1266 59 1294 c 0,98,99
 59 1325 59 1325 71 1340 c 0,100,101
 80 1349 80 1349 91 1349 c 0,102,103
 295 1339 295 1339 326 1339 c 0,104,105
 361 1339 361 1339 452 1341 c 0,106,107
 546 1343 546 1343 610 1343 c 0,14,15
EndSplineSet
Validated: 1
EndChar

StartChar: S
Encoding: 54 83 54
Width: 1004
GlyphClass: 2
Flags: W
LayerCount: 4
Fore
SplineSet
522 1357 m 0,0,1
 568 1357 568 1357 608 1352 c 0,2,3
 648 1347 648 1347 674 1340 c 0,4,5
 700 1333 700 1333 746 1321 c 0,6,7
 793 1309 793 1309 829 1300 c 0,8,9
 845 1295 845 1295 849 1280 c 0,10,11
 862 1191 862 1191 877 994 c 0,12,13
 879 967 879 967 848 954 c 0,14,15
 828 946 828 946 810 945 c 0,16,17
 786 946 786 946 770 960 c 0,18,19
 764 967 764 967 763 975 c 0,20,21
 759 1004 759 1004 747 1038 c 0,22,23
 734 1073 734 1073 712 1109 c 0,24,25
 688 1146 688 1146 659 1175 c 0,26,27
 630 1203 630 1203 591 1221 c 0,28,29
 551 1239 551 1239 508 1239 c 0,30,31
 455 1239 455 1239 416 1221 c 0,32,33
 378 1203 378 1203 357 1175 c 0,34,35
 335 1144 335 1144 325 1111 c 0,36,37
 315 1077 315 1077 315 1042 c 0,38,39
 315 1016 315 1016 321 992 c 0,40,41
 328 967 328 967 337 949 c 0,42,43
 347 931 347 931 363 912 c 0,44,45
 382 891 382 891 397 877 c 0,46,47
 413 863 413 863 438 845 c 0,48,49
 466 826 466 826 483 815 c 0,50,51
 502 803 502 803 533 784 c 0,52,53
 565 765 565 765 583 753 c 0,54,55
 600 742 600 742 635 721 c 0,56,57
 671 699 671 699 694 685 c 0,58,59
 718 670 718 670 752 646 c 0,60,61
 788 620 788 620 811 600 c 0,62,63
 835 579 835 579 860 550 c 0,64,65
 888 519 888 519 905 490 c 0,66,67
 921 460 921 460 932 423 c 0,68,69
 943 385 943 385 943 346 c 0,70,71
 943 260 943 260 905 185 c 0,72,73
 867 110 867 110 805 61 c 0,74,75
 742 11 742 11 664 -17 c 0,76,77
 584 -45 584 -45 500 -45 c 0,78,79
 451 -45 451 -45 395.5 -38 c 128,-1,80
 340 -31 340 -31 303 -24 c 0,81,82
 266 -17 266 -17 211 -3 c 0,83,84
 156 10 156 10 135 13 c 0,85,86
 119 17 119 17 115 33 c 0,87,88
 99 114 99 114 86 217 c 0,89,90
 73 322 73 322 73 348 c 0,91,92
 74 358 74 358 80 366 c 0,93,94
 112 397 112 397 150 397 c 0,95,96
 167 396 167 396 179 388 c 0,97,98
 192 377 192 377 197 358 c 0,99,100
 203 331 203 331 213 301 c 0,101,102
 224 270 224 270 249 226 c 0,103,104
 274 183 274 183 305 151 c 0,105,106
 337 119 337 119 389 96 c 0,107,108
 442 73 442 73 504 73 c 0,109,110
 596 74 596 74 658 132 c 0,111,112
 719 191 719 191 719 292 c 0,113,114
 719 320 719 320 714 344 c 0,115,116
 708 368 708 368 700 385 c 0,117,118
 691 402 691 402 677 419 c 0,119,120
 660 438 660 438 647 449 c 0,121,122
 632 461 632 461 609 477 c 0,123,124
 584 493 584 493 566 503 c 0,125,126
 547 514 547 514 517 530 c 0,127,128
 485 547 485 547 465 558 c 0,129,130
 423 583 423 583 412 590 c 0,131,132
 399 598 399 598 360 622 c 0,133,134
 319 648 319 648 303 660 c 128,-1,135
 287 672 287 672 255 697 c 0,136,137
 219 725 219 725 203 745 c 0,138,139
 188 763 188 763 167 791 c 0,140,141
 143 822 143 822 132 850 c 0,142,143
 122 877 122 877 114 909 c 0,144,145
 105 944 105 944 105 980 c 0,146,147
 106 1090 106 1090 166 1178 c 0,148,149
 227 1265 227 1265 321 1312 c 0,150,151
 416 1357 416 1357 522 1357 c 0,0,1
EndSplineSet
Validated: 1
EndChar

StartChar: T
Encoding: 55 84 55
Width: 1252
GlyphClass: 2
Flags: W
LayerCount: 4
Fore
SplineSet
1016 1347 m 2,0,1
 1037 1347 1037 1347 1072 1356 c 0,2,3
 1108 1365 1108 1365 1124 1374 c 0,4,5
 1143.83333333 1383.63333333 1143.83333333 1383.63333333 1161.09777778 1383.63333333 c 0,6,7
 1174.3 1383.63333333 1174.3 1383.63333333 1186 1378 c 0,8,9
 1197 1371 1197 1371 1199 1359 c 0,10,11
 1223 1151 1223 1151 1250 1017 c 0,12,13
 1252 1004 1252 1004 1244 994 c 0,14,15
 1220 971 1220 971 1187 973 c 128,-1,16
 1154 975 1154 975 1140 994 c 0,17,18
 1137 999 1137 999 1135 1003 c 0,19,20
 1114 1109 1114 1109 1069 1171 c 0,21,22
 1027 1227 1027 1227 968 1227 c 2,23,-1
 739 1227 l 1,24,-1
 739 232 l 2,25,26
 739 129 739 129 747 96 c 1,27,28
 759 91 759 91 784 86 c 0,29,30
 834 77 834 77 862 77 c 0,31,32
 874 76 874 76 882 67 c 0,33,34
 893 52 893 52 893 24 c 0,35,36
 893 -7 893 -7 881 -22 c 0,37,38
 872 -31 872 -31 861 -31 c 0,39,40
 657 -21 657 -21 628 -21 c 0,41,42
 596 -21 596 -21 393 -31 c 0,43,44
 381 -31 381 -31 373 -22 c 0,45,46
 360 -6 360 -6 361 24 c 0,47,48
 362 53 362 53 372 67 c 0,49,50
 380 76 380 76 392 77 c 0,51,52
 421 77 421 77 470 86 c 0,53,54
 496 91 496 91 507 96 c 1,55,56
 515 131 515 131 515 232 c 2,57,-1
 515 1227 l 1,58,-1
 282 1227 l 2,59,60
 222 1226 222 1226 181 1171 c 0,61,62
 135 1108 135 1108 115 1003 c 0,63,64
 114 998 114 998 110 994 c 0,65,66
 95 974 95 974 63 973 c 0,67,68
 30 971 30 971 6 994 c 0,69,70
 -3 1004 -3 1004 -0 1017 c 0,71,72
 28 1152 28 1152 51 1359 c 0,73,74
 54 1373 54 1373 65 1379 c 0,75,76
 75.8387096774 1383.64516129 75.8387096774 1383.64516129 88.4755463059 1383.64516129 c 0,77,78
 108.483870968 1383.64516129 108.483870968 1383.64516129 133 1372 c 0,79,80
 151 1363 151 1363 182 1355 c 0,81,82
 214 1347 214 1347 234 1347 c 2,83,-1
 1016 1347 l 2,0,1
EndSplineSet
Validated: 1
EndChar

StartChar: U
Encoding: 56 85 56
Width: 1446
GlyphClass: 2
Flags: W
LayerCount: 4
Fore
SplineSet
295 1339 m 128,-1,1
 325 1339 325 1339 528 1349 c 0,2,3
 540 1349 540 1349 548 1340 c 0,4,5
 561 1324 561 1324 560 1294 c 0,6,7
 559 1265 559 1265 549 1251 c 0,8,9
 541 1242 541 1242 529 1241 c 0,10,11
 500 1241 500 1241 451 1232 c 0,12,13
 425 1227 425 1227 414 1222 c 1,14,15
 406 1187 406 1187 406 1086 c 2,16,-1
 406 592 l 2,17,18
 407 355 407 355 498 240 c 0,19,20
 585 134 585 134 753 133 c 0,21,22
 1024 133 1024 133 1092 368 c 0,23,24
 1114 446 1114 446 1116 548 c 2,25,-1
 1116 1090 l 2,26,27
 1116 1150 1116 1150 1113 1176 c 0,28,29
 1110 1197 1110 1197 1100 1214 c 1,30,31
 1088 1222 1088 1222 1054 1231 c 0,32,33
 1003 1243 1003 1243 977 1243 c 0,34,35
 964 1244 964 1244 957 1254 c 0,36,37
 946 1271 946 1271 945 1297 c 0,38,39
 945 1324 945 1324 951 1337 c 0,40,41
 959 1351 959 1351 974 1351 c 0,42,43
 1173 1341 1173 1341 1195 1341 c 0,44,45
 1236 1341 1236 1341 1266 1342 c 0,46,47
 1298 1344 1298 1344 1335 1347 c 0,48,49
 1374 1350 1374 1350 1408 1351 c 0,50,51
 1422 1351 1422 1351 1430 1339 c 0,52,53
 1441.025 1319.575 1441.025 1319.575 1441.025 1298.220625 c 0,54,55
 1441.025 1278.9 1441.025 1278.9 1432 1258 c 0,56,57
 1425 1244 1425 1244 1409 1243 c 0,58,59
 1382 1243 1382 1243 1326 1231 c 0,60,61
 1321 1230 1321 1230 1316.5 1229 c 128,-1,62
 1312 1228 1312 1228 1307.5 1227 c 128,-1,63
 1303 1226 1303 1226 1299.5 1225 c 128,-1,64
 1296 1224 1296 1224 1293 1223 c 128,-1,65
 1290 1222 1290 1222 1287 1221 c 128,-1,66
 1284 1220 1284 1220 1282 1219 c 128,-1,67
 1280 1218 1280 1218 1278.5 1217 c 128,-1,68
 1277 1216 1277 1216 1276 1215.5 c 128,-1,69
 1275 1215 1275 1215 1274 1215 c 0,70,71
 1264 1198 1264 1198 1261 1177 c 0,72,73
 1258 1151 1258 1151 1258 1092 c 2,74,-1
 1258 552 l 2,75,76
 1257 254 1257 254 1113 110 c 0,77,78
 967 -33 967 -33 711 -33 c 0,79,80
 482 -32 482 -32 337 106 c 0,81,82
 183 253 183 253 182 502 c 2,83,-1
 182 1086 l 2,84,85
 182 1189 182 1189 174 1222 c 1,86,87
 162 1227 162 1227 137 1232 c 0,88,89
 87 1241 87 1241 59 1241 c 0,90,91
 47 1242 47 1242 39 1251 c 0,92,93
 28 1266 28 1266 28 1294 c 0,94,95
 28 1325 28 1325 40 1340 c 0,96,97
 49 1349 49 1349 60 1349 c 0,98,0
 265 1339 265 1339 295 1339 c 128,-1,1
EndSplineSet
Validated: 1
EndChar

StartChar: V
Encoding: 57 86 57
Width: 1276
GlyphClass: 2
Flags: W
LayerCount: 4
Fore
SplineSet
219 1339 m 0,0,1
 268 1339 268 1339 466 1349 c 0,2,3
 484 1349 484 1349 491 1332 c 0,4,5
 495 1318 495 1318 494 1290 c 0,6,7
 493 1263 493 1263 490 1257 c 0,8,9
 482 1245 482 1245 467 1241 c 0,10,11
 465 1241 465 1241 463 1241 c 0,12,13
 455 1241 455 1241 441 1239 c 0,14,15
 425 1236 425 1236 404 1230 c 0,16,17
 387 1225 387 1225 376 1215 c 0,18,19
 368 1207 368 1207 368 1200 c 0,20,21
 369 1162 369 1162 401 1073 c 0,22,23
 570 612 570 612 678 325 c 1,24,25
 692 359 692 359 712 409 c 0,26,27
 764 536 764 536 840.5 725.5 c 128,-1,28
 917 915 917 915 972 1055 c 0,29,30
 1006 1143 1006 1143 1006 1186 c 0,31,32
 1005 1198 1005 1198 997 1208 c 0,33,34
 984 1220 984 1220 966 1226 c 0,35,36
 943 1233 943 1233 925 1236 c 0,37,38
 908 1239 908 1239 899 1239 c 0,39,40
 894 1239 894 1239 889 1241 c 0,41,42
 866 1252 866 1252 867 1290 c 0,43,44
 868 1323 868 1323 880 1338 c 0,45,46
 888 1347 888 1347 900 1347 c 0,47,48
 1047 1339 1047 1339 1107 1339 c 0,49,50
 1148 1339 1148 1339 1176 1340 c 0,51,52
 1206 1342 1206 1342 1238 1345 c 0,53,54
 1273 1348 1273 1348 1302 1349 c 0,55,56
 1318 1349 1318 1349 1325 1335 c 0,57,58
 1332 1321 1332 1321 1331 1291 c 0,59,60
 1331 1290 1331 1290 1330.5 1289.5 c 128,-1,61
 1330 1289 1330 1289 1331 1287 c 0,62,63
 1332 1242 1332 1242 1299 1241 c 0,64,65
 1280 1241 1280 1241 1242 1229 c 0,66,67
 1207 1218 1207 1218 1190 1198 c 0,68,69
 1154 1156 1154 1156 1094 1003 c 0,70,71
 926 581 926 581 706 54 c 0,72,73
 671 -28 671 -28 607 -29 c 0,74,75
 589 -28 589 -28 578 -12 c 0,76,77
 573 -4 573 -4 569 8 c 2,78,-1
 565 17 l 2,79,80
 564 18 564 18 564 19 c 0,81,82
 523 124 523 124 397 460 c 0,83,84
 270 797 270 797 184 1019 c 0,85,86
 137 1142 137 1142 94 1206 c 0,87,88
 84 1219 84 1219 50 1229 c 0,89,90
 9 1241 9 1241 -13 1241 c 0,91,92
 -32 1241 -32 1241 -39 1254 c 128,-1,93
 -46 1267 -46 1267 -44 1280 c 2,94,-1
 -41 1294 l 2,95,96
 -41 1298 -41 1298 -42 1304 c 0,97,98
 -43 1329 -43 1329 -31 1342 c 0,99,100
 -23 1349 -23 1349 -12 1349 c 0,101,102
 21 1348 21 1348 65 1345 c 0,103,104
 109 1342 109 1342 144 1340 c 0,105,106
 179 1339 179 1339 219 1339 c 0,0,1
EndSplineSet
Validated: 1
EndChar

StartChar: W
Encoding: 58 87 58
Width: 1800
GlyphClass: 2
Flags: W
LayerCount: 4
Fore
SplineSet
235 1339 m 0,0,1
 274 1339 274 1339 307 1340 c 0,2,3
 341 1342 341 1342 382 1345 c 0,4,5
 424 1348 424 1348 450 1349 c 0,6,7
 468 1348 468 1348 475 1332 c 0,8,9
 479 1318 479 1318 478 1290 c 0,10,11
 477 1263 477 1263 474 1257 c 0,12,13
 466 1245 466 1245 451 1241 c 0,14,15
 449 1241 449 1241 447 1241 c 0,16,17
 439 1241 439 1241 425 1239 c 0,18,19
 409 1236 409 1236 388 1230 c 0,20,21
 371 1225 371 1225 360 1215 c 0,22,23
 353 1207 353 1207 352 1200 c 0,24,25
 353 1182 353 1182 381 1077 c 0,26,27
 406 985 406 985 492 706 c 0,28,29
 554 503 554 503 590 383 c 1,30,31
 640 546 640 546 729 823 c 0,32,33
 841 1176 841 1176 868 1265 c 0,34,35
 879 1299 879 1299 907 1324 c 0,36,37
 938 1349 938 1349 964 1349 c 0,38,39
 990 1349 990 1349 1005 1314 c 0,40,41
 1006 1312 1006 1312 1008 1310 c 0,42,43
 1010 1305 1010 1305 1010.5 1303 c 128,-1,44
 1011 1301 1011 1301 1012 1300 c 0,45,46
 1229 618 1229 618 1304 387 c 1,47,48
 1326 465 1326 465 1353 561 c 0,49,50
 1395 709 1395 709 1427 819 c 0,51,52
 1458 929 1458 929 1491 1054 c 0,53,54
 1514 1147 1514 1147 1514 1188 c 0,55,56
 1513 1200 1513 1200 1504 1209 c 0,57,58
 1490 1222 1490 1222 1472 1228 c 0,59,60
 1449 1235 1449 1235 1431 1238 c 0,61,62
 1413 1241 1413 1241 1403 1241 c 0,63,64
 1398 1241 1398 1241 1393 1243 c 0,65,66
 1370 1254 1370 1254 1371 1292 c 0,67,68
 1372 1325 1372 1325 1384 1340 c 0,69,70
 1392 1349 1392 1349 1404 1349 c 0,71,72
 1588 1339 1588 1339 1619 1339 c 0,73,74
 1660 1339 1660 1339 1687 1340 c 0,75,76
 1715 1342 1715 1342 1746 1345 c 0,77,78
 1779 1348 1779 1348 1808 1349 c 0,79,80
 1824 1349 1824 1349 1831 1335 c 0,81,82
 1838 1321 1838 1321 1837 1291 c 0,83,84
 1837 1290 1837 1290 1836.5 1289.5 c 128,-1,85
 1836 1289 1836 1289 1837 1287 c 0,86,87
 1838 1242 1838 1242 1805 1241 c 0,88,89
 1791 1240 1791 1240 1754 1227 c 0,90,91
 1716 1213 1716 1213 1694 1195 c 0,92,93
 1663 1167 1663 1167 1630 1055 c 0,94,95
 1584 897 1584 897 1493 576 c 0,96,97
 1401 254 1401 254 1343 57 c 0,98,99
 1333 24 1333 24 1304 -2 c 0,100,101
 1272 -29 1272 -29 1243 -29 c 0,102,103
 1222 -28 1222 -28 1210 -4 c 0,104,105
 1203 10 1203 10 1199 21 c 0,106,107
 1171 103 1171 103 1128 232 c 2,108,-1
 1040 496 l 2,109,110
 997 627 997 627 959 743 c 0,111,112
 922 857 922 857 897 934 c 1,113,114
 847 773 847 773 770 537 c 0,115,116
 674 241 674 241 619 57 c 0,117,118
 609 23 609 23 580 -2 c 0,119,120
 548 -29 548 -29 519 -29 c 0,121,122
 498 -28 498 -28 486 -4 c 0,123,124
 479 10 479 10 475 21 c 0,125,126
 408 235 408 235 301 584 c 0,127,128
 194 934 194 934 155 1057 c 2,129,-1
 155 1058 l 2,130,131
 153 1067 153 1067 146 1088 c 0,132,133
 139 1111 139 1111 137 1118 c 0,134,135
 135 1125 135 1125 129 1141 c 0,136,137
 124 1156 124 1156 121 1162 c 0,138,139
 117 1170 117 1170 112 1180 c 0,140,141
 107 1189 107 1189 103 1194 c 0,142,143
 97 1201 97 1201 90 1208 c 0,144,145
 74 1222 74 1222 43 1231 c 0,146,147
 34 1234 34 1234 26.5 1235.5 c 128,-1,148
 19 1237 19 1237 12.5 1238.5 c 128,-1,149
 6 1240 6 1240 0.5 1240.5 c 128,-1,150
 -5 1241 -5 1241 -9 1241 c 0,151,152
 -28 1241 -28 1241 -35 1254 c 128,-1,153
 -42 1267 -42 1267 -40 1280 c 2,154,-1
 -37 1294 l 2,155,156
 -37 1298 -37 1298 -38 1304 c 0,157,158
 -39 1329 -39 1329 -27 1342 c 0,159,160
 -19 1349 -19 1349 -8 1349 c 0,161,162
 222 1339 222 1339 235 1339 c 0,0,1
EndSplineSet
Validated: 1
EndChar

StartChar: X
Encoding: 59 88 59
Width: 1336
GlyphClass: 2
Flags: W
LayerCount: 4
Fore
SplineSet
319 1339 m 0,0,1
 376 1339 376 1339 574 1349 c 0,2,3
 591 1349 591 1349 598 1334 c 0,4,5
 604 1319 604 1319 603 1290 c 0,6,7
 602 1257 602 1257 591 1247 c 0,8,9
 582 1241 582 1241 571 1241 c 0,10,11
 554 1241 554 1241 531 1237 c 0,12,13
 510 1233 510 1233 489 1220 c 0,14,15
 476 1212 476 1212 476 1202 c 0,16,17
 477 1183 477 1183 496 1156 c 2,18,-1
 708 830 l 1,19,20
 736 867 736 867 774 917 c 0,21,22
 829 990 829 990 861 1031 c 0,23,24
 893 1073 893 1073 926 1119 c 0,25,26
 960 1166 960 1166 977 1194 c 0,27,28
 982 1203 982 1203 982 1212 c 1,29,-1
 981 1215 l 2,30,31
 980 1217 980 1217 979 1217 c 0,32,33
 972 1223 972 1223 949 1230 c 0,34,35
 920 1239 920 1239 872 1239 c 0,36,37
 870 1239 870 1239 868 1239 c 0,38,39
 840 1244 840 1244 840 1284 c 0,40,41
 840 1286 840 1286 840 1287 c 0,42,43
 839 1318 839 1318 846 1333 c 0,44,45
 854 1347 854 1347 870 1347 c 0,46,47
 1002 1337 1002 1337 1075 1337 c 0,48,49
 1175 1337 1175 1337 1293 1347 c 0,50,51
 1307 1347 1307 1347 1315 1337 c 0,52,53
 1325 1323 1325 1323 1324 1293 c 0,54,55
 1322 1261 1322 1261 1309 1246 c 0,56,57
 1301 1239 1301 1239 1291 1239 c 0,58,59
 1277 1239 1277 1239 1255 1235 c 0,60,61
 1232 1231 1232 1231 1193 1212 c 0,62,63
 1155 1194 1155 1194 1132 1168 c 0,64,65
 955 958 955 958 776 719 c 1,66,-1
 1160 146 l 2,67,68
 1183 113 1183 113 1230 96 c 0,69,70
 1283 78 1283 78 1335 77 c 0,71,72
 1349 76 1349 76 1357 64 c 0,73,74
 1365 48 1365 48 1364 20 c 0,75,76
 1363 -7 1363 -7 1360 -15 c 0,77,78
 1353 -30 1353 -30 1336 -31 c 0,79,80
 1308 -30 1308 -30 1269 -27 c 0,81,82
 1230 -24 1230 -24 1198 -22 c 0,83,84
 1166 -21 1166 -21 1131 -21 c 0,85,86
 1081 -21 1081 -21 1037 -22 c 0,87,88
 992 -24 992 -24 935 -27 c 0,89,90
 877 -30 877 -30 840 -31 c 0,91,92
 828 -30 828 -30 820 -22 c 0,93,94
 807 -6 807 -6 807 27 c 0,95,96
 807 60 807 60 817 70 c 0,97,98
 826 77 826 77 839 77 c 0,99,100
 863 77 863 77 902 91 c 0,101,102
 923 98 923 98 929 106 c 1,103,104
 927 112 927 112 923 120 c 2,105,-1
 639 558 l 1,106,107
 552 441 552 441 457 309 c 0,108,109
 354 164 354 164 332 122 c 0,110,111
 327 107 327 107 325 100 c 0,112,113
 327 98 327 98 328 97 c 0,114,115
 339 90 339 90 369 84 c 0,116,117
 403 78 403 78 453 77 c 0,118,119
 465 76 465 76 473 67 c 0,120,121
 484 52 484 52 484 22 c 0,122,123
 485 -5 485 -5 482 -13 c 0,124,125
 480 -18 480 -18 477 -21 c 0,126,127
 468 -31 468 -31 456 -31 c 0,128,129
 272 -21 272 -21 231 -21 c 0,130,131
 184 -21 184 -21 -14 -31 c 0,132,133
 -31 -31 -31 -31 -38 -15 c 0,134,135
 -42 -6 -42 -6 -42.5 5.5 c 128,-1,136
 -43 17 -43 17 -42 28 c 0,137,138
 -39 57 -39 57 -31 68 c 0,139,140
 -23 77 -23 77 -11 77 c 0,141,142
 20 77 20 77 88 97 c 0,143,144
 152 116 152 116 183 155 c 0,145,146
 250 241 250 241 313 325 c 0,147,148
 376 409 376 409 450 510 c 0,149,150
 517 601 517 601 565 665 c 1,151,-1
 292 1082 l 2,152,153
 257 1136 257 1136 231 1164 c 0,154,155
 205 1191 205 1191 169 1212 c 0,156,157
 147 1224 147 1224 117 1233 c 0,158,159
 86 1241 86 1241 69 1241 c 0,160,161
 62 1241 62 1241 56.5 1243 c 128,-1,162
 51 1245 51 1245 48 1248 c 128,-1,163
 45 1251 45 1251 42.5 1255.5 c 128,-1,164
 40 1260 40 1260 39 1263.5 c 128,-1,165
 38 1267 38 1267 37.5 1272 c 128,-1,166
 37 1277 37 1277 37 1280 c 128,-1,167
 37 1283 37 1283 37 1287 c 2,168,-1
 37 1291 l 2,169,170
 38 1326 38 1326 50 1340 c 0,171,172
 58 1348 58 1348 70 1349 c 0,173,174
 105 1348 105 1348 153 1345 c 0,175,176
 201 1342 201 1342 238 1340 c 0,177,178
 276 1339 276 1339 319 1339 c 0,0,1
EndSplineSet
Validated: 1
EndChar

StartChar: Y
Encoding: 60 89 60
Width: 1196
GlyphClass: 2
Flags: W
LayerCount: 4
Fore
SplineSet
497 232 m 2,0,-1
 497 534 l 2,1,2
 497 556 497 556 486 578 c 0,3,4
 424 692 424 692 340 840 c 0,5,6
 255 989 255 989 202 1084 c 0,7,8
 172 1135 172 1135 147 1162 c 0,9,10
 120 1189 120 1189 80 1212 c 0,11,12
 58 1224 58 1224 28 1233 c 0,13,14
 -3 1241 -3 1241 -20 1241 c 0,15,16
 -53.0285714286 1241.97142857 -53.0285714286 1241.97142857 -53.0285714286 1288.23918367 c 0,17,18
 -53.0285714286 1324.8244898 -53.0285714286 1324.8244898 -38 1342 c 0,19,20
 -30 1349 -30 1349 -19 1349 c 0,21,22
 16 1348 16 1348 64 1345 c 128,-1,23
 112 1342 112 1342 149 1340 c 0,24,25
 187 1339 187 1339 230 1339 c 0,26,27
 287 1339 287 1339 485 1349 c 0,28,29
 502 1349 502 1349 509 1334 c 0,30,31
 515 1319 515 1319 514 1290 c 0,32,33
 513 1257 513 1257 502 1247 c 0,34,35
 493 1241 493 1241 482 1241 c 0,36,37
 465 1241 465 1241 442 1237 c 0,38,39
 421 1233 421 1233 400 1220 c 0,40,41
 387 1212 387 1212 387 1202 c 0,42,43
 388 1187 388 1187 407 1155 c 2,44,-1
 663 713 l 1,45,46
 723 823 723 823 793 963 c 0,47,48
 876 1129 876 1129 901 1190 c 0,49,50
 905 1200 905 1200 905 1210 c 0,51,52
 903 1213 903 1213 901 1216 c 0,53,54
 894 1222 894 1222 868 1230 c 0,55,56
 837 1239 837 1239 790 1239 c 0,57,58
 782 1239 782 1239 775.5 1241.5 c 128,-1,59
 769 1244 769 1244 766 1248.5 c 128,-1,60
 763 1253 763 1253 761 1258 c 128,-1,61
 759 1263 759 1263 758.5 1268.5 c 128,-1,62
 758 1274 758 1274 758.5 1278.5 c 128,-1,63
 759 1283 759 1283 759.5 1286.5 c 0,64,65
 760 1290 l 0,66,67
 758 1320 758 1320 759 1324 c 0,68,69
 762 1331 762 1331 766 1337 c 0,70,71
 775 1347 775 1347 787 1347 c 0,72,73
 970 1337 970 1337 986 1337 c 0,74,75
 1033 1337 1033 1337 1066 1338 c 0,76,77
 1101 1340 1101 1340 1139 1343 c 0,78,79
 1179 1346 1179 1346 1205 1347 c 0,80,81
 1223 1346 1223 1346 1230 1330 c 0,82,83
 1234 1315 1234 1315 1232 1287 c 1,84,-1
 1233 1286 l 2,85,86
 1233.24324324 1282.35135135 1233.24324324 1282.35135135 1233.24324324 1278.9853908 c 0,87,88
 1233.24324324 1240.83783784 1233.24324324 1240.83783784 1202 1239 c 0,89,90
 1189 1239 1189 1239 1175 1238 c 0,91,92
 1160 1236 1160 1236 1131 1230 c 0,93,94
 1104 1224 1104 1224 1081 1209 c 0,95,96
 1058 1193 1058 1193 1046 1172 c 0,97,98
 985 1066 985 1066 730 590 c 0,99,100
 723 576 723 576 723 540 c 2,101,-1
 721 232 l 2,102,103
 721 130 721 130 729 96 c 1,104,105
 741 91 741 91 766 86 c 0,106,107
 816 77 816 77 844 77 c 0,108,109
 856 76 856 76 864 67 c 0,110,111
 875 52 875 52 875 24 c 0,112,113
 875 -7 875 -7 863 -22 c 0,114,115
 854 -31 854 -31 843 -31 c 0,116,117
 639 -21 639 -21 610 -21 c 0,118,119
 578 -21 578 -21 375 -31 c 0,120,121
 363 -31 363 -31 355 -22 c 0,122,123
 342 -6 342 -6 343 24 c 0,124,125
 344 53 344 53 354 67 c 0,126,127
 362 76 362 76 374 77 c 0,128,129
 403 77 403 77 452 86 c 0,130,131
 478 91 478 91 489 96 c 1,132,133
 497 130 497 130 497 232 c 2,0,-1
EndSplineSet
Validated: 1
EndChar

StartChar: Z
Encoding: 61 90 61
Width: 1266
GlyphClass: 2
Flags: W
LayerCount: 4
Fore
SplineSet
432 1227 m 2,0,1
 342 1226 342 1226 281 1166 c 0,2,3
 217 1101 217 1101 184 983 c 0,4,5
 183 979 183 979 181 977 c 0,6,7
 168 958 168 958 138 957 c 0,8,9
 120 957 120 957 100 964 c 0,10,11
 77 972 77 972 68 980 c 0,12,13
 58 992 58 992 63 1007 c 0,14,15
 109 1133 109 1133 127 1340 c 0,16,17
 129 1358 129 1358 146 1362 c 0,18,19
 151 1363 151 1363 156 1363 c 0,20,21
 266 1347 266 1347 316 1347 c 2,22,-1
 704 1347 l 2,23,24
 844 1347 844 1347 1122 1367 c 0,25,26
 1127 1367 1127 1367 1131 1366 c 0,27,28
 1146 1361 1146 1361 1164 1342 c 0,29,30
 1185 1319 1185 1319 1185 1298 c 0,31,32
 1185 1294 1185 1294 1184 1291 c 0,33,34
 1180 1277 1180 1277 1046 1083 c 0,35,36
 1002 1019 1002 1019 967 970 c 0,37,38
 755 662 755 662 545 360 c 2,39,-1
 362 95 l 1,40,-1
 836 95 l 2,41,42
 942 96 942 96 1004 158 c 0,43,44
 1014 169 1014 169 1022 180 c 0,45,46
 1031 192 1031 192 1038 201 c 0,47,48
 1045 211 1045 211 1053 226 c 0,49,50
 1062 242 1062 242 1066 250 c 0,51,52
 1070 258 1070 258 1077 276 c 0,53,54
 1085 294 1085 294 1087 299 c 0,55,56
 1089 305 1089 305 1097 325 c 0,57,58
 1102 339 1102 339 1104 344 c 0,59,60
 1105 347 1105 347 1106 349 c 0,61,62
 1121 370 1121 370 1156 369 c 0,63,64
 1196 368 1196 368 1222 344 c 0,65,66
 1232 333 1232 333 1228 319 c 0,67,68
 1214 274 1214 274 1196.5 217.5 c 128,-1,69
 1179 161 1179 161 1170 132 c 0,70,71
 1161 103 1161 103 1151 66 c 0,72,73
 1140 29 1140 29 1132 -5 c 0,74,75
 1128 -22 1128 -22 1111 -25 c 0,76,77
 1109 -25 1109 -25 1108 -25 c 2,78,-1
 106 -25 l 2,79,80
 80 -24 80 -24 61 -10 c 0,81,82
 37 8 37 8 45 32 c 0,83,84
 47 38 47 38 49 42 c 2,85,-1
 872 1227 l 1,86,-1
 432 1227 l 2,0,1
EndSplineSet
Validated: 1
EndChar

StartChar: bracketleft
Encoding: 62 91 62
Width: 518
GlyphClass: 2
Flags: W
LayerCount: 4
Fore
SplineSet
196 1461 m 0,0,1
 268 1461 268 1461 344.5 1464 c 128,-1,2
 421 1467 421 1467 460 1470 c 2,3,-1
 500 1473 l 2,4,5
 511 1473 511 1473 520 1466 c 0,6,7
 533 1452 533 1452 533 1430 c 0,8,9
 533 1390 533 1390 500 1376 c 0,10,11
 498 1375 498 1375 496 1374 c 0,12,13
 459 1361 459 1361 400 1350 c 0,14,15
 341 1338 341 1338 299 1333 c 2,16,-1
 279 1330 l 1,17,-1
 279 -170 l 1,18,19
 423 -190 423 -190 496 -214 c 0,20,21
 531 -229 531 -229 533 -270 c 0,22,23
 533 -279 533 -279 530 -287 c 0,24,25
 528 -294 528 -294 526 -297 c 0,26,27
 524 -301 524 -301 522 -304 c 2,28,-1
 520 -306 l 2,29,30
 511 -314 511 -314 500 -313 c 0,31,32
 358 -301 358 -301 196 -301 c 0,33,34
 168 -300 168 -300 151 -280 c 0,35,36
 138 -262 138 -262 135 -248 c 0,37,38
 133 -237 133 -237 133 -230 c 2,39,-1
 133 1390 l 2,40,41
 133 1398 133 1398 135 1408 c 0,42,43
 138 1423 138 1423 151 1440 c 0,44,45
 169 1460 169 1460 196 1461 c 0,0,1
EndSplineSet
Validated: 1
Substitution2: "'smcp' Lowercase to Small Capitals lookup 12 subtable" bracketleft.sc
EndChar

StartChar: backslash
Encoding: 63 92 63
Width: 802
GlyphClass: 2
Flags: W
LayerCount: 4
Fore
SplineSet
40 1512 m 0,0,1
 56 1538 56 1538 102 1539 c 0,2,3
 125 1538 125 1538 148 1526 c 0,4,5
 174 1510 174 1510 182 1490 c 0,6,7
 252 1280 252 1280 322.5 1083 c 128,-1,8
 393 886 393 886 448.5 742.5 c 128,-1,9
 504 599 504 599 555 472 c 128,-1,10
 606 345 606 345 643 259.5 c 128,-1,11
 680 174 680 174 708 110 c 128,-1,12
 736 46 736 46 749.5 11 c 128,-1,13
 763 -24 763 -24 763 -34 c 0,14,15
 763 -38 763 -38 762 -41 c 0,16,17
 756 -58 756 -58 735 -70 c 0,18,19
 715 -80 715 -80 692 -81 c 0,20,21
 673 -80 673 -80 654 -68 c 0,22,23
 634 -54 634 -54 627 -37 c 0,24,25
 121 1280 121 1280 39 1491 c 0,26,27
 35 1502 35 1502 40 1512 c 0,0,1
EndSplineSet
Validated: 1
Substitution2: "'smcp' Lowercase to Small Capitals lookup 12 subtable" backslash.sc
EndChar

StartChar: bracketright
Encoding: 64 93 64
Width: 520
GlyphClass: 2
Flags: W
LayerCount: 4
Fore
SplineSet
324 1461 m 0,0,1
 352 1460 352 1460 369 1440 c 0,2,3
 382 1422 382 1422 385 1408 c 0,4,5
 387 1397 387 1397 387 1390 c 2,6,-1
 387 -230 l 2,7,8
 387 -238 387 -238 385 -248 c 0,9,10
 382 -263 382 -263 369 -280 c 0,11,12
 351 -301 351 -301 324 -301 c 0,13,14
 252 -301 252 -301 175.5 -304 c 128,-1,15
 99 -307 99 -307 60 -310 c 2,16,-1
 20 -313 l 2,17,18
 9 -313 9 -313 0 -306 c 0,19,20
 -13 -292 -13 -292 -13 -270 c 0,21,22
 -13 -230 -13 -230 20 -216 c 0,23,24
 22 -215 22 -215 24 -214 c 0,25,26
 61 -201 61 -201 120 -190 c 0,27,28
 179 -178 179 -178 221 -173 c 2,29,-1
 241 -170 l 1,30,-1
 241 1330 l 1,31,32
 97 1350 97 1350 24 1374 c 0,33,34
 -11 1389 -11 1389 -13 1430 c 0,35,36
 -13 1439 -13 1439 -10 1447 c 0,37,38
 -8 1454 -8 1454 -6 1457 c 0,39,40
 -4 1461 -4 1461 -2 1464 c 2,41,-1
 0 1466 l 2,42,43
 8 1474 8 1474 20 1473 c 0,44,45
 162 1461 162 1461 324 1461 c 0,0,1
EndSplineSet
Validated: 1
Substitution2: "'smcp' Lowercase to Small Capitals lookup 12 subtable" bracketright.sc
EndChar

StartChar: asciicircum
Encoding: 65 94 65
Width: 780
GlyphClass: 2
Flags: W
LayerCount: 4
Fore
SplineSet
372 1315 m 0,0,1
 406 1314 406 1314 426 1275 c 0,2,3
 462 1204 462 1204 494 1148 c 0,4,5
 526 1090 526 1090 572 1014 c 0,6,7
 618 936 618 936 644 891 c 0,8,9
 647 885 647 885 647 878 c 0,10,11
 646 853 646 853 629 836 c 0,12,13
 611 821 611 821 592 821 c 0,14,15
 581 822 581 822 574 829 c 0,16,17
 532 873 532 873 477 937 c 0,18,19
 422 1002 422 1002 386 1045 c 2,20,-1
 372 1064 l 1,21,22
 257 918 257 918 172 829 c 0,23,24
 164 822 164 822 154 821 c 0,25,26
 135 822 135 822 117 836 c 0,27,28
 97 853 97 853 97 878 c 0,29,30
 98 885 98 885 100 891 c 0,31,32
 130 942 130 942 174 1015 c 0,33,34
 218 1089 218 1089 251 1147 c 0,35,36
 284 1206 284 1206 320 1275 c 0,37,38
 341 1314 341 1314 372 1315 c 0,0,1
EndSplineSet
Validated: 1
Substitution2: "'smcp' Lowercase to Small Capitals lookup 12 subtable" asciicircum.sc
EndChar

StartChar: underscore
Encoding: 66 95 66
Width: 1010
GlyphClass: 2
Flags: W
LayerCount: 4
Fore
SplineSet
3 -63 m 0,0,1
 11 10 11 10 22 29 c 0,2,3
 36 50 36 50 58 51 c 2,4,-1
 956 51 l 2,5,6
 979 51 979 51 987 26 c 0,7,8
 989 20 989 20 989 16 c 0,9,10
 989 -6 989 -6 968 -81 c 0,11,12
 967 -83 l 0,13,14
 962 -93 962 -93 957 -100 c 0,15,16
 950 -106 950 -106 945 -108 c 0,17,18
 939 -110 939 -110 934 -111 c 2,19,-1
 42 -111 l 2,20,21
 12 -111 12 -111 4 -78 c 0,22,23
 3 -72 3 -72 3 -66 c 0,24,25
 3 -64 3 -64 3 -63 c 0,0,1
EndSplineSet
Validated: 1
EndChar

StartChar: a
Encoding: 68 97 68
Width: 862
GlyphClass: 2
Flags: W
LayerCount: 4
Fore
SplineSet
482 897 m 0,0,1
 581 896 581 896 654 808 c 0,2,3
 725 720 725 720 725 598 c 2,4,-1
 725 186 l 2,5,6
 725 122 725 122 754 118 c 0,7,8
 758 117 758 117 762 117 c 0,9,10
 769 117 769 117 775 118 c 0,11,12
 781 119 781 119 784 121 c 0,13,14
 789 123 789 123 794 125.5 c 128,-1,15
 799 128 799 128 802 130 c 0,16,17
 805 132 805 132 807 134 c 2,18,-1
 808 135 l 2,19,20
 815 142 815 142 828 143 c 0,21,22
 859 141 859 141 861 102 c 0,23,24
 860 74 860 74 848 51 c 0,25,26
 846 48 846 48 843 46 c 0,27,28
 817 23 817 23 766 -6 c 0,29,30
 711 -36 711 -36 676 -37 c 0,31,32
 622 -36 622 -36 580 12 c 0,33,34
 555 41 555 41 541 74 c 1,35,36
 507 48 507 48 453 15 c 0,37,38
 361 -41 361 -41 308 -41 c 0,39,40
 199 -40 199 -40 124 33 c 0,41,42
 49 108 49 108 49 214 c 0,43,44
 50 279 50 279 85 330 c 0,45,46
 122 381 122 381 165 397 c 0,47,48
 200 410 200 410 286 440 c 0,49,50
 373 470 373 470 431 491 c 0,51,52
 488 512 488 512 514 523 c 0,53,54
 515 523 l 0,55,56
 519 525 519 525 521 527 c 0,57,58
 523 535 523 535 523 550 c 2,59,-1
 523 604 l 2,60,61
 522 666 522 666 478 719 c 0,62,63
 434 770 434 770 376 771 c 0,64,65
 354 771 354 771 340 764 c 0,66,67
 328 758 328 758 321 750 c 0,68,69
 301 723 301 723 291 668 c 0,70,71
 274 571 274 571 200 554 c 0,72,73
 186 551 186 551 172 551 c 0,74,75
 129 552 129 552 103 587 c 0,76,77
 80 620 80 620 79 660 c 0,78,79
 79 672 79 672 84 691 c 0,80,81
 90 712 90 712 98 723 c 0,82,83
 100 725 100 725 101 726 c 0,84,85
 166 787 166 787 271 841 c 0,86,87
 286 849 286 849 299 855 c 0,88,89
 393 897 393 897 482 897 c 0,0,1
374 117 m 0,90,91
 418 118 418 118 474 147 c 0,92,93
 511 167 511 167 523 178 c 1,94,-1
 523 412 l 1,95,96
 398 375 398 375 371 365 c 0,97,98
 320 345 320 345 292 311 c 0,99,100
 266 278 266 278 265 232 c 0,101,102
 266 185 266 185 297 151 c 0,103,104
 330 117 330 117 374 117 c 0,90,91
EndSplineSet
Validated: 1
Substitution2: "'smcp' Lowercase to Small Capitals lookup 12 subtable" a.sc
EndChar

StartChar: b
Encoding: 69 98 69
Width: 996
GlyphClass: 2
Flags: W
LayerCount: 4
Fore
SplineSet
455 733 m 0,0,1
 423 733 423 733 380 716 c 0,2,3
 337 699 337 699 325 686 c 0,4,5
 322 683 322 683 322 682 c 2,6,-1
 322 196 l 2,7,8
 323 148 323 148 369 115 c 0,9,10
 421 79 421 79 483 79 c 0,11,12
 545 80 545 80 599 123 c 0,13,14
 656 170 656 170 690 241 c 0,15,16
 723 314 723 314 724 388 c 0,17,18
 723 552 723 552 650 644 c 0,19,20
 577 733 577 733 455 733 c 0,0,1
423 -39 m 0,21,22
 376 -39 376 -39 269 -8 c 0,23,24
 261 -6 261 -6 247 -2 c 0,25,26
 232 3 232 3 226 4 c 0,27,28
 219 6 219 6 207 8 c 0,29,30
 194 10 194 10 188 10 c 0,31,32
 180 10 180 10 171 9 c 0,33,34
 161 8 161 8 154 5 c 0,35,36
 150 4 150 4 145 3 c 0,37,38
 123 3 123 3 108 31 c 0,39,40
 107 33 107 33 107 34 c 0,41,42
 95 58 95 58 94 72 c 0,43,44
 94 78 94 78 96 82 c 0,45,46
 118 131 118 131 118 220 c 2,47,-1
 118 1116 l 2,48,49
 118 1190 118 1190 110 1210 c 0,50,51
 105 1221 105 1221 60 1228 c 0,52,53
 37 1231 37 1231 11 1231 c 0,54,55
 -26 1231 -26 1231 -17 1263 c 0,56,57
 -16 1267 l 1,58,59
 -17 1281 -17 1281 -16 1295 c 0,60,61
 -15 1320 -15 1320 -4 1328 c 0,62,63
 1 1331 1 1331 7 1332 c 0,64,65
 9 1332 9 1332 10 1333 c 0,66,67
 144 1347 144 1347 287 1411 c 0,68,69
 292 1413 292 1413 297 1413 c 0,70,71
 317 1412 317 1412 332 1392 c 0,72,73
 344 1374 344 1374 344 1356 c 0,74,75
 344 1352 344 1352 343 1348 c 0,76,77
 322 1287 322 1287 322 1182 c 2,78,-1
 322 807 l 1,79,80
 361 832 361 832 415 859 c 0,81,82
 497 900 497 900 551 901 c 0,83,84
 644 901 644 901 720 860 c 0,85,86
 797 819 797 819 845 754 c 0,87,88
 892 689 892 689 917 615 c 0,89,90
 942 540 942 540 942 466 c 0,91,92
 942 363 942 363 903 271 c 0,93,94
 863 178 863 178 795 110 c 0,95,96
 726 42 726 42 629 1 c 0,97,98
 531 -39 531 -39 423 -39 c 0,21,22
EndSplineSet
Validated: 1
Substitution2: "'smcp' Lowercase to Small Capitals lookup 12 subtable" b.sc
EndChar

StartChar: c
Encoding: 70 99 70
Width: 846
GlyphClass: 2
Flags: W
LayerCount: 4
Fore
SplineSet
789 772 m 0,0,1
 788 713 788 713 759 682 c 0,2,3
 728 651 728 651 688 651 c 0,4,5
 660 652 660 652 634 668 c 0,6,7
 612 683 612 683 589 704 c 0,8,9
 568 723 568 723 558 729 c 0,10,11
 526 750 526 750 508 757 c 0,12,13
 490 763 490 763 458 763 c 0,14,15
 384 762 384 762 323 681 c 0,16,17
 259 594 259 594 259 454 c 0,18,19
 260 297 260 297 342 219 c 0,20,21
 426 141 426 141 558 141 c 0,22,23
 623 142 623 142 672 170 c 0,24,25
 723 201 723 201 751 234 c 0,26,27
 759 242 759 242 770 243 c 0,28,29
 785 242 785 242 791 233 c 0,30,31
 799 225 799 225 805 215 c 0,32,33
 811 202 811 202 811 190 c 0,34,35
 810 166 810 166 795 141 c 0,36,37
 777 112 777 112 752 85 c 0,38,39
 726 57 726 57 689 28 c 0,40,41
 649 -3 649 -3 596 -22 c 0,42,43
 541 -41 541 -41 482 -41 c 0,44,45
 358 -40 358 -40 258 21 c 0,46,47
 158 83 158 83 106 180 c 0,48,49
 54 278 54 278 53 388 c 0,50,51
 53 477 53 477 85 559 c 0,52,53
 118 641 118 641 171 702 c 0,54,55
 224 763 224 763 289 808 c 0,56,57
 355 854 355 854 426 877 c 0,58,59
 498 901 498 901 564 901 c 0,60,61
 680 900 680 900 758 849 c 0,62,63
 760 847 760 847 762 846 c 0,64,65
 773 834 773 834 781 812 c 0,66,67
 789 790 789 790 789 772 c 0,0,1
EndSplineSet
Validated: 1
Substitution2: "'smcp' Lowercase to Small Capitals lookup 12 subtable" c.sc
EndChar

StartChar: d
Encoding: 71 100 71
Width: 1030
GlyphClass: 2
Flags: W
LayerCount: 4
Fore
SplineSet
490 767 m 0,0,1
 394 766 394 766 334 678 c 0,2,3
 271 584 271 584 271 460 c 0,4,5
 272 320 272 320 342 225 c 0,6,7
 411 134 411 134 528 133 c 0,8,9
 587 133 587 133 636 157 c 0,10,11
 672 175 672 175 677 188 c 1,12,-1
 677 694 l 2,13,14
 677 710 677 710 640 731 c 0,15,16
 633 735 633 735 626 738 c 0,17,18
 566 767 566 767 490 767 c 0,0,1
554 901 m 0,19,20
 587 901 587 901 634 894 c 0,21,22
 660 890 660 890 677 886 c 1,23,24
 677 892 677 892 677 898 c 2,25,-1
 677 1116 l 2,26,27
 677 1190 677 1190 669 1210 c 0,28,29
 664 1221 664 1221 619 1228 c 0,30,31
 596 1231 596 1231 570 1231 c 0,32,33
 551 1231 551 1231 544.5 1240 c 128,-1,34
 538 1249 538 1249 540 1258 c 2,35,-1
 543 1267 l 1,36,37
 542 1281 542 1281 543 1295 c 0,38,39
 544 1320 544 1320 555 1328 c 0,40,41
 560 1331 560 1331 566 1332 c 0,42,43
 568 1332 568 1332 569 1333 c 0,44,45
 703 1347 703 1347 846 1411 c 0,46,47
 851 1413 851 1413 856 1413 c 0,48,49
 876 1412 876 1412 891 1392 c 0,50,51
 903 1374 903 1374 903 1356 c 0,52,53
 903 1352 903 1352 902 1348 c 0,54,55
 881 1287 881 1287 881 1182 c 2,56,-1
 881 326 l 2,57,58
 881 174 881 174 893 141 c 0,59,60
 897 137 897 137 905 133 c 0,61,62
 921 126 921 126 936 124 c 0,63,64
 955 122 955 122 972 120 c 0,65,66
 975 120 975 120 977.5 120 c 128,-1,67
 980 120 980 120 982 119.5 c 128,-1,68
 984 119 984 119 985.5 119 c 128,-1,69
 987 119 987 119 988 119 c 0,70,-1
 989 119 l 0,71,72
 995 118 995 118 999 116 c 0,73,74
 1020 103 1020 103 1019 70 c 0,75,76
 1019 58 1019 58 1012 42 c 0,77,78
 1000 18 1000 18 981 15 c 0,79,80
 951 13 951 13 915 7 c 0,81,82
 878 1 878 1 847 -6 c 0,83,84
 815 -14 815 -14 788 -22 c 0,85,86
 760 -30 760 -30 743 -35 c 2,87,-1
 725 -40 l 2,88,89
 721 -41 721 -41 718 -41 c 0,90,91
 677 -40 677 -40 677 22 c 2,92,-1
 677 56 l 1,93,94
 643 32 643 32 591 6 c 0,95,96
 499 -40 499 -40 430 -41 c 0,97,98
 278 -40 278 -40 165 92 c 0,99,100
 53 224 53 224 53 412 c 0,101,102
 54 512 54 512 105 606 c 0,103,104
 157 699 157 699 233 762 c 0,105,106
 309 824 309 824 393 862 c 0,107,108
 481 901 481 901 554 901 c 0,19,20
EndSplineSet
Validated: 1
Substitution2: "'smcp' Lowercase to Small Capitals lookup 12 subtable" d.sc
EndChar

StartChar: e
Encoding: 72 101 72
Width: 860
GlyphClass: 2
Flags: W
LayerCount: 4
Fore
SplineSet
247 471 m 1,0,1
 250 316 250 316 330 229 c 0,2,3
 418 137 418 137 548 137 c 0,4,5
 613 138 613 138 666 168 c 0,6,7
 721 201 721 201 749 234 c 0,8,9
 757 242 757 242 768 243 c 0,10,11
 783 242 783 242 789 233 c 0,12,13
 797 225 797 225 803 215 c 0,14,15
 809 202 809 202 809 190 c 0,16,17
 808 166 808 166 793 141 c 0,18,19
 775 112 775 112 750 85 c 0,20,21
 724 57 724 57 687 28 c 0,22,23
 647 -3 647 -3 594 -22 c 0,24,25
 539 -41 539 -41 480 -41 c 0,26,27
 294 -40 294 -40 174 85 c 0,28,29
 55 212 55 212 55 400 c 0,30,31
 55 502 55 502 94 597 c 0,32,33
 133 691 133 691 193 756 c 0,34,35
 254 821 254 821 326 861 c 0,36,37
 402 901 402 901 474 901 c 0,38,39
 547 901 547 901 606 878 c 0,40,41
 666 855 666 855 701 822 c 0,42,43
 736 788 736 788 759 746 c 0,44,45
 781 704 781 704 790 669 c 0,46,47
 799 634 799 634 799 604 c 0,48,49
 799 553 799 553 786 524 c 0,50,51
 768 488 768 488 727 485 c 0,52,53
 684 482 684 482 467 477 c 0,54,55
 303 472 303 472 247 471 c 1,0,1
262 595 m 1,56,-1
 558 595 l 2,57,58
 575 595 575 595 577 605 c 0,59,60
 578 610 578 610 579 617 c 0,61,62
 579 633 579 633 572 659 c 0,63,64
 563 687 563 687 547 716 c 0,65,66
 531 743 531 743 503 761 c 0,67,68
 474 779 474 779 440 779 c 0,69,70
 400 778 400 778 367 759 c 0,71,72
 333 737 333 737 313 708 c 0,73,74
 292 675 292 675 279 643 c 0,75,76
 268 615 268 615 262 595 c 1,56,-1
EndSplineSet
Validated: 1
Substitution2: "'smcp' Lowercase to Small Capitals lookup 12 subtable" e.sc
EndChar

StartChar: f
Encoding: 73 102 73
Width: 616
GlyphClass: 2
Flags: W
LayerCount: 4
Fore
SplineSet
539 1419 m 0,0,1
 586 1419 586 1419 603 1414 c 0,2,3
 621 1408 621 1408 647 1391 c 0,4,5
 649 1389 649 1389 651 1388 c 0,6,7
 662 1376 662 1376 670 1354 c 0,8,9
 678 1332 678 1332 678 1314 c 0,10,11
 678 1283 678 1283 667 1261 c 0,12,13
 654 1236 654 1236 634 1224 c 0,14,15
 616 1215 616 1215 602 1212 c 0,16,17
 587 1209 587 1209 573 1209 c 0,18,19
 548 1210 548 1210 503 1234 c 0,20,21
 476 1249 476 1249 457 1249 c 0,22,23
 422 1248 422 1248 398 1211 c 0,24,25
 372 1169 372 1169 372 1092 c 2,26,-1
 372 863 l 1,27,-1
 583 863 l 2,28,29
 618 862 618 862 618 816 c 0,30,31
 617 773 617 773 583 738 c 0,32,33
 575 731 575 731 565 731 c 2,34,-1
 372 731 l 1,35,-1
 372 232 l 2,36,37
 372 129 372 129 380 95 c 1,38,39
 392 90 392 90 415 86 c 0,40,41
 463 78 463 78 491 77 c 0,42,43
 503 76 503 76 511 67 c 0,44,45
 522 52 522 52 522 24 c 0,46,47
 522 -7 522 -7 510 -22 c 0,48,49
 501 -31 501 -31 490 -31 c 0,50,51
 287 -21 287 -21 269 -21 c 0,52,53
 234 -21 234 -21 203 -22 c 0,54,55
 170 -24 170 -24 129 -27 c 0,56,57
 86 -30 86 -30 58 -31 c 0,58,59
 46 -31 46 -31 38 -22 c 0,60,61
 25 -6 25 -6 26 24 c 0,62,63
 27 53 27 53 37 67 c 0,64,65
 45 76 45 76 57 77 c 0,66,67
 84 77 84 77 128 86 c 0,68,69
 150 90 150 90 160 95 c 1,70,71
 168 129 168 129 168 232 c 2,72,-1
 168 731 l 1,73,-1
 77 731 l 1,74,75
 46 736 46 736 42 774 c 0,76,77
 42 792 42 792 61 811 c 0,78,79
 67 817 67 817 70 821 c 0,80,81
 93 847 93 847 101 856 c 0,82,83
 109 863 109 863 119 863 c 2,84,-1
 168 863 l 1,85,-1
 168 876 l 2,86,87
 168 984 168 984 207 1087 c 0,88,89
 246 1190 246 1190 301 1261 c 0,90,91
 357 1331 357 1331 419 1374 c 0,92,93
 486 1419 486 1419 539 1419 c 0,0,1
EndSplineSet
Validated: 1
Substitution2: "'smcp' Lowercase to Small Capitals lookup 12 subtable" f.sc
EndChar

StartChar: g
Encoding: 74 103 74
Width: 932
GlyphClass: 2
Flags: W
LayerCount: 4
Fore
SplineSet
602 159 m 2,0,1
 730 158 730 158 831 91 c 0,2,3
 936 19 936 19 937 -76 c 0,4,5
 936 -145 936 -145 890 -218 c 0,6,7
 844 -289 844 -289 772 -346 c 0,8,9
 699 -404 699 -404 598 -440 c 0,10,11
 496 -477 496 -477 392 -479 c 2,12,-1
 386 -479 l 2,13,14
 299 -479 299 -479 222 -453 c 0,15,16
 139 -424 139 -424 81 -363 c 0,17,18
 21 -298 21 -298 21 -210 c 0,19,20
 22 -171 22 -171 48 -132 c 0,21,22
 74 -95 74 -95 112 -65 c 0,23,24
 150 -36 150 -36 182 -16 c 0,25,26
 191 -10 191 -10 201 -5 c 1,27,28
 161 17 161 17 127 49 c 0,29,30
 69 106 69 106 69 184 c 0,31,32
 70 193 70 193 75 200 c 0,33,34
 101 230 101 230 159 275 c 0,35,36
 194 301 194 301 220 319 c 1,37,38
 163 360 163 360 125 418 c 0,39,40
 75 495 75 495 75 576 c 0,41,42
 76 708 76 708 182 806 c 0,43,44
 288 903 288 903 438 903 c 0,45,46
 464 903 464 903 488 900 c 0,47,48
 514 897 514 897 538 890 c 0,49,50
 560 883 560 883 570 880 c 0,51,52
 583 876 583 876 607 867 c 2,53,-1
 629 857 l 2,54,55
 650 849 650 849 667 845 c 1,56,-1
 877 875 l 2,57,58
 883 875 883 875 887 874 c 0,59,60
 923 860 923 860 925 830 c 0,61,62
 924 810 924 810 906 775 c 0,63,64
 886 738 886 738 866 726 c 0,65,66
 859 723 859 723 852 723 c 2,67,-1
 756 729 l 1,68,69
 764 712 764 712 772 690 c 0,70,71
 794 631 794 631 795 568 c 0,72,73
 794 447 794 447 687 348 c 0,74,75
 580 250 580 250 432 249 c 0,76,77
 404 249 404 249 367 255 c 0,78,79
 340 260 340 260 323 265 c 1,80,81
 302 251 302 251 287 234 c 0,82,83
 272 217 272 217 271 204 c 0,84,85
 272 196 272 196 292 181 c 0,86,87
 294 180 294 180 294 179 c 0,88,89
 322 159 322 159 366 159 c 2,90,-1
 602 159 l 2,0,1
510 -33 m 0,91,92
 362 -33 362 -33 335 -40 c 1,93,94
 294 -64 294 -64 259 -98 c 0,95,96
 229 -128 229 -128 229 -152 c 0,97,98
 230 -241 230 -241 292 -295 c 0,99,100
 357 -351 357 -351 472 -351 c 0,101,102
 535 -351 535 -351 601 -323 c 0,103,104
 667 -295 667 -295 709 -249 c 0,105,106
 748 -205 748 -205 749 -162 c 0,107,108
 748 -145 748 -145 737 -126 c 0,109,110
 723 -104 723 -104 698 -83 c 0,111,112
 671 -62 671 -62 624 -48 c 0,113,114
 573 -33 573 -33 510 -33 c 0,91,92
430 793 m 0,115,116
 362 792 362 792 322 733 c 0,117,118
 279 668 279 668 279 584 c 0,119,120
 280 493 280 493 327 424 c 0,121,122
 373 359 373 359 446 359 c 0,123,124
 511 360 511 360 549 417 c 0,125,126
 591 481 591 481 591 562 c 0,127,128
 590 657 590 657 545 727 c 0,129,130
 502 792 502 792 430 793 c 0,115,116
EndSplineSet
Validated: 1
Substitution2: "'smcp' Lowercase to Small Capitals lookup 12 subtable" g.sc
EndChar

StartChar: h
Encoding: 75 104 75
Width: 1032
GlyphClass: 2
Flags: W
LayerCount: 4
Fore
SplineSet
615 901 m 0,0,1
 685 901 685 901 734 882 c 0,2,3
 785 862 785 862 817 828 c 0,4,5
 850 792 850 792 868 733 c 0,6,7
 885 676 885 676 892 610 c 0,8,9
 898 544 898 544 898 452 c 2,10,-1
 898 232 l 2,11,12
 898 128 898 128 906 95 c 1,13,14
 917 90 917 90 938 86 c 0,15,16
 982 78 982 78 1009 77 c 0,17,18
 1021 76 1021 76 1029 67 c 0,19,20
 1040 52 1040 52 1040 24 c 0,21,22
 1040 -7 1040 -7 1028 -22 c 0,23,24
 1019 -31 1019 -31 1008 -31 c 0,25,26
 808 -21 808 -21 795 -21 c 0,27,28
 760 -21 760 -21 729 -22 c 0,29,30
 696 -24 696 -24 655 -27 c 0,31,32
 612 -30 612 -30 584 -31 c 0,33,34
 572 -31 572 -31 564 -22 c 0,35,36
 556 -13 556 -13 553.5 -2 c 128,-1,37
 551 9 551 9 552 24 c 0,38,39
 553 53 553 53 563 67 c 0,40,41
 571 76 571 76 583 77 c 0,42,43
 610 77 610 77 654 86 c 0,44,45
 676 90 676 90 686 95 c 1,46,47
 694 129 694 129 694 232 c 2,48,-1
 694 432 l 2,49,50
 694 614 694 614 657 678 c 0,51,52
 622 735 622 735 523 735 c 0,53,54
 494 734 494 734 454 714 c 0,55,56
 417 695 417 695 390 674 c 0,57,58
 385 670 385 670 380 667 c 0,59,60
 364 654 364 654 358 646 c 1,61,-1
 358 232 l 2,62,63
 358 128 358 128 366 95 c 1,64,65
 377 90 377 90 398 86 c 0,66,67
 442 78 442 78 469 77 c 0,68,69
 481 76 481 76 489 67 c 0,70,71
 500 52 500 52 500 24 c 0,72,73
 500 -7 500 -7 488 -22 c 0,74,75
 479 -31 479 -31 468 -31 c 0,76,77
 268 -21 268 -21 255 -21 c 0,78,79
 220 -21 220 -21 189 -22 c 0,80,81
 156 -24 156 -24 115 -27 c 0,82,83
 72 -30 72 -30 44 -31 c 0,84,85
 32 -31 32 -31 24 -22 c 0,86,87
 11 -6 11 -6 12 24 c 0,88,89
 13 53 13 53 23 67 c 0,90,91
 31 76 31 76 43 77 c 0,92,93
 70 77 70 77 114 86 c 0,94,95
 136 90 136 90 146 95 c 1,96,97
 154 129 154 129 154 232 c 2,98,-1
 154 1116 l 2,99,100
 154 1190 154 1190 146 1210 c 0,101,102
 141 1221 141 1221 96 1228 c 0,103,104
 73 1231 73 1231 47 1231 c 0,105,106
 10 1231 10 1231 19 1263 c 0,107,108
 20 1267 l 1,109,110
 19 1281 19 1281 20 1295 c 0,111,112
 21 1320 21 1320 32 1328 c 0,113,114
 37 1331 37 1331 43 1332 c 0,115,116
 45 1332 45 1332 46 1333 c 0,117,118
 180 1347 180 1347 323 1411 c 0,119,120
 328 1413 328 1413 333 1413 c 0,121,122
 353 1412 353 1412 368 1392 c 0,123,124
 380 1374 380 1374 380 1356 c 0,125,126
 380 1352 380 1352 379 1348 c 0,127,128
 358 1287 358 1287 358 1182 c 2,129,-1
 358 777 l 1,130,131
 397 810 397 810 455 846 c 0,132,133
 544 901 544 901 615 901 c 0,0,1
EndSplineSet
Validated: 1
Substitution2: "'smcp' Lowercase to Small Capitals lookup 12 subtable" h.sc
EndChar

StartChar: k
Encoding: 78 107 78
Width: 1036
GlyphClass: 2
Flags: W
LayerCount: 4
Fore
SplineSet
358 232 m 2,0,1
 358 128 358 128 366 95 c 1,2,3
 377 90 377 90 398 86 c 0,4,5
 442 78 442 78 469 77 c 0,6,7
 481 76 481 76 489 67 c 0,8,9
 500 52 500 52 500 24 c 0,10,11
 500 -7 500 -7 488 -22 c 0,12,13
 479 -31 479 -31 468 -31 c 0,14,15
 268 -21 268 -21 255 -21 c 0,16,17
 220 -21 220 -21 189 -22 c 0,18,19
 156 -24 156 -24 115 -27 c 0,20,21
 72 -30 72 -30 44 -31 c 0,22,23
 32 -31 32 -31 24 -22 c 0,24,25
 11 -6 11 -6 12 24 c 0,26,27
 13 53 13 53 23 67 c 0,28,29
 31 76 31 76 43 77 c 0,30,31
 70 77 70 77 114 86 c 0,32,33
 136 90 136 90 146 95 c 1,34,35
 154 129 154 129 154 232 c 2,36,-1
 154 1116 l 2,37,38
 154 1190 154 1190 146 1210 c 0,39,40
 141 1221 141 1221 96 1228 c 0,41,42
 73 1231 73 1231 47 1231 c 0,43,44
 10 1231 10 1231 19 1263 c 0,45,46
 20 1267 l 1,47,48
 19 1281 19 1281 20 1295 c 0,49,50
 21 1320 21 1320 32 1328 c 0,51,52
 37 1331 37 1331 43 1332 c 0,53,54
 45 1332 45 1332 46 1333 c 0,55,56
 180 1347 180 1347 323 1411 c 0,57,58
 328 1413 328 1413 333 1413 c 0,59,60
 353 1412 353 1412 368 1392 c 0,61,62
 380 1374 380 1374 380 1356 c 0,63,64
 380 1352 380 1352 379 1348 c 0,65,66
 358 1287 358 1287 358 1182 c 2,67,-1
 358 513 l 1,68,69
 402 544 402 544 481 611 c 0,70,71
 507 633 507 633 539 660 c 0,72,73
 572 688 572 688 591.5 703.5 c 128,-1,74
 611 719 611 719 629 734 c 0,75,76
 644 747 644 747 652 756 c 1,77,78
 646 758 646 758 642 760 c 0,79,80
 635 762 635 762 627 763 c 0,81,82
 617 764 617 764 611 765 c 0,83,84
 602 766 602 766 593 766 c 2,85,-1
 585 767 l 2,86,87
 571 769 571 769 564 779 c 0,88,89
 553 798 553 798 555 827 c 0,90,91
 559 865 559 865 580 873 c 0,92,93
 586 875 586 875 592 875 c 0,94,95
 688 865 688 865 781 865 c 0,96,97
 883 865 883 865 954 875 c 0,98,99
 969 876 969 876 978 864 c 0,100,101
 988 848 988 848 987 819 c 0,102,103
 986 788 986 788 976 776 c 0,104,105
 968 768 968 768 957 767 c 0,106,107
 932 767 932 767 887 755 c 0,108,109
 842 743 842 743 818 726 c 0,110,111
 619 581 619 581 515 496 c 1,112,113
 568 438 568 438 641 356 c 0,114,115
 727 259 727 259 782 200 c 0,116,117
 835 143 835 143 855 125 c 0,118,119
 888 100 888 100 932 88 c 0,120,121
 974 77 974 77 1011 77 c 2,122,-1
 1023 77 l 2,123,124
 1037 76 1037 76 1044 65 c 0,125,126
 1050 54 1050 54 1052 32 c 0,127,128
 1054 7 1054 7 1047 -7 c 0,129,130
 1042 -15 1042 -15 1035 -19 c 0,131,132
 1001 -33 1001 -33 895 -33 c 0,133,134
 810 -33 810 -33 736 -2 c 0,135,136
 662 29 662 29 631 63 c 0,137,138
 469 238 469 238 358 359 c 1,139,-1
 358 232 l 2,0,1
EndSplineSet
Validated: 1
Substitution2: "'smcp' Lowercase to Small Capitals lookup 12 subtable" k.sc
EndChar

StartChar: l
Encoding: 79 108 79
Width: 510
GlyphClass: 2
Flags: W
LayerCount: 4
Fore
SplineSet
154 1116 m 2,0,1
 154 1190 154 1190 146 1210 c 0,2,3
 141 1221 141 1221 96 1228 c 0,4,5
 73 1231 73 1231 47 1231 c 0,6,7
 10 1231 10 1231 19 1263 c 0,8,9
 20 1267 l 1,10,11
 19 1281 19 1281 20 1295 c 0,12,13
 21 1320 21 1320 32 1328 c 0,14,15
 37 1331 37 1331 43 1332 c 0,16,17
 45 1332 45 1332 46 1333 c 0,18,19
 180 1347 180 1347 323 1411 c 0,20,21
 328 1413 328 1413 333 1413 c 0,22,23
 353 1412 353 1412 368 1392 c 0,24,25
 380 1374 380 1374 380 1356 c 0,26,27
 380 1352 380 1352 379 1348 c 0,28,29
 358 1287 358 1287 358 1182 c 2,30,-1
 358 232 l 2,31,32
 358 128 358 128 366 95 c 1,33,34
 377 90 377 90 398 86 c 0,35,36
 442 78 442 78 469 77 c 0,37,38
 481 76 481 76 489 67 c 0,39,40
 500 52 500 52 500 24 c 0,41,42
 500 -7 500 -7 488 -22 c 0,43,44
 479 -31 479 -31 468 -31 c 0,45,46
 268 -21 268 -21 255 -21 c 0,47,48
 220 -21 220 -21 189 -22 c 0,49,50
 156 -24 156 -24 115 -27 c 0,51,52
 72 -30 72 -30 44 -31 c 0,53,54
 32 -31 32 -31 24 -22 c 0,55,56
 11 -6 11 -6 12 24 c 0,57,58
 13 53 13 53 23 67 c 0,59,60
 31 76 31 76 43 77 c 0,61,62
 70 77 70 77 114 86 c 0,63,64
 136 90 136 90 146 95 c 1,65,66
 154 129 154 129 154 232 c 2,67,-1
 154 1116 l 2,0,1
EndSplineSet
Validated: 1
Substitution2: "'smcp' Lowercase to Small Capitals lookup 12 subtable" l.sc
EndChar

StartChar: m
Encoding: 80 109 80
Width: 1580
GlyphClass: 2
Flags: W
LayerCount: 4
Fore
SplineSet
639 901 m 0,0,1
 738 900 738 900 801 858 c 0,2,3
 852 822 852 822 879 754 c 1,4,5
 1050 900 1050 900 1161 901 c 0,6,7
 1231 901 1231 901 1280 882 c 0,8,9
 1331 862 1331 862 1363 828 c 0,10,11
 1396 792 1396 792 1414 733 c 0,12,13
 1431 676 1431 676 1438 610 c 0,14,15
 1444 544 1444 544 1444 452 c 2,16,-1
 1444 232 l 2,17,18
 1444 128 1444 128 1452 95 c 1,19,20
 1463 90 1463 90 1484 86 c 0,21,22
 1528 78 1528 78 1555 77 c 0,23,24
 1567 76 1567 76 1575 67 c 0,25,26
 1586 52 1586 52 1586 24 c 0,27,28
 1586 -7 1586 -7 1574 -22 c 0,29,30
 1565 -31 1565 -31 1554 -31 c 0,31,32
 1354 -21 1354 -21 1341 -21 c 0,33,34
 1306 -21 1306 -21 1275 -22 c 0,35,36
 1242 -24 1242 -24 1201 -27 c 0,37,38
 1158 -30 1158 -30 1130 -31 c 0,39,40
 1118 -31 1118 -31 1110 -22 c 0,41,42
 1097 -6 1097 -6 1098 24 c 0,43,44
 1099 53 1099 53 1109 67 c 0,45,46
 1117 76 1117 76 1129 77 c 0,47,48
 1156 77 1156 77 1200 86 c 0,49,50
 1222 90 1222 90 1232 95 c 1,51,52
 1240 129 1240 129 1240 232 c 2,53,-1
 1240 446 l 2,54,55
 1240 509 1240 509 1236 553 c 0,56,57
 1232 596 1232 596 1221 635 c 0,58,59
 1211 671 1211 671 1194 691 c 0,60,61
 1176 711 1176 711 1149 723 c 0,62,63
 1119 735 1119 735 1077 735 c 0,64,65
 1039 734 1039 734 996 712 c 0,66,67
 958 691 958 691 934 671 c 0,68,69
 929 667 929 667 926 663 c 0,70,71
 913 650 913 650 906 642 c 0,72,73
 906 638 906 638 907 636 c 0,74,75
 908 627 908 627 908 622 c 0,76,77
 916 568 916 568 916 478 c 2,78,-1
 916 232 l 2,79,80
 916 128 916 128 924 95 c 1,81,82
 935 90 935 90 956 86 c 0,83,84
 1000 78 1000 78 1027 77 c 0,85,86
 1039 76 1039 76 1047 67 c 0,87,88
 1058 52 1058 52 1058 24 c 0,89,90
 1058 -7 1058 -7 1046 -22 c 0,91,92
 1037 -31 1037 -31 1026 -31 c 0,93,94
 826 -21 826 -21 813 -21 c 0,95,96
 778 -21 778 -21 747 -22 c 0,97,98
 714 -24 714 -24 673 -27 c 0,99,100
 630 -30 630 -30 602 -31 c 0,101,102
 590 -31 590 -31 582 -22 c 0,103,104
 574 -13 574 -13 571.5 -2 c 128,-1,105
 569 9 569 9 570 24 c 0,106,107
 571 53 571 53 581 67 c 0,108,109
 589 76 589 76 601 77 c 0,110,111
 628 77 628 77 672 86 c 0,112,113
 694 90 694 90 704 95 c 1,114,115
 712 129 712 129 712 232 c 2,116,-1
 712 436 l 2,117,118
 712 613 712 613 675 678 c 0,119,120
 641 735 641 735 549 735 c 0,121,122
 495 734 495 734 440 696 c 0,123,124
 432 690 432 690 425 686 c 0,125,126
 394 663 394 663 388 649 c 1,127,-1
 388 232 l 2,128,129
 388 128 388 128 396 95 c 1,130,131
 407 90 407 90 428 86 c 0,132,133
 472 78 472 78 499 77 c 0,134,135
 511 76 511 76 519 67 c 0,136,137
 530 52 530 52 530 24 c 0,138,139
 530 -7 530 -7 518 -22 c 0,140,141
 509 -31 509 -31 498 -31 c 0,142,143
 298 -21 298 -21 285 -21 c 0,144,145
 250 -21 250 -21 219 -22 c 0,146,147
 186 -24 186 -24 145 -27 c 0,148,149
 102 -30 102 -30 74 -31 c 0,150,151
 62 -31 62 -31 54 -22 c 0,152,153
 41 -6 41 -6 42 24 c 0,154,155
 43 53 43 53 53 67 c 0,156,157
 61 76 61 76 73 77 c 0,158,159
 100 77 100 77 144 86 c 0,160,161
 166 90 166 90 176 95 c 1,162,163
 184 129 184 129 184 232 c 2,164,-1
 184 596 l 2,165,166
 184 677 184 677 176 698 c 1,167,168
 170 703 170 703 154 708 c 0,169,170
 124 716 124 716 106 718 c 0,171,172
 85 719 85 719 69 719 c 0,173,174
 59 720 59 720 51 726 c 0,175,176
 39 738 39 738 40 764 c 0,177,178
 40 766 40 766 40 767 c 0,179,180
 40 795 40 795 48 809 c 0,181,182
 55 818 55 818 66 821 c 0,183,184
 233 844 233 844 343 902 c 0,185,186
 349 905 349 905 355 905 c 0,187,188
 376 904 376 904 391 881 c 0,189,190
 402 862 402 862 402 848 c 0,191,192
 402 846 402 846 402 844 c 0,193,194
 397 811 397 811 394 788 c 1,195,196
 466 845 466 845 516 869 c 0,197,198
 582 901 582 901 639 901 c 0,0,1
EndSplineSet
Validated: 1
Substitution2: "'smcp' Lowercase to Small Capitals lookup 12 subtable" m.sc
EndChar

StartChar: n
Encoding: 81 110 81
Width: 1064
GlyphClass: 2
Flags: W
LayerCount: 4
Fore
SplineSet
645 901 m 0,0,1
 715 901 715 901 764 882 c 0,2,3
 815 862 815 862 847 828 c 0,4,5
 880 792 880 792 898 733 c 0,6,7
 915 676 915 676 922 610 c 0,8,9
 928 544 928 544 928 452 c 2,10,-1
 928 232 l 2,11,12
 928 128 928 128 936 95 c 1,13,14
 947 90 947 90 968 86 c 0,15,16
 1012 78 1012 78 1039 77 c 0,17,18
 1051 76 1051 76 1059 67 c 0,19,20
 1070 52 1070 52 1070 24 c 0,21,22
 1070 -7 1070 -7 1058 -22 c 0,23,24
 1049 -31 1049 -31 1038 -31 c 0,25,26
 838 -21 838 -21 825 -21 c 0,27,28
 790 -21 790 -21 759 -22 c 0,29,30
 726 -24 726 -24 685 -27 c 0,31,32
 642 -30 642 -30 614 -31 c 0,33,34
 602 -31 602 -31 594 -22 c 0,35,36
 586 -13 586 -13 583.5 -2 c 128,-1,37
 581 9 581 9 582 24 c 0,38,39
 583 53 583 53 593 67 c 0,40,41
 601 76 601 76 613 77 c 0,42,43
 640 77 640 77 684 86 c 0,44,45
 706 90 706 90 716 95 c 1,46,47
 724 129 724 129 724 232 c 2,48,-1
 724 432 l 2,49,50
 724 614 724 614 687 678 c 0,51,52
 652 735 652 735 553 735 c 0,53,54
 524 734 524 734 484 714 c 0,55,56
 447 695 447 695 420 674 c 0,57,58
 415 670 415 670 410 667 c 0,59,60
 394 654 394 654 388 646 c 1,61,-1
 388 232 l 2,62,63
 388 128 388 128 396 95 c 1,64,65
 407 90 407 90 428 86 c 0,66,67
 472 78 472 78 499 77 c 0,68,69
 511 76 511 76 519 67 c 0,70,71
 530 52 530 52 530 24 c 0,72,73
 530 -7 530 -7 518 -22 c 0,74,75
 509 -31 509 -31 498 -31 c 0,76,77
 298 -21 298 -21 285 -21 c 0,78,79
 250 -21 250 -21 219 -22 c 0,80,81
 186 -24 186 -24 145 -27 c 0,82,83
 102 -30 102 -30 74 -31 c 0,84,85
 62 -31 62 -31 54 -22 c 0,86,87
 41 -6 41 -6 42 24 c 0,88,89
 43 53 43 53 53 67 c 0,90,91
 61 76 61 76 73 77 c 0,92,93
 100 77 100 77 144 86 c 0,94,95
 166 90 166 90 176 95 c 1,96,97
 184 129 184 129 184 232 c 2,98,-1
 184 596 l 2,99,100
 184 677 184 677 176 698 c 1,101,102
 170 703 170 703 154 708 c 0,103,104
 124 716 124 716 106 718 c 0,105,106
 85 719 85 719 69 719 c 0,107,108
 59 720 59 720 51 726 c 0,109,110
 39 738 39 738 40 764 c 0,111,112
 40 766 40 766 40 767 c 0,113,114
 40 795 40 795 48 809 c 0,115,116
 55 818 55 818 66 821 c 0,117,118
 233 844 233 844 343 902 c 0,119,120
 349 905 349 905 355 905 c 0,121,122
 376 904 376 904 391 881 c 0,123,124
 402 862 402 862 402 848 c 0,125,126
 402 846 402 846 402 844 c 0,127,128
 397 808 397 808 394 782 c 1,129,130
 432 813 432 813 485 846 c 0,131,132
 574 901 574 901 645 901 c 0,0,1
EndSplineSet
Validated: 1
Substitution2: "'smcp' Lowercase to Small Capitals lookup 12 subtable" n.sc
EndChar

StartChar: o
Encoding: 82 111 82
Width: 1018
GlyphClass: 2
Flags: W
LayerCount: 4
Fore
SplineSet
508 903 m 0,0,1
 714 902 714 902 838 773 c 0,2,3
 961 642 961 642 961 442 c 0,4,5
 960 238 960 238 833 100 c 0,6,7
 703 -39 703 -39 512 -39 c 0,8,9
 306 -38 306 -38 181 93 c 0,10,11
 57 225 57 225 57 426 c 0,12,13
 58 629 58 629 186 766 c 0,14,15
 316 903 316 903 508 903 c 0,0,1
486 787 m 0,16,17
 415 786 415 786 368 742 c 0,18,19
 319 694 319 694 300 626 c 0,20,21
 280 554 280 554 279 466 c 0,22,23
 279 369 279 369 309 280 c 0,24,25
 339 193 339 193 399 134 c 0,26,27
 457 78 457 78 532 77 c 0,28,29
 603 78 603 78 650 122 c 0,30,31
 699 170 699 170 718 237 c 0,32,33
 738 309 738 309 739 396 c 0,34,35
 739 492 739 492 709 582 c 0,36,37
 679 670 679 670 618 730 c 0,38,39
 560 787 560 787 486 787 c 0,16,17
EndSplineSet
Validated: 1
Substitution2: "'smcp' Lowercase to Small Capitals lookup 12 subtable" o.sc
EndChar

StartChar: p
Encoding: 83 112 83
Width: 1020
GlyphClass: 2
Flags: W
LayerCount: 4
Fore
SplineSet
495 733 m 0,0,1
 442 733 442 733 393 708 c 0,2,3
 359 691 359 691 352 679 c 1,4,-1
 352 200 l 2,5,6
 353 144 353 144 401 113 c 0,7,8
 456 79 456 79 513 79 c 0,9,10
 583 80 583 80 638 124 c 0,11,12
 695 172 695 172 722 241 c 0,13,14
 750 313 750 313 750 390 c 0,15,16
 749 553 749 553 675 644 c 0,17,18
 601 733 601 733 495 733 c 0,0,1
581 901 m 0,19,20
 676 901 676 901 753 858 c 0,21,22
 830 815 830 815 876 748 c 0,23,24
 921 681 921 681 944 609 c 0,25,26
 968 535 968 535 968 464 c 0,27,28
 968 364 968 364 924 270 c 0,29,30
 880 176 880 176 811 109 c 0,31,32
 741 41 741 41 654 0 c 0,33,34
 564 -41 564 -41 475 -41 c 0,35,36
 413 -41 413 -41 352 -25 c 1,37,-1
 352 -214 l 2,38,39
 352 -318 352 -318 360 -351 c 1,40,41
 371 -356 371 -356 392 -360 c 0,42,43
 436 -368 436 -368 463 -369 c 0,44,45
 475 -370 475 -370 483 -379 c 0,46,47
 494 -394 494 -394 494 -422 c 0,48,49
 494 -453 494 -453 482 -468 c 0,50,51
 473 -477 473 -477 462 -477 c 0,52,53
 262 -467 262 -467 249 -467 c 0,54,55
 214 -467 214 -467 183 -468 c 0,56,57
 150 -470 150 -470 109 -473 c 0,58,59
 66 -476 66 -476 38 -477 c 0,60,61
 26 -477 26 -477 18 -468 c 0,62,63
 5 -452 5 -452 6 -422 c 0,64,65
 7 -393 7 -393 17 -379 c 0,66,67
 25 -370 25 -370 37 -369 c 0,68,69
 64 -369 64 -369 108 -360 c 0,70,71
 130 -356 130 -356 140 -351 c 1,72,73
 146 -320 146 -320 148 -214 c 2,74,-1
 148 604 l 2,75,76
 148 677 148 677 140 698 c 1,77,78
 134 703 134 703 118 708 c 0,79,80
 88 716 88 716 70 718 c 0,81,82
 49 719 49 719 33 719 c 0,83,84
 23 720 23 720 15 726 c 0,85,86
 3 738 3 738 4 764 c 0,87,88
 4 766 4 766 4 767 c 0,89,90
 4 795 4 795 12 809 c 0,91,92
 19 818 19 818 30 821 c 0,93,94
 197 844 197 844 307 902 c 0,95,96
 313 905 313 905 319 905 c 0,97,98
 340 904 340 904 355 881 c 0,99,100
 366 862 366 862 366 848 c 0,101,102
 366 842 366 842 359 811 c 1,103,104
 397 837 397 837 444 861 c 0,105,106
 521 901 521 901 581 901 c 0,19,20
EndSplineSet
Validated: 1
Substitution2: "'smcp' Lowercase to Small Capitals lookup 12 subtable" p.sc
EndChar

StartChar: q
Encoding: 84 113 84
Width: 994
GlyphClass: 2
Flags: W
LayerCount: 4
Fore
SplineSet
572 901 m 0,0,1
 606 901 606 901 695 875 c 0,2,3
 779 851 779 851 810 851 c 0,4,5
 828 851 828 851 842 856 c 0,6,7
 846 857 846 857 850 857 c 0,8,9
 874 856 874 856 889 826 c 0,10,11
 900 803 900 803 901 788 c 0,12,13
 901 782 901 782 899 778 c 0,14,15
 877 729 877 729 877 640 c 2,16,-1
 877 -216 l 2,17,18
 877 -320 877 -320 885 -353 c 1,19,20
 896 -358 896 -358 917 -362 c 0,21,22
 961 -370 961 -370 988 -371 c 0,23,24
 1000 -372 1000 -372 1008 -381 c 0,25,26
 1019 -396 1019 -396 1019 -424 c 0,27,28
 1019 -455 1019 -455 1007 -470 c 0,29,30
 998 -479 998 -479 987 -479 c 0,31,32
 787 -469 787 -469 774 -469 c 0,33,34
 739 -469 739 -469 708 -470 c 0,35,36
 675 -472 675 -472 634 -475 c 0,37,38
 591 -478 591 -478 563 -479 c 0,39,40
 551 -479 551 -479 543 -470 c 0,41,42
 530 -454 530 -454 531 -424 c 0,43,44
 532 -395 532 -395 542 -381 c 0,45,46
 550 -372 550 -372 562 -371 c 0,47,48
 589 -371 589 -371 633 -362 c 0,49,50
 655 -358 655 -358 665 -353 c 1,51,52
 673 -319 673 -319 673 -216 c 2,53,-1
 673 60 l 1,54,55
 637 35 637 35 581 5 c 0,56,57
 496 -39 496 -39 434 -39 c 0,58,59
 362 -39 362 -39 299 -11 c 0,60,61
 235 17 235 17 191 62 c 0,62,63
 148 107 148 107 116 164 c 0,64,65
 84 221 84 221 68 281 c 0,66,67
 53 341 53 341 53 398 c 0,68,69
 53 482 53 482 85 562 c 0,70,71
 118 642 118 642 172 702 c 0,72,73
 226 761 226 761 291 807 c 0,74,75
 358 853 358 853 431 877 c 0,76,77
 504 901 504 901 572 901 c 0,0,1
512 779 m 0,78,79
 452 778 452 778 405 748 c 0,80,81
 357 716 357 716 330 670 c 0,82,83
 301 619 301 619 286 567 c 128,-1,84
 271 515 271 515 271 470 c 0,85,86
 272 307 272 307 347 218 c 0,87,88
 422 131 422 131 538 131 c 0,89,90
 589 132 589 132 635 156 c 0,91,92
 668 174 668 174 673 186 c 1,93,-1
 673 664 l 2,94,95
 672 712 672 712 626 744 c 0,96,97
 575 779 575 779 512 779 c 0,78,79
EndSplineSet
Validated: 1
Substitution2: "'smcp' Lowercase to Small Capitals lookup 12 subtable" q.sc
EndChar

StartChar: r
Encoding: 85 114 85
Width: 766
GlyphClass: 2
Flags: W
LayerCount: 4
Fore
SplineSet
607 899 m 0,0,1
 652 899 652 899 692 879 c 0,2,3
 733 858 733 858 751 829 c 0,4,5
 752 826 752 826 753 824 c 0,6,7
 762 796 762 796 762 762 c 0,8,9
 761 704 761 704 733 669 c 0,10,11
 702 633 702 633 671 633 c 0,12,13
 652 633 652 633 636 641 c 0,14,15
 622 648 622 648 603 661 c 0,16,17
 601 663 601 663 598.5 664.5 c 128,-1,18
 596 666 596 666 594 667.5 c 128,-1,19
 592 669 592 669 590.5 670 c 128,-1,20
 589 671 589 671 588 672 c 128,-1,21
 587 673 587 673 586 673.5 c 128,-1,22
 585 674 585 674 584 674.5 c 0,23,-1
 583 675 l 0,24,25
 553 694 553 694 523 695 c 0,26,27
 477 694 477 694 434 637 c 0,28,29
 388 575 388 575 388 540 c 2,30,-1
 388 232 l 2,31,32
 388 132 388 132 395 97 c 1,33,34
 410 91 410 91 447 86 c 0,35,36
 512 77 512 77 545 77 c 0,37,38
 557 76 557 76 565 67 c 0,39,40
 576 52 576 52 576 24 c 0,41,42
 576 -7 576 -7 564 -22 c 0,43,44
 555 -31 555 -31 544 -31 c 0,45,46
 340 -21 340 -21 297 -21 c 0,47,48
 277 -21 277 -21 74 -31 c 0,49,50
 62 -31 62 -31 54 -22 c 0,51,52
 41 -6 41 -6 42 24 c 0,53,54
 43 53 43 53 53 67 c 0,55,56
 61 76 61 76 73 77 c 0,57,58
 100 77 100 77 144 86 c 0,59,60
 166 90 166 90 176 95 c 1,61,62
 182 126 182 126 184 232 c 2,63,-1
 184 604 l 2,64,65
 184 677 184 677 176 698 c 1,66,67
 170 703 170 703 154 708 c 0,68,69
 124 716 124 716 106 718 c 0,70,71
 85 719 85 719 69 719 c 0,72,73
 59 720 59 720 51 726 c 0,74,75
 39 738 39 738 40 764 c 0,76,77
 40 766 40 766 40 767 c 0,78,79
 40 795 40 795 48 809 c 0,80,81
 55 818 55 818 66 821 c 0,82,83
 233 844 233 844 343 902 c 0,84,85
 349 905 349 905 355 905 c 0,86,87
 376 904 376 904 391 881 c 0,88,89
 402 862 402 862 402 848 c 0,90,91
 402 846 402 846 402 844 c 0,92,93
 400 832 400 832 394 756 c 0,94,95
 394 753 394 753 393 747 c 1,96,97
 421 786 421 786 457 822 c 0,98,99
 535 898 535 898 607 899 c 0,0,1
EndSplineSet
Validated: 1
Substitution2: "'smcp' Lowercase to Small Capitals lookup 12 subtable" r.sc
EndChar

StartChar: s
Encoding: 86 115 86
Width: 738
GlyphClass: 2
Flags: W
LayerCount: 4
Fore
SplineSet
390 899 m 0,0,1
 438 899 438 899 505 887 c 0,2,3
 570 876 570 876 597 873 c 0,4,5
 614 870 614 870 618 853 c 0,6,7
 638 760 638 760 643 628 c 0,8,9
 641 594 641 594 598 593 c 0,10,11
 567 594 567 594 548 609 c 0,12,13
 542 615 542 615 540 622 c 0,14,15
 523 684 523 684 480 738 c 0,16,17
 441 786 441 786 396 787 c 0,18,19
 337 786 337 786 308 759 c 0,20,21
 280 730 280 730 279 686 c 0,22,23
 279 665 279 665 285 648 c 0,24,25
 292 629 292 629 299 618 c 0,26,27
 307 607 307 607 324 593 c 0,28,29
 345 577 345 577 356 569 c 0,30,31
 368 561 368 561 397 544 c 0,32,33
 427 527 427 527 440 520 c 0,34,35
 451 514 451 514 481 497 c 0,36,37
 513 479 513 479 527 468 c 0,38,39
 543 458 543 458 569 440 c 0,40,41
 599 419 599 419 616 402 c 0,42,43
 631 385 631 385 647 364 c 0,44,45
 666 338 666 338 675 311 c 0,46,47
 683 283 683 283 683 254 c 0,48,49
 682 123 682 123 583 38 c 0,50,51
 484 -46 484 -46 350 -47 c 0,52,53
 307 -47 307 -47 270 -41 c 128,-1,54
 233 -35 233 -35 185 -24 c 0,55,56
 138 -13 138 -13 111 -9 c 0,57,58
 98 -5 98 -5 93 7 c 0,59,60
 80 42 80 42 68 112 c 0,61,62
 57 183 57 183 57 224 c 0,63,64
 58 236 58 236 67 244 c 0,65,66
 90 261 90 261 118 261 c 0,67,68
 138 260 138 260 150 253 c 0,69,70
 157 247 157 247 160 239 c 0,71,72
 179 174 179 174 234 119 c 0,73,74
 288 67 288 67 352 67 c 0,75,76
 405 68 405 68 438 99 c 0,77,78
 470 131 470 131 471 186 c 0,79,80
 471 216 471 216 461 239 c 0,81,82
 450 262 450 262 426 282 c 0,83,84
 398 305 398 305 377 318 c 0,85,86
 354 332 354 332 308 356 c 0,87,88
 261 381 261 381 239 395 c 0,89,90
 165 438 165 438 122 491 c 0,91,92
 76 549 76 549 75 630 c 0,93,94
 76 749 76 749 172 825 c 0,95,96
 266 899 266 899 390 899 c 0,0,1
EndSplineSet
Validated: 1
Substitution2: "'smcp' Lowercase to Small Capitals lookup 12 subtable" s.sc
EndChar

StartChar: t
Encoding: 87 116 87
Width: 622
GlyphClass: 2
Flags: W
LayerCount: 4
Fore
SplineSet
345 889 m 1,0,-1
 578 889 l 2,1,2
 613 888 613 888 613 842 c 0,3,4
 612 799 612 799 578 764 c 0,5,6
 570 757 570 757 560 757 c 2,7,-1
 345 757 l 1,8,-1
 345 258 l 2,9,10
 345 145 345 145 411 124 c 0,11,12
 429 119 429 119 452 119 c 0,13,14
 510 120 510 120 567 160 c 0,15,16
 580 168 580 168 593 162 c 0,17,18
 612 151 612 151 613 126 c 0,19,20
 613 96 613 96 598 79 c 0,21,22
 596 77 596 77 595 76 c 0,23,24
 576 56 576 56 552 34 c 0,25,26
 524 10 524 10 476 -14 c 0,27,28
 424 -39 424 -39 374 -39 c 0,29,30
 329 -39 329 -39 291 -28 c 0,31,32
 251 -16 251 -16 217 9 c 0,33,34
 180 37 180 37 160 87 c 0,35,36
 141 136 141 136 141 202 c 2,37,-1
 141 757 l 1,38,-1
 50 757 l 1,39,40
 19 762 19 762 15 800 c 0,41,42
 15 818 15 818 34 837 c 0,43,44
 40 843 40 843 43 847 c 0,45,46
 66 873 66 873 74 882 c 0,47,48
 82 889 82 889 92 889 c 2,49,-1
 141 889 l 1,50,-1
 141 990 l 2,51,52
 142 999 142 999 147 1006 c 0,53,54
 164 1026 164 1026 194 1058 c 0,55,56
 224 1090 224 1090 246 1114.5 c 128,-1,57
 268 1139 268 1139 270 1142 c 0,58,59
 280 1152 280 1152 294 1155 c 0,60,61
 308 1158 308 1158 320 1156 c 0,62,63
 341 1145 341 1145 345 1126 c 2,64,-1
 345 889 l 1,0,-1
EndSplineSet
Validated: 1
Substitution2: "'smcp' Lowercase to Small Capitals lookup 12 subtable" t.sc
EndChar

StartChar: u
Encoding: 88 117 88
Width: 1030
GlyphClass: 2
Flags: W
LayerCount: 4
Fore
SplineSet
674 640 m 2,0,1
 674 711 674 711 661 736 c 0,2,3
 644 763 644 763 571 763 c 0,4,5
 561 764 561 764 553 770 c 0,6,7
 541 783 541 783 541 812 c 0,8,9
 541 840 541 840 551 855 c 0,10,11
 559 864 559 864 570 865 c 0,12,13
 731 871 731 871 838 904 c 0,14,15
 842 905 842 905 845 905 c 0,16,17
 870 905 870 905 882 872 c 0,18,19
 883 870 883 870 883 869 c 0,20,21
 892 845 892 845 892 832 c 0,22,23
 892 826 892 826 889 821 c 0,24,25
 878 797 878 797 878 702 c 2,26,-1
 878 282 l 2,27,28
 878 198 878 198 891 136 c 0,29,30
 894 134 894 134 899 132 c 0,31,32
 915 125 915 125 931 123 c 0,33,34
 950 121 950 121 967 120 c 0,35,36
 981 119 981 119 985 119 c 0,37,38
 991 118 991 118 996 116 c 0,39,40
 1016 105 1016 105 1016 72 c 0,41,42
 1016 60 1016 60 1009 44 c 0,43,44
 998 19 998 19 978 15 c 0,45,46
 948 13 948 13 912 7 c 0,47,48
 875 1 875 1 844 -6 c 0,49,50
 812 -14 812 -14 785 -22 c 0,51,52
 757 -30 757 -30 739 -35 c 2,53,-1
 722 -40 l 2,54,55
 718 -41 718 -41 715 -41 c 0,56,57
 692 -40 692 -40 681 -16 c 0,58,59
 674 -1 674 -1 674 16 c 2,60,-1
 674 65 l 1,61,62
 632 33 632 33 577 5 c 0,63,64
 488 -39 488 -39 411 -39 c 0,65,66
 343 -39 343 -39 292 -10 c 0,67,68
 241 20 241 20 211 63 c 0,69,70
 182 106 182 106 165 165 c 0,71,72
 148 224 148 224 142 275 c 0,73,74
 136 326 136 326 136 384 c 2,75,-1
 136 640 l 2,76,77
 136 711 136 711 123 736 c 0,78,79
 106 763 106 763 33 763 c 0,80,81
 23 764 23 764 15 770 c 0,82,83
 3 783 3 783 3 812 c 0,84,85
 3 840 3 840 13 855 c 0,86,87
 21 864 21 864 32 865 c 0,88,89
 193 871 193 871 300 904 c 0,90,91
 304 905 304 905 307 905 c 0,92,93
 330 904 330 904 344 875 c 0,94,95
 354 854 354 854 354 840 c 0,96,97
 354 834 354 834 351 829 c 0,98,99
 340 805 340 805 340 702 c 2,100,-1
 340 408 l 2,101,102
 340 255 340 255 384 186 c 0,103,104
 426 123 426 123 515 123 c 0,105,106
 574 124 574 124 627 155 c 0,107,108
 637 161 637 161 645 167 c 0,109,110
 674 189 674 189 674 207 c 2,111,-1
 674 640 l 2,0,1
EndSplineSet
Validated: 1
Substitution2: "'smcp' Lowercase to Small Capitals lookup 12 subtable" u.sc
EndChar

StartChar: v
Encoding: 89 118 89
Width: 946
GlyphClass: 2
Flags: W
LayerCount: 4
Fore
SplineSet
205 875 m 0,0,1
 239 875 239 875 268 876 c 0,2,3
 299 878 299 878 337 881 c 0,4,5
 376 884 376 884 404 885 c 0,6,7
 420 884 420 884 428 870 c 0,8,9
 435 854 435 854 431 824 c 0,10,11
 428 793 428 793 419 784 c 0,12,13
 410 777 410 777 397 777 c 128,-1,14
 384 777 384 777 367 775 c 128,-1,15
 350 773 350 773 331 766 c 0,16,17
 329 765 329 765 326 764 c 2,18,-1
 520 288 l 1,19,20
 608 517 608 517 676 683 c 0,21,22
 686 708 686 708 686 738 c 0,23,24
 684 753 684 753 667 763 c 0,25,26
 640 777 640 777 595 777 c 0,27,28
 588 777 588 777 582.5 779 c 128,-1,29
 577 781 577 781 574 784 c 128,-1,30
 571 787 571 787 568.5 791.5 c 128,-1,31
 566 796 566 796 565 799.5 c 128,-1,32
 564 803 564 803 563.5 808 c 128,-1,33
 563 813 563 813 563 816 c 128,-1,34
 563 819 563 819 563 823 c 2,35,-1
 563 827 l 2,36,37
 564 862 564 862 576 876 c 0,38,39
 585 885 585 885 596 885 c 0,40,41
 618 884 618 884 646 881 c 0,42,43
 673 878 673 878 696 876 c 0,44,45
 721 875 721 875 757 875 c 0,46,47
 791 875 791 875 817 876 c 0,48,49
 844 878 844 878 877 881 c 0,50,51
 912 884 912 884 942 885 c 0,52,53
 956 884 956 884 964 874 c 0,54,55
 975 856 975 856 971 823 c 0,56,57
 968 797 968 797 964 792 c 0,58,59
 954 778 954 778 937 777 c 0,60,61
 915 776 915 776 877 763 c 0,62,63
 845 750 845 750 834 724 c 0,64,65
 621 215 621 215 534 3 c 0,66,67
 525 -17 525 -17 501 -32 c 0,68,69
 475 -47 475 -47 459 -47 c 0,70,71
 430 -46 430 -46 419 -25 c 2,72,-1
 418 -24 l 2,73,74
 371 88 371 88 306 251 c 128,-1,75
 241 414 241 414 191 533 c 128,-1,76
 141 652 141 652 92 751 c 0,77,78
 78 776 78 776 5 777 c 0,79,80
 -11 778 -11 778 -18 792 c 0,81,82
 -25.5 811.5 -25.5 811.5 -25.5 831 c 128,-1,83
 -25.5 850.5 -25.5 850.5 -18 870 c 0,84,85
 -15 877 -15 877 -8.5 881 c 128,-1,86
 -2 885 -2 885 6 885 c 0,87,88
 36 884 36 884 73 881 c 128,-1,89
 110 878 110 878 140 876 c 0,90,91
 170 875 170 875 205 875 c 0,0,1
EndSplineSet
Validated: 1
Substitution2: "'smcp' Lowercase to Small Capitals lookup 12 subtable" v.sc
EndChar

StartChar: w
Encoding: 90 119 90
Width: 1442
GlyphClass: 2
Flags: W
LayerCount: 4
Fore
SplineSet
202 875 m 0,0,1
 236 875 236 875 265 876 c 0,2,3
 296 878 296 878 334 881 c 0,4,5
 373 884 373 884 401 885 c 0,6,7
 419 884 419 884 426 868 c 0,8,9
 430 854 430 854 429 827 c 0,10,11
 428 797 428 797 421 788 c 0,12,13
 416 783 416 783 409 780 c 0,14,15
 403 778 403 778 398 777 c 0,16,17
 384 777 384 777 367 775 c 0,18,19
 352 773 352 773 332 764 c 0,20,21
 326 761 326 761 323 758 c 0,22,23
 326 750 326 750 331 735 c 0,24,25
 351 683 351 683 513 300 c 1,26,27
 529 339 529 339 546 382 c 0,28,29
 577 460 577 460 593 500 c 0,30,31
 609 539 609 539 624 579.5 c 128,-1,32
 639 620 639 620 646 639 c 0,33,34
 650 649 650 649 651 655 c 0,35,36
 649 666 649 666 638 692 c 0,37,38
 624 726 624 726 607 750 c 0,39,40
 587 777 587 777 540 777 c 0,41,42
 534 777 534 777 529 780 c 0,43,44
 507 792 507 792 507 829 c 0,45,46
 508 862 508 862 522 878 c 0,47,48
 530 885 530 885 541 885 c 0,49,50
 568 884 568 884 622 879 c 0,51,52
 676 875 676 875 722 875 c 0,53,54
 735 875 735 875 929 885 c 0,55,56
 946 885 946 885 953 869 c 0,57,58
 959 854 959 854 959 829 c 0,59,60
 958 797 958 797 946 784 c 0,61,62
 938 777 938 777 928 777 c 0,63,64
 857 777 857 777 853 744 c 0,65,66
 853 741 853 741 853 739 c 0,67,68
 854 733 854 733 857 723 c 0,69,70
 862 707 862 707 871 683 c 0,71,72
 880 657 880 657 896 615 c 0,73,74
 913 572 913 572 931 526 c 128,-1,75
 949 480 949 480 980 401 c 0,76,77
 999 353 999 353 1016 308 c 1,78,79
 1143 625 1143 625 1167 696 c 0,80,81
 1177 724 1177 724 1177 736 c 0,82,83
 1176 748 1176 748 1172 754 c 0,84,85
 1165 761 1165 761 1151 765 c 0,86,87
 1129 771 1129 771 1118 773 c 0,88,89
 1106 775 1106 775 1080 777 c 0,90,91
 1072 778 1072 778 1066 783 c 0,92,93
 1063 785 1063 785 1061 787.5 c 128,-1,94
 1059 790 1059 790 1057.5 792.5 c 128,-1,95
 1056 795 1056 795 1055 797 c 128,-1,96
 1054 799 1054 799 1053 802.5 c 128,-1,97
 1052 806 1052 806 1051.5 807.5 c 128,-1,98
 1051 809 1051 809 1051 813.5 c 128,-1,99
 1051 818 1051 818 1051 818.5 c 128,-1,100
 1051 819 1051 819 1051 824 c 0,101,-1
 1051 829 l 0,102,103
 1051 861 1051 861 1063 876 c 0,104,105
 1071 884 1071 884 1083 885 c 0,106,107
 1113 884 1113 884 1162 879 c 0,108,109
 1211 875 1211 875 1256 875 c 0,110,111
 1290 875 1290 875 1315 876 c 0,112,113
 1342 878 1342 878 1374 881 c 0,114,115
 1409 884 1409 884 1439 885 c 0,116,117
 1450 885 1450 885 1458 878 c 0,118,119
 1471 865 1471 865 1468 839 c 0,120,121
 1468 835 1468 835 1467 832 c 0,122,123
 1465 795 1465 795 1449 782 c 0,124,125
 1442 777 1442 777 1434 777 c 0,126,127
 1410 777 1410 777 1368 762 c 0,128,129
 1332 748 1332 748 1321 721 c 0,130,131
 1145 276 1145 276 1031 3 c 0,132,133
 1023 -16 1023 -16 1005 -31 c 0,134,135
 983 -47 983 -47 966 -47 c 0,136,137
 931 -46 931 -46 920 -25 c 0,138,139
 919 -24 919 -24 919 -23 c 2,140,-1
 720 495 l 1,141,-1
 528 8 l 2,142,143
 522 -6 522 -6 502 -25 c 0,144,145
 477 -47 477 -47 454 -47 c 0,146,147
 425 -46 425 -46 414 -25 c 2,148,-1
 413 -23 l 1,149,150
 246 395 246 395 89 748 c 0,151,152
 75 777 75 777 4 777 c 0,153,154
 -12 778 -12 778 -19 792 c 0,155,156
 -25 807 -25 807 -25 831 c 0,157,158
 -25 857 -25 857 -19 870 c 0,159,160
 -16 877 -16 877 -9 881 c 128,-1,161
 -2 885 -2 885 5 885 c 0,162,163
 36 884 36 884 72 881 c 128,-1,164
 108 878 108 878 137 876 c 0,165,166
 167 875 167 875 202 875 c 0,0,1
EndSplineSet
Validated: 1
Substitution2: "'smcp' Lowercase to Small Capitals lookup 12 subtable" w.sc
EndChar

StartChar: x
Encoding: 91 120 91
Width: 952
GlyphClass: 2
Flags: W
LayerCount: 4
Fore
SplineSet
901 777 m 1,0,1
 790 769 790 769 762 743 c 1,2,3
 737 708 737 708 686 637 c 0,4,5
 635 565 635 565 603 520 c 0,6,7
 584 494 584 494 573 479 c 1,8,-1
 803 138 l 2,9,10
 847 77 847 77 936 77 c 0,11,12
 971 77 971 77 964 43 c 0,13,14
 964 41 964 41 963 40 c 0,15,16
 963 25 963 25 963 10 c 0,17,18
 961 -12 961 -12 954 -21 c 0,19,20
 946 -31 946 -31 933 -31 c 0,21,22
 906 -30 906 -30 870 -27 c 128,-1,23
 834 -24 834 -24 806 -22 c 0,24,25
 778 -21 778 -21 746 -21 c 0,26,27
 708 -21 708 -21 675 -22 c 0,28,29
 641 -24 641 -24 598 -27 c 0,30,31
 554 -30 554 -30 525 -31 c 0,32,33
 508 -31 508 -31 501 -15 c 0,34,35
 495 1 495 1 496 29 c 0,36,37
 497 53 497 53 498 57 c 0,38,39
 505 73 505 73 523 77 c 0,40,41
 551 79 551 79 575 87 c 0,42,43
 579 89 579 89 583 90 c 1,44,45
 499 227 499 227 448 305 c 1,46,47
 432 281 432 281 407 245 c 0,48,49
 357 171 357 171 325 121 c 0,50,51
 317 108 317 108 317 96 c 0,52,53
 317 94 317 94 318 93 c 0,54,55
 321 90 321 90 330 87 c 0,56,57
 332 87 l 0,58,59
 349 83 349 83 359 81 c 0,60,61
 370 80 370 80 393 78 c 2,62,-1
 395 78 l 2,63,64
 400 77 400 77 402 77 c 0,65,66
 419 77 419 77 426 68 c 128,-1,67
 433 59 433 59 431 50 c 2,68,-1
 430 41 l 2,69,70
 431 26 431 26 430 11 c 0,71,72
 428 -11 428 -11 420 -22 c 0,73,74
 412 -31 412 -31 399 -31 c 0,75,76
 370 -30 370 -30 335 -27 c 128,-1,77
 300 -24 300 -24 272 -22 c 0,78,79
 244 -21 244 -21 210 -21 c 128,-1,80
 176 -21 176 -21 149 -22 c 0,81,82
 120 -24 120 -24 86 -27 c 0,83,84
 50 -30 50 -30 23 -31 c 0,85,86
 4 -30 4 -30 -2 -12 c 0,87,88
 -4 -3 -4 -3 -4.5 7 c 128,-1,89
 -5 17 -5 17 -4 27 c 0,90,91
 -2 52 -2 52 4 64 c 0,92,93
 10 73 10 73 20 76 c 0,94,95
 27 78 27 78 46.5 81 c 128,-1,96
 66 84 66 84 73 85 c 128,-1,97
 80 86 80 86 97 89 c 0,98,99
 112 92 112 92 119 95 c 0,100,101
 129 99 129 99 143 104 c 0,102,103
 155 109 155 109 162 114 c 0,104,105
 171 120 171 120 181 128 c 0,106,107
 190 136 190 136 196 144 c 0,108,109
 347 361 347 361 382 412 c 1,110,-1
 159 744 l 2,111,112
 148 759 148 759 118 767 c 0,113,114
 80 777 80 777 46 777 c 0,115,116
 29 777 29 777 22 786 c 128,-1,117
 15 795 15 795 16 804 c 128,-1,118
 17 813 17 813 19 813 c 1,119,120
 19 827 19 827 19 842 c 0,121,122
 21 861 21 861 26 871 c 0,123,124
 34 885 34 885 50 885 c 0,125,126
 159 875 159 875 246 875 c 0,127,128
 338 875 338 875 446 885 c 0,129,130
 465 887 465 887 471 869 c 0,131,132
 472 867 472 867 473 865 c 0,133,134
 475 852 475 852 475 830 c 0,135,136
 474 801 474 801 464 787 c 0,137,138
 456 778 456 778 444 777 c 0,139,140
 403 777 403 777 390 768 c 1,141,142
 392 763 392 763 395 757 c 2,143,-1
 507 580 l 1,144,145
 523 603 523 603 543 632 c 0,146,147
 584 688 584 688 605 723 c 0,148,149
 621 749 621 749 623 763 c 0,150,151
 621 764 621 764 620 764 c 0,152,153
 607 770 607 770 594 773 c 0,154,155
 576 775 576 775 557 776 c 0,156,157
 553 776 553 776 550 776.5 c 128,-1,158
 547 777 547 777 544.5 777 c 128,-1,159
 542 777 542 777 540 777 c 128,-1,160
 538 777 538 777 537 777 c 0,161,162
 536 777 l 0,163,164
 528 778 528 778 522 781 c 0,165,166
 504 793 504 793 507 821 c 0,167,168
 507 826 507 826 508 829 c 0,169,170
 508 862 508 862 515 874 c 0,171,172
 523 885 523 885 537 885 c 0,173,174
 567 884 567 884 605 881 c 128,-1,175
 643 878 643 878 673 876 c 0,176,177
 704 875 704 875 738 875 c 0,178,179
 827 875 827 875 894 885 c 0,180,181
 913 888 913 888 921 870 c 0,182,183
 922 868 922 868 922 866 c 0,184,185
 925 853 925 853 924 827 c 0,186,187
 924 826 924 826 925 823 c 0,188,189
 928 787 928 787 901 777 c 1,0,1
EndSplineSet
Validated: 1
Substitution2: "'smcp' Lowercase to Small Capitals lookup 12 subtable" x.sc
EndChar

StartChar: y
Encoding: 92 121 92
Width: 938
GlyphClass: 2
Flags: W
LayerCount: 4
Fore
SplineSet
203 875 m 0,0,1
 317 875 317 875 400 885 c 0,2,3
 418 886 418 886 426 870 c 0,4,5
 433 854 433 854 429 824 c 0,6,7
 426 793 426 793 417 784 c 0,8,9
 408 777 408 777 395 777 c 0,10,11
 382 777 382 777 365 775 c 0,12,13
 348 773 348 773 329 766 c 0,14,15
 327 765 327 765 324 764 c 2,16,-1
 511 289 l 1,17,18
 599 517 599 517 666 683 c 0,19,20
 676 708 676 708 676 738 c 0,21,22
 674 753 674 753 657 763 c 0,23,24
 630 777 630 777 585 777 c 0,25,26
 578 777 578 777 572.5 779 c 128,-1,27
 567 781 567 781 564 784 c 128,-1,28
 561 787 561 787 558.5 791.5 c 128,-1,29
 556 796 556 796 555 799.5 c 128,-1,30
 554 803 554 803 553.5 808 c 128,-1,31
 553 813 553 813 553 816 c 128,-1,32
 553 819 553 819 553 823 c 2,33,-1
 553 827 l 2,34,35
 554 862 554 862 566 876 c 0,36,37
 575 885 575 885 588 885 c 0,38,39
 662 875 662 875 765 875 c 0,40,41
 833 875 833 875 931 885 c 0,42,43
 946 886 946 886 954 874 c 0,44,45
 965 856 965 856 961 823 c 0,46,47
 958 797 958 797 954 792 c 0,48,49
 944 778 944 778 927 777 c 0,50,51
 905 776 905 776 867 763 c 0,52,53
 835 750 835 750 824 724 c 0,54,55
 610 214 610 214 524 2 c 0,56,57
 514 -23 514 -23 481 -109 c 0,58,59
 448 -198 448 -198 423 -253 c 0,60,61
 397 -309 397 -309 363 -358 c 0,62,63
 279 -480 279 -480 168 -481 c 0,64,65
 87 -481 87 -481 63 -415 c 0,66,67
 56 -394 56 -394 56 -370 c 0,68,69
 57 -332 57 -332 86 -296 c 0,70,71
 94 -287 94 -287 105 -287 c 0,72,73
 180 -287 180 -287 220 -270 c 0,74,75
 260 -252 260 -252 311 -183 c 0,76,77
 331 -156 331 -156 364 -84 c 0,78,79
 392 -23 392 -23 400 3 c 1,80,81
 202 506 202 506 90 751 c 0,82,83
 76 776 76 776 3 777 c 0,84,85
 -16 777 -16 777 -23 790 c 128,-1,86
 -30 803 -30 803 -28 816 c 2,87,-1
 -25 830 l 2,88,89
 -25 834 -25 834 -26 840 c 0,90,91
 -27 865 -27 865 -15 878 c 0,92,93
 -12 881 -12 881 -8.5 882.5 c 128,-1,94
 -5 884 -5 884 -1.5 884.5 c 128,-1,95
 2 885 2 885 6 885 c 0,96,97
 100 875 100 875 203 875 c 0,0,1
EndSplineSet
Validated: 1
Substitution2: "'smcp' Lowercase to Small Capitals lookup 12 subtable" y.sc
EndChar

StartChar: z
Encoding: 93 122 93
Width: 894
GlyphClass: 2
Flags: W
LayerCount: 4
Fore
SplineSet
296 887 m 2,0,-1
 552 887 l 2,1,2
 664 887 664 887 793 903 c 0,3,4
 809 904 809 904 817 891 c 0,5,6
 827 874 827 874 827 830 c 0,7,8
 826 822 826 822 822 816 c 0,9,10
 410 230 410 230 318 95 c 1,11,-1
 552 95 l 2,12,13
 627 96 627 96 677 142 c 0,14,15
 728 191 728 191 748 256 c 0,16,17
 754 282 754 282 779 286 c 0,18,19
 783 287 783 287 786 287 c 0,20,21
 804 287 804 287 825 277 c 0,22,23
 846 267 846 267 857 255 c 0,24,25
 866 243 866 243 861 228 c 0,26,27
 801 83 801 83 772 -8 c 0,28,29
 765 -24 765 -24 748 -25 c 2,30,-1
 98 -25 l 2,31,32
 94 -25 94 -25 91 -24 c 0,33,34
 72 -18 72 -18 58 0 c 0,35,36
 44 20 44 20 43 40 c 0,37,38
 44 59 44 59 50 68 c 2,39,-1
 536 767 l 1,40,-1
 304 769 l 2,41,42
 281 769 281 769 263 762 c 0,43,44
 244 755 244 755 233 747 c 0,45,46
 222 737 222 737 212 723 c 0,47,48
 201 707 201 707 196 697 c 0,49,50
 191 685 191 685 184 668 c 0,51,52
 176 648 176 648 174 643 c 0,53,54
 166 629 166 629 146 619 c 0,55,56
 127 611 127 611 108 611 c 0,57,58
 78 611 78 611 69 620 c 0,59,60
 61 629 61 629 61 642 c 0,61,62
 61 646 61 646 62 649 c 0,63,64
 85 736 85 736 93 879 c 0,65,66
 94 901 94 901 114 903 c 0,67,68
 118 903 118 903 122 903 c 0,69,70
 226 887 226 887 296 887 c 2,0,-1
EndSplineSet
Validated: 1
Substitution2: "'smcp' Lowercase to Small Capitals lookup 12 subtable" z.sc
EndChar

StartChar: braceleft
Encoding: 94 123 94
Width: 444
GlyphClass: 2
Flags: W
LayerCount: 4
Fore
SplineSet
183 766 m 0,0,1
 183 776 183 776 182 785 c 0,2,3
 181 794 181 794 178 804 c 0,4,5
 174 817 174 817 173 824 c 0,6,7
 171 831 171 831 166 844 c 0,8,9
 161 857 161 857 159 862 c 0,10,11
 156 868 156 868 148 886 c 0,12,13
 141 903 141 903 139 906 c 0,14,15
 91 1010 91 1010 91 1082 c 0,16,17
 92 1222 92 1222 164 1326 c 0,18,19
 237 1429 237 1429 321 1463 c 0,20,21
 326 1465 326 1465 330 1465 c 0,22,23
 354 1464 354 1464 371 1444 c 0,24,25
 386 1424 386 1424 387 1402 c 0,26,27
 386 1387 386 1387 373 1380 c 0,28,29
 326 1356 326 1356 277 1296 c 0,30,31
 230 1237 230 1237 229 1178 c 0,32,33
 229 1162 229 1162 230 1149 c 128,-1,34
 231 1136 231 1136 234 1124 c 0,35,36
 238 1109 238 1109 240 1099 c 0,37,38
 243 1090 243 1090 248 1076 c 0,39,40
 254 1060 254 1060 257 1054 c 0,41,42
 260 1047 260 1047 267 1029 c 0,43,44
 274 1012 274 1012 277 1006 c 0,45,46
 325 905 325 905 325 810 c 0,47,48
 324 714 324 714 272 644 c 0,49,50
 239 601 239 601 205 576 c 1,51,52
 240 550 240 550 272 508 c 0,53,54
 325 437 325 437 325 342 c 0,55,56
 325 246 325 246 277 146 c 0,57,58
 274 139 274 139 267 123 c 0,59,60
 259 105 259 105 257 98 c 0,61,62
 254 91 254 91 248 76 c 128,-1,63
 242 61 242 61 240 53 c 0,64,65
 237 42 237 42 234 28 c 0,66,67
 231 14 231 14 230 3 c 0,68,69
 229 -11 229 -11 229 -26 c 0,70,71
 230 -87 230 -87 277 -144 c 0,72,73
 327 -205 327 -205 373 -228 c 0,74,75
 386 -236 386 -236 387 -250 c 0,76,77
 386 -273 386 -273 371 -292 c 0,78,79
 353 -312 353 -312 330 -313 c 0,80,81
 325 -313 325 -313 321 -311 c 0,82,83
 237 -276 237 -276 164 -174 c 0,84,85
 146 -148 146 -148 132 -119.5 c 128,-1,86
 118 -91 118 -91 109 -60.5 c 128,-1,87
 100 -30 100 -30 95.5 2.5 c 128,-1,88
 91 35 91 35 91 70 c 0,89,90
 92 142 92 142 139 246 c 0,91,92
 142 252 142 252 148 266 c 0,93,94
 156 285 156 285 159 290 c 0,95,96
 161 294 161 294 166 308 c 0,97,98
 171 322 171 322 173 328 c 0,99,100
 175 337 175 337 178 348 c 0,101,102
 181 359 181 359 182 367 c 0,103,104
 183 377 183 377 183 386 c 0,105,106
 183 484 183 484 79 521 c 0,107,108
 65 526 65 526 50 530 c 0,109,110
 40 533 40 533 34 542 c 0,111,112
 27 556 27 556 27 576 c 0,113,114
 28 598 28 598 34 610 c 0,115,116
 40 619 40 619 50 622 c 0,117,118
 168 652 168 652 181 740 c 0,119,120
 183 753 183 753 183 766 c 0,0,1
EndSplineSet
Validated: 1
Substitution2: "'smcp' Lowercase to Small Capitals lookup 12 subtable" braceleft.sc
EndChar

StartChar: bar
Encoding: 95 124 95
Width: 410
GlyphClass: 2
Flags: W
LayerCount: 4
Fore
SplineSet
282 -212 m 2,0,1
 282 -242 282 -242 237 -254 c 0,2,3
 235 -255 235 -255 231 -256 c 0,4,5
 225 -258 225 -258 222 -258 c 0,6,7
 177 -271 177 -271 165 -271 c 0,8,9
 153 -270 153 -270 145 -266 c 0,10,11
 135 -258 135 -258 131 -249 c 0,12,13
 129 -241 129 -241 130 -233 c 0,14,15
 130 -231 130 -231 130 -229 c 2,16,-1
 130 1512 l 2,17,18
 129 1544 129 1544 158 1554 c 0,19,20
 210 1569 210 1569 239 1569 c 0,21,22
 256 1568 256 1568 266 1561 c 0,23,24
 279 1549 279 1549 280 1535 c 2,25,-1
 280 1532 l 1,26,-1
 282 -212 l 2,0,1
EndSplineSet
Validated: 1
Substitution2: "'smcp' Lowercase to Small Capitals lookup 12 subtable" bar.sc
EndChar

StartChar: braceright
Encoding: 96 125 96
Width: 446
GlyphClass: 2
Flags: W
LayerCount: 4
Fore
SplineSet
123 1463 m 0,0,1
 207 1428 207 1428 280 1326 c 0,2,3
 353 1221 353 1221 353 1082 c 0,4,5
 352 1010 352 1010 305 906 c 0,6,7
 302 900 302 900 296 886 c 0,8,9
 288 867 288 867 285 862 c 0,10,11
 283 858 283 858 278 844 c 0,12,13
 273 830 273 830 271 824 c 0,14,15
 269 815 269 815 266 804 c 0,16,17
 263 793 263 793 262 785 c 0,18,19
 261 775 261 775 261 766 c 0,20,21
 261 668 261 668 365 631 c 0,22,23
 379 626 379 626 394 622 c 0,24,25
 404 619 404 619 410 610 c 0,26,27
 417 596 417 596 417 576 c 0,28,29
 416 554 416 554 410 542 c 0,30,31
 404 533 404 533 394 530 c 0,32,33
 276 500 276 500 263 412 c 0,34,35
 261 400 261 400 261 386 c 0,36,37
 261 376 261 376 262 367 c 0,38,39
 263 358 263 358 266 348 c 0,40,41
 270 335 270 335 271 328 c 0,42,43
 273 321 273 321 278 308 c 0,44,45
 283 295 283 295 285 290 c 0,46,47
 288 284 288 284 296 266 c 0,48,49
 303 249 303 249 305 246 c 0,50,51
 353 142 353 142 353 70 c 0,52,53
 352 -70 352 -70 280 -174 c 0,54,55
 207 -277 207 -277 123 -311 c 0,56,57
 118 -313 118 -313 114 -313 c 0,58,59
 90 -312 90 -312 73 -292 c 0,60,61
 58 -272 58 -272 57 -250 c 0,62,63
 58 -235 58 -235 71 -228 c 0,64,65
 118 -204 118 -204 167 -144 c 0,66,67
 214 -85 214 -85 215 -26 c 0,68,69
 215 -10 215 -10 214 3 c 128,-1,70
 213 16 213 16 210 28 c 0,71,72
 206 43 206 43 204 53 c 0,73,74
 201 62 201 62 196 76 c 0,75,76
 190 92 190 92 187 98 c 0,77,78
 184 105 184 105 177 123 c 0,79,80
 170 140 170 140 167 146 c 0,81,82
 119 247 119 247 119 342 c 0,83,84
 120 438 120 438 172 508 c 0,85,86
 205 551 205 551 239 576 c 1,87,88
 204 602 204 602 172 644 c 0,89,90
 119 715 119 715 119 810 c 0,91,92
 119 906 119 906 167 1006 c 0,93,94
 170 1013 170 1013 177 1029 c 0,95,96
 185 1047 185 1047 187 1054 c 0,97,98
 190 1061 190 1061 196 1076 c 128,-1,99
 202 1091 202 1091 204 1099 c 0,100,101
 207 1110 207 1110 210 1124 c 0,102,103
 213 1138 213 1138 214 1149 c 0,104,105
 215 1163 215 1163 215 1178 c 0,106,107
 214 1239 214 1239 167 1296 c 0,108,109
 117 1357 117 1357 71 1380 c 0,110,111
 58 1388 58 1388 57 1402 c 0,112,113
 58 1425 58 1425 73 1444 c 0,114,115
 91 1464 91 1464 114 1465 c 0,116,117
 119 1464 119 1464 123 1463 c 0,0,1
EndSplineSet
Validated: 1
Substitution2: "'smcp' Lowercase to Small Capitals lookup 12 subtable" braceright.sc
EndChar

StartChar: asciitilde
Encoding: 97 126 97
Width: 1140
GlyphClass: 2
Flags: W
LayerCount: 4
Fore
SplineSet
533 531 m 0,0,1
 486 548 486 548 461 556 c 0,2,3
 436 565 436 565 394 573 c 0,4,5
 351 581 351 581 312 581 c 0,6,7
 265 581 265 581 229 561 c 0,8,9
 189 538 189 538 147 500 c 0,10,11
 134 489 134 489 119 496 c 0,12,13
 88 513 88 513 87 552 c 0,14,15
 88 621 88 621 189 679 c 0,16,17
 284 733 284 733 372 733 c 0,18,19
 419 733 419 733 468.5 723 c 128,-1,20
 518 713 518 713 542 705 c 0,21,22
 566 697 566 697 618 678 c 0,23,24
 665 661 665 661 692 652 c 0,25,26
 718 643 718 643 760 635 c 0,27,28
 803 627 803 627 844 627 c 0,29,30
 856 627 856 627 868 629 c 0,31,32
 882 632 882 632 892 634 c 0,33,34
 900 636 900 636 909 640 c 0,35,36
 923 647 923 647 930 651 c 0,37,38
 936 654 936 654 948 663 c 0,39,40
 962 673 962 673 966 676 c 0,41,42
 972 680 972 680 987 693 c 0,43,44
 1004 707 1004 707 1009 710 c 0,45,46
 1022 718 1022 718 1035 712 c 0,47,48
 1066 695 1066 695 1067 656 c 0,49,50
 1066 591 1066 591 973 531 c 0,51,52
 884 475 884 475 786 475 c 0,53,54
 737 475 737 475 689 484 c 0,55,56
 641 493 641 493 611 503 c 0,57,58
 580 513 580 513 533 531 c 0,0,1
EndSplineSet
Validated: 1
Substitution2: "'smcp' Lowercase to Small Capitals lookup 12 subtable" asciitilde.sc
EndChar

StartChar: exclamdown
Encoding: 99 161 99
Width: 430
GlyphClass: 2
Flags: W
LayerCount: 4
Fore
SplineSet
206 -471 m 0,0,1
 149 -470 149 -470 119 -424 c 0,2,3
 93 -382 93 -382 93 -330 c 0,4,5
 93 -312 93 -312 96 -272 c 0,6,7
 99 -230 99 -230 105 -155 c 0,8,9
 111 -79 111 -79 119 4 c 0,10,11
 126 86 126 86 138 226.5 c 128,-1,12
 150 367 150 367 161 496 c 0,13,14
 162 501 162 501 164 505 c 0,15,16
 183 541 183 541 216 545 c 0,17,18
 222 545 222 545 227 543 c 0,19,20
 257 531 257 531 268 509 c 0,21,22
 270 504 270 504 271 500 c 0,23,24
 331 -191 331 -191 331 -330 c 0,25,26
 330 -384 330 -384 298 -426 c 0,27,28
 262 -470 262 -470 206 -471 c 0,0,1
81 748 m 0,29,30
 82 803 82 803 119 844 c 0,31,32
 159 885 159 885 214 885 c 0,33,34
 270 884 270 884 310 844 c 0,35,36
 350 802 350 802 351 748 c 0,37,38
 350 692 350 692 310 653 c 0,39,40
 269 615 269 615 214 615 c 0,41,42
 158 616 158 616 120 654 c 0,43,44
 81 693 81 693 81 748 c 0,29,30
EndSplineSet
Validated: 1
Substitution2: "'smcp' Lowercase to Small Capitals lookup 12 subtable" exclamdown.sc
EndChar

StartChar: cent
Encoding: 100 162 100
Width: 892
GlyphClass: 2
Flags: W
LayerCount: 4
Fore
SplineSet
590 714 m 1,0,1
 498 148 l 1,2,3
 532 141 532 141 570 141 c 0,4,5
 635 141 635 141 684 170 c 0,6,7
 732 199 732 199 763 234 c 0,8,9
 770 242 770 242 782 243 c 128,-1,10
 794 244 794 244 803 233 c 0,11,12
 817 216 817 216 817 215 c 0,13,14
 823 205 823 205 823 190 c 0,15,16
 823 170 823 170 807 141 c 0,17,18
 795 120 795 120 764 85 c 0,19,20
 739 57 739 57 701 28 c 128,-1,21
 663 -1 663 -1 608 -22 c 0,22,23
 556 -41 556 -41 494 -41 c 0,24,25
 481 -41 481 -41 467 -40 c 1,26,-1
 459 -94 l 2,27,28
 455 -114 455 -114 434 -115 c 0,29,30
 384 -117 384 -117 367 -105 c 0,31,32
 353 -95 353 -95 353 -76 c 0,33,34
 353 -74 353 -74 353 -72 c 2,35,-1
 362 -21 l 1,36,37
 313 -6 313 -6 270 21 c 0,38,39
 170 82 170 82 117.511413847 179.60453536 c 128,-1,40
 65 277.251519691 65 277.251519691 65 388 c 0,41,42
 65 477 65 477 97.2167291127 559.104355924 c 0,43,44
 130 641 130 641 182.645363546 702.416536912 c 0,45,46
 236 763 236 763 300.795232073 808.072422515 c 0,47,48
 367 854 367 854 437.59430585 877.217082451 c 0,49,50
 475 889 475 889 510.764648438 895.41796875 c 1,51,-1
 519.324639835 948.015793909 l 2,52,53
 522.573649529 967.979697597 522.573649529 967.979697597 544 969 c 0,54,55
 588 971 588 971 602.652083259 964.403824232 c 0,56,57
 626 954 626 954 625 932 c 0,58,59
 625 930 625 930 624.676605004 927.991862592 c 2,60,-1
 619.938476562 898.823242188 l 1,61,62
 707 890 707 890 769.867504906 848.801257358 c 0,63,64
 772 847 772 847 773.67766953 845.67766953 c 0,65,66
 784 838 784 838 792.9356318 812.20466324 c 0,67,68
 801 790 801 790 801 772 c 0,69,70
 802 715 802 715 770.86671915 682.013423811 c 0,71,72
 740 651 740 651 700 651 c 0,73,74
 674 651 674 651 646.375291235 668.038909592 c 0,75,76
 626.357808659 681.423466844 626.357808659 681.423466844 600.662750095 704.020091568 c 0,77,78
 595 709 595 709 590 714 c 1,0,1
486.1015625 725.305664062 m 1,79,80
 477 726 477 726 467 727 c 0,81,82
 394 727 394 727 332.0390625 644.551757812 c 0,83,84
 268 558 268 558 268 420.5 c 128,-1,85
 268 283 268 283 350.615234375 208.22265625 c 0,86,87
 383 179 383 179 392.491210938 177.11328125 c 1,88,-1
 486.1015625 725.305664062 l 1,79,80
EndSplineSet
Validated: 33
EndChar

StartChar: sterling
Encoding: 101 163 101
Width: 954
GlyphClass: 2
Flags: W
LayerCount: 4
Fore
SplineSet
628 1297 m 0,0,1
 681 1297 681 1297 712 1285 c 128,-1,2
 743 1273 743 1273 786 1245 c 0,3,4
 788 1243 788 1243 790 1242 c 0,5,6
 801 1230 801 1230 809 1208 c 128,-1,7
 817 1186 817 1186 817 1168 c 0,8,9
 816 1109 816 1109 787 1078 c 0,10,11
 756 1047 756 1047 716 1047 c 0,12,13
 694 1047 694 1047 673 1058 c 0,14,15
 653 1068 653 1068 642 1079 c 0,16,17
 631 1089 631 1089 615 1106 c 0,18,19
 599 1122 599 1122 593 1128 c 0,20,21
 575 1145 575 1145 563 1151 c 0,22,23
 553 1155 553 1155 540 1155 c 0,24,25
 501 1154 501 1154 478 1126 c 0,26,27
 451 1092 451 1092 440 1043 c 0,28,29
 429 989 429 989 429 918 c 0,30,31
 429 841 429 841 450 722 c 0,32,33
 451 715 451 715 452 709 c 1,34,-1
 762 709 l 2,35,36
 771 708 771 708 777 704 c 0,37,38
 803 683 803 683 797 652 c 0,39,40
 792 632 792 632 781 615 c 0,41,42
 769 598 769 598 757 591 c 0,43,44
 751 588 751 588 744 587 c 2,45,-1
 469 587 l 1,46,47
 471 562 471 562 471 544 c 0,48,49
 470 439 470 439 407 333 c 0,50,51
 373 276 373 276 340 235 c 1,52,53
 381 234 381 234 419 219 c 0,54,55
 457 203 457 203 485 184 c 0,56,57
 509 168 509 168 553 154 c 0,58,59
 599 141 599 141 654 141 c 0,60,61
 686 142 686 142 716 157 c 0,62,63
 748 174 748 174 770 201 c 0,64,65
 795 231 795 231 809 250 c 0,66,67
 823 271 823 271 832 289 c 0,68,69
 840 302 840 302 854 303 c 0,70,71
 869 302 869 302 876 294 c 0,72,73
 886 286 886 286 894 276 c 0,74,75
 905 261 905 261 905 246 c 0,76,77
 905 229 905 229 898 208 c 0,78,79
 887 177 887 177 861 139 c 0,80,81
 835 100 835 100 797 59 c 0,82,83
 756 16 756 16 701 -12 c 0,84,85
 643 -41 643 -41 582 -41 c 128,-1,86
 521 -41 521 -41 463 -22 c 0,87,88
 406 -3 406 -3 369 20 c 0,89,90
 336 40 336 40 297 57 c 0,91,92
 261 73 261 73 232 73 c 0,93,94
 214 72 214 72 202 61 c 0,95,96
 185 43 185 43 170 17 c 0,97,98
 151 -16 151 -16 138 -30 c 0,99,100
 130 -37 130 -37 120 -37 c 0,101,102
 95 -36 95 -36 77 -11 c 0,103,104
 63 10 63 10 63 32 c 0,105,106
 64 99 64 99 170 206 c 0,107,108
 210 246 210 246 240 320 c 0,109,110
 271 395 271 395 271 462 c 0,111,112
 271 479 271 479 254 587 c 1,113,-1
 110 587 l 2,114,115
 100 588 100 588 92 594 c 0,116,117
 82.0188679245 603.981132075 82.0188679245 603.981132075 82.0188679245 618.293698825 c 0,118,119
 82.0188679245 636.962264151 82.0188679245 636.962264151 99 663 c 0,120,121
 101 665 101 665 101 666 c 0,122,123
 125 703 125 703 146 708 c 0,124,125
 151 709 151 709 156 709 c 2,126,-1
 235 709 l 1,127,128
 226 775 226 775 225 798 c 2,129,-1
 225 815 l 2,130,131
 225 910 225 910 256 995 c 0,132,133
 290 1090 290 1090 347 1154 c 0,134,135
 404 1219 404 1219 477 1258 c 0,136,137
 552 1297 552 1297 628 1297 c 0,0,1
EndSplineSet
Validated: 1
EndChar

StartChar: currency
Encoding: 102 164 102
Width: 1148
GlyphClass: 2
Flags: W
LayerCount: 4
Fore
SplineSet
795 943 m 1,0,-1
 897 1038 l 2,1,2
 920 1060 920 1060 954 1036 c 0,3,4
 975 1020 975 1020 993 993 c 0,5,6
 1012 965 1012 965 1020 939 c 0,7,8
 1024 924 1024 924 1013 914 c 2,9,-1
 907 815 l 1,10,11
 958 719 958 719 959 614 c 0,12,13
 958 497 958 497 900 401 c 1,14,-1
 994 299 l 2,15,16
 1016 276 1016 276 992 242 c 0,17,18
 976 221 976 221 949 203 c 0,19,20
 921 184 921 184 895 176 c 0,21,22
 880 172 880 172 870 183 c 2,23,-1
 781 277 l 1,24,25
 686 215 686 215 572 215 c 0,26,27
 445 216 445 216 346 287 c 1,28,-1
 255 202 l 2,29,30
 232 180 232 180 198 204 c 0,31,32
 177 220 177 220 159 247 c 0,33,34
 140 275 140 275 132 301 c 0,35,36
 128 316 128 316 139 326 c 2,37,-1
 232 414 l 1,38,39
 179 509 179 509 179 614 c 0,40,41
 180 742 180 742 248 844 c 1,42,-1
 158 941 l 2,43,44
 136 964 136 964 160 998 c 0,45,46
 176 1019 176 1019 203 1037 c 0,47,48
 231 1056 231 1056 257 1064 c 0,49,50
 272 1068 272 1068 282 1057 c 2,51,-1
 372 962 l 1,52,53
 463 1016 463 1016 572 1017 c 0,54,55
 696 1016 696 1016 795 943 c 1,0,-1
588 329 m 0,56,57
 664 330 664 330 713 402 c 0,58,59
 765 480 765 480 765 588 c 0,60,61
 764 717 764 717 699 811 c 0,62,63
 635 900 635 900 554 901 c 0,64,65
 478 900 478 900 428 826 c 0,66,67
 375 746 375 746 375 638 c 0,68,69
 376 509 376 509 442 417 c 0,70,71
 506 330 506 330 588 329 c 0,56,57
EndSplineSet
Validated: 1
EndChar

StartChar: yen
Encoding: 103 165 103
Width: 1344
GlyphClass: 2
Flags: W
LayerCount: 4
Fore
SplineSet
577 411 m 1,0,-1
 406 411 l 2,1,2
 396 412 396 412 388 418 c 0,3,4
 377.70212766 428.29787234 377.70212766 428.29787234 377.70212766 443.854232684 c 0,5,6
 377.70212766 461.531914894 377.70212766 461.531914894 391 486 c 0,7,8
 392 487 392 487 392 489 c 0,9,10
 413 528 413 528 436 534 c 0,11,12
 442 535 442 535 446 535 c 2,13,-1
 566 535 l 1,14,15
 504 649 504 649 420 796 c 0,16,17
 335 945 335 945 282 1040 c 0,18,19
 252 1091 252 1091 227 1118 c 0,20,21
 200 1145 200 1145 160 1168 c 0,22,23
 138 1180 138 1180 108 1189 c 0,24,25
 77 1197 77 1197 60 1197 c 0,26,27
 26.9714285714 1197.97142857 26.9714285714 1197.97142857 26.9714285714 1244.23918367 c 0,28,29
 26.9714285714 1280.8244898 26.9714285714 1280.8244898 42 1298 c 0,30,31
 50 1305 50 1305 61 1305 c 0,32,33
 96 1304 96 1304 144 1301 c 128,-1,34
 192 1298 192 1298 229 1296 c 0,35,36
 267 1295 267 1295 310 1295 c 0,37,38
 367 1295 367 1295 565 1305 c 0,39,40
 582 1305 582 1305 589 1290 c 0,41,42
 595 1275 595 1275 594 1246 c 0,43,44
 593 1213 593 1213 582 1203 c 0,45,46
 573 1197 573 1197 562 1197 c 0,47,48
 545 1197 545 1197 522 1193 c 0,49,50
 501 1189 501 1189 480 1176 c 0,51,52
 467 1167 467 1167 467 1158 c 0,53,54
 468 1143 468 1143 487 1111 c 2,55,-1
 743 673 l 1,56,57
 805 787 805 787 878 929 c 0,58,59
 963 1095 963 1095 985 1149 c 0,60,61
 988 1159 988 1159 989 1166 c 0,62,63
 987 1168 987 1168 985 1169 c 0,64,65
 975 1177 975 1177 945 1185 c 0,66,67
 911 1194 911 1194 864 1195 c 0,68,69
 856 1195 856 1195 849.5 1197.5 c 128,-1,70
 843 1200 843 1200 840 1204.5 c 128,-1,71
 837 1209 837 1209 835 1214 c 128,-1,72
 833 1219 833 1219 832.5 1224.5 c 128,-1,73
 832 1230 832 1230 832.5 1234.5 c 128,-1,74
 833 1239 833 1239 833.5 1242.5 c 0,75,-1
 834 1246 l 0,76,77
 832 1276 832 1276 833 1280 c 0,78,79
 836 1287 836 1287 840 1293 c 0,80,81
 849 1303 849 1303 861 1303 c 0,82,83
 1044 1293 1044 1293 1066 1293 c 0,84,85
 1113 1293 1113 1293 1146 1294 c 0,86,87
 1181 1296 1181 1296 1219 1299 c 0,88,89
 1259 1302 1259 1302 1285 1303 c 0,90,91
 1303 1302 1303 1302 1310 1286 c 0,92,93
 1314 1271 1314 1271 1312 1243 c 1,94,-1
 1313 1242 l 2,95,96
 1313.24324324 1238.35135135 1313.24324324 1238.35135135 1313.24324324 1234.9853908 c 0,97,98
 1313.24324324 1196.83783784 1313.24324324 1196.83783784 1282 1195 c 0,99,100
 1269 1195 1269 1195 1255 1194 c 0,101,102
 1240 1192 1240 1192 1211 1186 c 0,103,104
 1184 1180 1184 1180 1161 1165 c 0,105,106
 1138 1149 1138 1149 1126 1128 c 0,107,108
 1064 1020 1064 1020 810 546 c 0,109,110
 808 542 808 542 806 535 c 1,111,-1
 970 535 l 2,112,113
 979 534 979 534 985 530 c 0,114,115
 1011 508 1011 508 1004 477 c 0,116,117
 998 456 998 456 988 440 c 0,118,119
 975 423 975 423 963 415 c 0,120,121
 957 412 957 412 950 411 c 2,122,-1
 803 411 l 1,123,124
 803 393 803 393 802 375 c 1,125,-1
 970 375 l 2,126,127
 979 374 979 374 985 370 c 0,128,129
 1011 348 1011 348 1004 317 c 0,130,131
 998 296 998 296 988 280 c 0,132,133
 975 263 975 263 963 255 c 0,134,135
 957 252 957 252 950 251 c 2,136,-1
 801 251 l 1,137,-1
 801 232 l 2,138,139
 801 129 801 129 809 96 c 1,140,141
 821 91 821 91 846 86 c 0,142,143
 896 77 896 77 924 77 c 0,144,145
 936 76 936 76 944 67 c 0,146,147
 955 52 955 52 955 24 c 0,148,149
 955 -7 955 -7 943 -22 c 0,150,151
 934 -31 934 -31 923 -31 c 0,152,153
 719 -21 719 -21 690 -21 c 0,154,155
 658 -21 658 -21 455 -31 c 0,156,157
 443 -31 443 -31 435 -22 c 0,158,159
 422 -6 422 -6 423 24 c 0,160,161
 424 53 424 53 434 67 c 0,162,163
 442 76 442 76 454 77 c 0,164,165
 483 77 483 77 532 86 c 0,166,167
 558 91 558 91 569 96 c 1,168,169
 577 131 577 131 577 232 c 2,170,-1
 577 251 l 1,171,-1
 406 251 l 2,172,173
 396 252 396 252 388 258 c 0,174,175
 377.70212766 268.29787234 377.70212766 268.29787234 377.70212766 283.854232684 c 0,176,177
 377.70212766 301.531914894 377.70212766 301.531914894 391 326 c 0,178,179
 392 327 392 327 392 329 c 0,180,181
 413 368 413 368 436 374 c 0,182,183
 442 375 442 375 446 375 c 2,184,-1
 577 375 l 1,185,-1
 577 411 l 1,0,-1
EndSplineSet
Validated: 1
EndChar

StartChar: brokenbar
Encoding: 104 166 104
Width: 428
GlyphClass: 2
Flags: W
LayerCount: 4
Fore
SplineSet
140 -229 m 2,0,-1
 140 496 l 2,1,2
 139 528 139 528 168 538 c 0,3,4
 207 549 207 549 251 549 c 0,5,6
 268 548 268 548 278 541 c 0,7,8
 291 529 291 529 292 515 c 2,9,-1
 292 -216 l 2,10,11
 292 -218 l 0,12,13
 289 -247 289 -247 245 -257 c 0,14,15
 243 -257 243 -257 240 -258 c 0,16,17
 234 -259 234 -259 232 -260 c 0,18,19
 189 -271 189 -271 175 -271 c 0,20,21
 163 -270 163 -270 155 -266 c 0,22,23
 145 -258 145 -258 141 -249 c 0,24,25
 139 -241 139 -241 140 -233 c 0,26,27
 140 -230 140 -230 140 -229 c 2,0,-1
292 798 m 0,28,29
 289 769 289 769 245 759 c 0,30,31
 243 759 243 759 240 758 c 0,32,33
 234 757 234 757 232 756 c 0,34,35
 189 745 189 745 175 745 c 0,36,37
 163 746 163 746 155 750 c 0,38,39
 145 758 145 758 141 767 c 0,40,41
 140 770 140 770 139.5 773 c 128,-1,42
 139 776 139 776 139 777 c 128,-1,43
 139 778 139 778 139.5 780.5 c 0,44,-1
 140 783 l 0,45,46
 140 785 140 785 140 787 c 2,47,-1
 140 1512 l 2,48,49
 139 1544 139 1544 168 1554 c 0,50,51
 207 1565 207 1565 251 1565 c 0,52,53
 268 1564 268 1564 278 1557 c 0,54,55
 291 1545 291 1545 292 1531 c 2,56,-1
 292 800 l 2,57,58
 292 799 292 799 292 798 c 0,28,29
EndSplineSet
Validated: 1
EndChar

StartChar: section
Encoding: 105 167 105
Width: 882
GlyphClass: 2
Flags: W
LayerCount: 4
Fore
SplineSet
662 194 m 1,0,1
 669 212 669 212 672 228 c 0,2,3
 675 248 675 248 675 270 c 0,4,5
 674 452 674 452 460 651 c 0,6,7
 452 658 452 658 422 684 c 0,8,9
 390 713 390 713 380 723 c 0,10,11
 369 734 369 734 342 761 c 0,12,13
 313 791 313 791 301 807 c 128,-1,14
 289 823 289 823 270 850 c 0,15,16
 249 880 249 880 239 904 c 0,17,18
 230 927 230 927 223 955 c 2,19,-1
 222 956 l 1,20,21
 215 938 215 938 212 922 c 0,22,23
 209 902 209 902 209 880 c 0,24,25
 210 698 210 698 424 499 c 0,26,27
 432 492 432 492 462 466 c 0,28,29
 494 437 494 437 504 427 c 0,30,31
 515 416 515 416 542 389 c 0,32,33
 571 359 571 359 583 343 c 128,-1,34
 595 327 595 327 614 300 c 0,35,36
 635 270 635 270 645 246 c 0,37,38
 654 223 654 223 661 195 c 2,39,-1
 662 194 l 1,0,1
276 -181 m 0,40,41
 225 -181 225 -181 184 -163 c 0,42,43
 176 -159 176 -159 172 -151 c 0,44,45
 158 -121 158 -121 157 -88 c 0,46,47
 158 -55 158 -55 189 -24 c 0,48,49
 221 8 221 8 254 9 c 0,50,51
 270 9 270 9 284 5 c 0,52,53
 297 2 297 2 303 -1 c 0,54,55
 311 -4 311 -4 324 -11 c 0,56,57
 334 -16 334 -16 337 -18 c 0,58,59
 364 -31 364 -31 390 -31 c 0,60,61
 421 -31 421 -31 452 -22 c 0,62,63
 482 -12 482 -12 507 9 c 0,64,65
 527 28 527 28 527 52 c 0,66,67
 526 105 526 105 458 189 c 0,68,69
 384 280 384 280 291 366 c 0,70,71
 244 409 244 409 208 449 c 0,72,73
 171 490 171 490 134 544 c 0,74,75
 95 600 95 600 73 663 c 0,76,77
 51 727 51 727 51 792 c 0,78,79
 52 901 52 901 154 1045 c 0,80,81
 236 1162 236 1162 302 1218 c 0,82,83
 314 1229 314 1229 325 1240 c 2,84,-1
 326 1241 l 1,85,86
 436 1330 436 1330 608 1331 c 0,87,88
 659 1331 659 1331 700 1313 c 0,89,90
 708 1309 708 1309 712 1301 c 0,91,92
 726 1271 726 1271 727 1238 c 0,93,94
 726 1205 726 1205 695 1174 c 0,95,96
 663 1142 663 1142 630 1141 c 0,97,98
 614 1141 614 1141 600 1145 c 0,99,100
 587 1148 587 1148 581 1151 c 0,101,102
 573 1154 573 1154 560 1161 c 0,103,104
 556 1163 556 1163 553 1164.5 c 128,-1,105
 550 1166 550 1166 548.5 1167 c 0,106,-1
 547 1168 l 0,107,108
 520 1181 520 1181 494 1181 c 0,109,110
 463 1181 463 1181 432 1172 c 0,111,112
 402 1162 402 1162 377 1141 c 0,113,114
 357 1122 357 1122 357 1098 c 0,115,116
 358 1045 358 1045 426 961 c 0,117,118
 500 870 500 870 593 784 c 0,119,120
 640 741 640 741 676 701 c 0,121,122
 713 660 713 660 750 606 c 0,123,124
 789 550 789 550 811 487 c 0,125,126
 833 423 833 423 833 358 c 0,127,128
 832 249 832 249 730 105 c 0,129,130
 648 -12 648 -12 582 -68 c 0,131,132
 570 -79 570 -79 559 -90 c 2,133,-1
 558 -91 l 1,134,135
 448 -181 448 -181 276 -181 c 0,40,41
EndSplineSet
Validated: 1
EndChar

StartChar: copyright
Encoding: 107 169 107
Width: 1318
GlyphClass: 2
Flags: W
LayerCount: 4
Fore
SplineSet
87 684 m 0,0,1
 88 921 88 921 254 1088 c 0,2,3
 422 1255 422 1255 658 1255 c 0,4,5
 814 1254 814 1254 946 1179 c 0,6,7
 1078 1102 1078 1102 1154 971 c 0,8,9
 1231 839 1231 839 1231 684 c 0,10,11
 1230 529 1230 529 1154 397 c 0,12,13
 1076 265 1076 265 946 189 c 0,14,15
 814 113 814 113 658 113 c 0,16,17
 421 114 421 114 254 280 c 0,18,19
 87 448 87 448 87 684 c 0,0,1
203 684 m 0,20,21
 204 559 204 559 264 454 c 0,22,23
 326 348 326 348 431 287 c 0,24,25
 537 226 537 226 660 225 c 0,26,27
 785 226 785 226 890 287 c 0,28,29
 996 350 996 350 1057 454 c 0,30,31
 1118 560 1118 560 1119 684 c 0,32,33
 1118 809 1118 809 1057 914 c 0,34,35
 994 1020 994 1020 890 1081 c 0,36,37
 784 1142 784 1142 660 1143 c 0,38,39
 535 1142 535 1142 431 1081 c 0,40,41
 326 1018 326 1018 264 914 c 0,42,43
 203 808 203 808 203 684 c 0,20,21
937 552 m 0,44,45
 937 538 937 538 921 481 c 0,46,47
 907 432 907 432 903 425 c 0,48,49
 894 411 894 411 882 405 c 0,50,51
 782 365 782 365 660 365 c 0,52,53
 529 366 529 366 439 454 c 0,54,55
 349 544 349 544 349 672 c 0,56,57
 350 804 350 804 436 897 c 0,58,59
 524 991 524 991 656 991 c 0,60,61
 786 991 786 991 889 951 c 0,62,63
 900 946 900 946 904 935 c 0,64,65
 937 818 937 818 937 806 c 0,66,67
 936 784 936 784 913 771 c 0,68,69
 897 763 897 763 880 763 c 0,70,71
 868 763 868 763 855 770 c 0,72,73
 845 776 845 776 842 786 c 0,74,75
 839 796 839 796 832 807 c 0,76,77
 823 820 823 820 807 836 c 0,78,79
 791 851 791 851 760 862 c 0,80,81
 726 873 726 873 680 873 c 0,82,83
 611 872 611 872 563 819 c 0,84,85
 514 763 514 763 513 690 c 0,86,87
 514 589 514 589 571 534 c 0,88,89
 630 479 630 479 698 479 c 0,90,91
 790 479 790 479 825 510 c 0,92,93
 832 518 832 518 836 528 c 0,94,95
 842 542 842 542 844 552 c 2,96,-1
 843 567 l 1,97,98
 849 583 849 583 872 583 c 0,99,100
 875 583 875 583 883 583 c 0,101,102
 921 586 921 586 932 567 c 0,103,104
 933 565 933 565 934 563 c 0,105,106
 937 557 937 557 937 552 c 0,44,45
EndSplineSet
Validated: 1
EndChar

StartChar: ordfeminine
Encoding: 108 170 108
Width: 690
GlyphClass: 2
Flags: W
LayerCount: 4
Fore
SplineSet
376 1137 m 0,0,1
 448 1136 448 1136 501 1073 c 0,2,3
 552 1010 552 1010 553 924 c 2,4,-1
 553 638 l 2,5,6
 555 597 555 597 570 597 c 0,7,8
 575 597 575 597 579 598 c 0,9,10
 585 600 585 600 589 602 c 0,11,12
 593 604 593 604 597 607 c 2,13,-1
 600 610 l 2,14,15
 607 615 607 615 616 615 c 0,16,17
 641 615 641 615 646 586 c 0,18,19
 646 582 646 582 647 580 c 0,20,21
 646 558 646 558 635 540 c 0,22,23
 633 538 633 538 632 536 c 0,24,25
 614 518 614 518 577 498 c 0,26,27
 536 476 536 476 510 475 c 0,28,29
 469 476 469 476 438 512 c 0,30,31
 423 529 423 529 414 548 c 1,32,33
 392 532 392 532 360 513 c 0,34,35
 294 473 294 473 256 473 c 0,36,37
 177 474 177 474 123 526 c 0,38,39
 70 580 70 580 69 658 c 0,40,41
 70 705 70 705 96 742 c 0,42,43
 123 778 123 778 155 791 c 0,44,45
 377 870 377 870 397 879 c 1,46,47
 397 885 397 885 397 890 c 2,48,-1
 397 928 l 2,49,50
 396 969 396 969 371 999 c 0,51,52
 345 1027 345 1027 304 1027 c 0,53,54
 289 1027 289 1027 280 1023 c 0,55,56
 274 1020 274 1020 270 1016 c 0,57,58
 258 1002 258 1002 251 970 c 0,59,60
 238 895 238 895 178 884 c 0,61,62
 170 883 170 883 162 883 c 0,63,64
 128 884 128 884 108 911 c 0,65,66
 90 936 90 936 89 966 c 0,67,68
 90 1000 90 1000 107 1018 c 0,69,70
 152 1060 152 1060 225 1098 c 0,71,72
 236 1104 236 1104 247 1108 c 0,73,74
 313 1137 313 1137 376 1137 c 0,0,1
302 597 m 0,75,76
 329 598 329 598 365 621 c 0,77,78
 388 636 388 636 397 645 c 1,79,-1
 397 776 l 1,80,-1
 396 776 l 1,81,-1
 395 776 l 1,82,-1
 394 775 l 1,83,-1
 393 775 l 1,84,-1
 392 775 l 1,85,-1
 391 774 l 1,86,-1
 390 774 l 1,87,-1
 389 774 l 1,88,-1
 388 774 l 1,89,-1
 387 773 l 2,90,91
 357 764 357 764 335 757 c 0,92,93
 314 750 314 750 303 747 c 0,94,95
 234 718 234 718 233 670 c 0,96,97
 234 640 234 640 254 619 c 0,98,99
 275 597 275 597 302 597 c 0,75,76
EndSplineSet
Validated: 1
EndChar

StartChar: guillemotleft
Encoding: 109 171 109
Width: 964
GlyphClass: 2
Flags: W
LayerCount: 4
Fore
SplineSet
29 492 m 0,0,1
 29 512 29 512 41 538 c 0,2,3
 45 545 45 545 51 549 c 0,4,5
 301 700 301 700 464 864 c 0,6,7
 475 874 475 874 489 870 c 0,8,9
 532 856 532 856 547 836 c 0,10,11
 554 826 554 826 550 816 c 0,12,13
 541 782 541 782 453 684 c 0,14,15
 443 673 443 673 430 660 c 0,16,17
 337 559 337 559 267 494 c 1,18,19
 338 429 338 429 430 328 c 0,20,21
 530 219 530 219 546 184 c 0,22,23
 549 178 549 178 550 172 c 0,24,25
 552 161 552 161 547 152 c 0,26,27
 532 132 532 132 489 118 c 0,28,29
 475 114 475 114 464 124 c 0,30,31
 299 288 299 288 51 439 c 0,32,33
 46 443 46 443 43 446 c 0,34,35
 29 468 29 468 29 492 c 0,0,1
389 492 m 0,36,37
 389 512 389 512 401 538 c 0,38,39
 405 545 405 545 411 549 c 0,40,41
 661 700 661 700 824 864 c 0,42,43
 835 874 835 874 849 870 c 0,44,45
 892 856 892 856 907 836 c 0,46,47
 914 826 914 826 910 816 c 0,48,49
 901 782 901 782 813 684 c 0,50,51
 803 673 803 673 790 660 c 0,52,53
 697 559 697 559 627 494 c 1,54,55
 698 429 698 429 790 328 c 0,56,57
 890 219 890 219 906 184 c 0,58,59
 909 178 909 178 910 172 c 0,60,61
 912 161 912 161 907 152 c 0,62,63
 892 132 892 132 849 118 c 0,64,65
 835 114 835 114 824 124 c 0,66,67
 659 288 659 288 411 439 c 0,68,69
 406 443 406 443 403 446 c 0,70,71
 389 468 389 468 389 492 c 0,36,37
EndSplineSet
Validated: 1
EndChar

StartChar: logicalnot
Encoding: 110 172 110
Width: 1174
GlyphClass: 2
Flags: W
LayerCount: 4
Fore
SplineSet
1057 840 m 2,0,-1
 1057 338 l 2,1,2
 1056 328 1056 328 1050 320 c 0,3,4
 1043 314 1043 314 1026.5 306.5 c 128,-1,5
 1010 299 1010 299 987 292 c 0,6,7
 960 283 960 283 938 283 c 0,8,9
 936 283 l 0,10,11
 903 287 903 287 890 311 c 0,12,13
 888 317 888 317 887 322 c 2,14,-1
 887 703 l 1,15,-1
 102 703 l 2,16,17
 71 703 71 703 66 740 c 0,18,19
 65 744 65 744 65 748 c 0,20,21
 65 750 65 750 65 751 c 0,22,23
 73 824 73 824 84 843 c 0,24,25
 98 864 98 864 120 865 c 2,26,-1
 1032 865 l 2,27,28
 1050 865 1050 865 1056 847 c 0,29,30
 1057 843 1057 843 1057 840 c 2,0,-1
EndSplineSet
Validated: 1
EndChar

